# ProBuilder 5.2.2
# https://unity3d.com/unity/features/worldbuilding/probuilder
# 7/9/2024 4:38:33 AM

mtllib ./Краска-01.mtl
o Краска-01

g Краска-01
v 38.38062 -208.2434 4.440892E-16
v 38.38062 -207.8134 6.661338E-16
v 38.38062 -207.9434 5.77316E-15
v 32.88062 -208.2434 5.77316E-15
v 32.88062 -207.9434 5.77316E-15
v 32.88062 -207.8134 5.77316E-15
v 35.23062 -216.8434 3.552714E-15
v 35.23062 -217.2734 3.774758E-15
v 35.23062 -217.1434 0
v 33.01062 -216.8434 5.77316E-15
v 33.63562 -216.8434 0.8
v 33.01062 -216.8434 2.1
v 34.16062 -216.8434 0.8
v 33.63562 -216.8434 2.8
v 35.23062 -216.8434 2.55
v 32.11061 -216.8434 2.1
v 34.16062 -216.8434 2.8
v 31.48562 -216.8434 2.8
v 38.23062 -216.8434 2.55
v 31.48562 -216.8434 0.8
v 32.11061 -216.8434 5.77316E-15
v 30.96062 -216.8434 0.8
v 29.68061 -216.8434 0
v 29.68061 -216.8434 3
v 30.96062 -216.8434 2.8
v 38.68062 -216.8434 3
v 38.68062 -216.8434 0
v 38.23062 -216.8434 4.440892E-16
v 39.11061 -217.2734 0
v 39.11061 -217.2734 3
v 35.62616 -219.3734 3.0098
v 30.04116 -213.7884 5.042573
v 24.45616 -219.3734 3.0098
v 26.83061 -218.0434 2.8
v 28.63062 -218.3434 2.8
v 28.63062 -218.0434 2.8
v 26.83061 -218.3434 2.8
v 28.63062 -218.3434 0.8
v 28.63062 -218.0434 0.8
v 26.83061 -218.0434 0.8
v 26.83061 -218.3434 0.8
v 25.35061 -218.4734 3
v 25.35061 -218.4734 0
v 25.78062 -218.0434 0
v 25.78062 -218.0434 3
v 29.68061 -218.0434 0
v 29.68061 -218.0434 3
v 30.11062 -218.4734 0
v 30.11062 -218.4734 3
v 25.78062 -216.8434 0
v 25.78062 -216.8434 3
v 25.35061 -217.2734 3
v 25.35061 -217.2734 0
v 30.11062 -217.2734 0
v 30.11062 -217.2734 3
v 38.38062 -207.9434 1.8
v 38.38062 -208.2434 1.8
v 39.11061 -207.8134 0
v 38.68062 -208.2434 0
v 38.23062 -217.1434 0
v 38.23062 -217.2734 8.881784E-16
v 39.11061 -208.1834 4.440892E-15
v 39.13062 -208.1834 4.440892E-15
v 39.13062 -207.7934 0
v 38.74062 -207.8134 4.440892E-15
v 38.74062 -207.7934 4.440892E-15
v 38.74062 -217.2734 4.440892E-15
v 38.74062 -217.2934 4.440892E-15
v 39.13062 -217.2934 0
v 39.11061 -216.9034 4.440892E-15
v 39.13062 -216.9034 4.440892E-15
v 38.68062 -208.2434 3
v 39.11061 -207.8134 3
v 36.93016 -208.2434 2.1
v 37.38062 -208.2434 1.8
v 36.93016 -208.2434 0.6
v 37.38062 -208.2434 1.554312E-15
v 33.68062 -208.2434 5.77316E-15
v 36.03016 -208.2434 0.6
v 33.68062 -208.2434 2.1
v 36.03016 -208.2434 2.1
v 32.25562 -208.2434 2.8
v 32.88062 -208.2434 2.1
v 30.65562 -208.2434 2.8
v 29.68061 -208.2434 3
v 30.65562 -208.2434 0.8
v 29.68061 -208.2434 0
v 32.25562 -208.2434 0.8
v 37.38062 -207.9434 1.8
v 37.38062 -207.9434 5.551115E-15
v 33.68062 -207.9434 5.77316E-15
v 33.68062 -207.8134 5.77316E-15
v 37.38062 -207.8134 1.776357E-15
v 30.11062 -207.8134 0
v 29.68061 -206.2434 0
v 30.11062 -205.8134 0
v 21.58061 -206.2434 0
v 21.15062 -205.8134 0
v 21.58061 -216.8434 0
v 21.15062 -217.2734 0
v 32.11061 -217.2734 5.77316E-15
v 32.11061 -217.1434 5.77316E-15
v 30.11062 -206.1834 4.440892E-15
v 30.13062 -206.1834 4.440892E-15
v 30.13062 -205.7934 0
v 29.74061 -205.8134 4.440892E-15
v 29.74061 -205.7934 4.440892E-15
v 25.35061 -218.1034 4.440892E-15
v 25.33061 -218.1034 4.440892E-15
v 25.33061 -218.4934 0
v 25.72062 -218.4734 4.440892E-15
v 25.72062 -218.4934 4.440892E-15
v 30.11062 -207.8134 3
v 32.88062 -207.9434 2.1
v 33.68062 -207.9434 2.1
v 30.65562 -207.9434 0.8
v 30.65562 -207.9434 2.8
v 32.25562 -207.9434 2.8
v 32.25562 -207.9434 0.8
v 36.03016 -207.9434 0.6
v 36.03016 -207.9434 2.1
v 36.93016 -207.9434 2.1
v 36.93016 -207.9434 0.6
v 38.68062 -214.0934 1.95
v 38.68062 -212.9934 1.95
v 38.68062 -212.9934 2.55
v 38.68062 -214.0934 2.55
v 38.68062 -214.8934 2.55
v 38.68062 -214.8934 1.95
v 38.68062 -212.1934 2.55
v 38.68062 -211.0934 1.95
v 38.68062 -210.2934 2.55
v 38.68062 -210.2934 1.95
v 38.68062 -212.1934 1.95
v 38.68062 -211.0934 2.55
v 38.98062 -214.8934 1.95
v 38.98062 -214.0934 1.95
v 38.98062 -214.0934 2.55
v 38.98062 -214.8934 2.55
v 38.98062 -211.0934 1.95
v 38.98062 -210.2934 1.95
v 38.98062 -210.2934 2.55
v 38.98062 -211.0934 2.55
v 38.98062 -212.9934 1.95
v 38.98062 -212.1934 1.95
v 38.98062 -212.1934 2.55
v 38.98062 -212.9934 2.55
v 34.48062 -210.8634 0
v 34.78062 -210.8634 3
v 34.78062 -210.8634 0
v 34.48062 -210.8634 3
v 32.13062 -214.6034 0
v 32.23062 -214.5034 3
v 32.23062 -214.5034 0
v 32.13062 -214.6034 3
v 32.23062 -212.8434 5.77316E-15
v 32.13062 -211.9034 0
v 32.13062 -212.8434 5.77316E-15
v 32.23062 -212.0034 0
v 34.48062 -211.9034 5.77316E-15
v 34.48062 -212.0034 5.77316E-15
v 32.13062 -213.7434 5.77316E-15
v 32.23062 -213.7434 5.77316E-15
v 34.48062 -214.5034 5.77316E-15
v 34.48062 -214.6034 5.77316E-15
v 34.48062 -214.6034 3
v 34.48062 -214.5034 3
v 32.23062 -212.0034 3
v 32.13062 -211.9034 3
v 34.48062 -212.0034 3
v 34.48062 -211.9034 3
v 25.83061 -213.7434 5.77316E-15
v 28.58061 -213.7434 5.77316E-15
v 28.58061 -213.7434 2.1
v 25.83061 -213.7434 3
v 29.48062 -213.7434 2.1
v 30.03062 -213.7434 3
v 30.03062 -213.7434 0
v 29.48062 -213.7434 5.77316E-15
v 28.58061 -213.8434 2.1
v 28.58061 -213.8434 5.77316E-15
v 25.83061 -213.8434 5.77316E-15
v 25.83061 -213.8434 3
v 29.73062 -213.8434 3
v 29.73062 -216.8434 3
v 30.03062 -216.8434 3
v 29.73062 -213.8434 0
v 29.48062 -213.8434 2.1
v 29.48062 -213.8434 5.77316E-15
v 30.03062 -216.8434 5.77316E-15
v 29.73062 -216.8434 5.77316E-15
v 24.13062 -210.4434 3
v 21.58061 -210.4434 3
v 21.58061 -210.3434 3
v 24.13062 -210.3434 3
v 24.23062 -210.3434 3
v 24.13062 -212.6434 3
v 24.23062 -212.6434 3
v 25.53062 -210.4434 3
v 24.23062 -210.4434 3
v 25.53062 -210.3434 3
v 24.13062 -210.3434 5.77316E-15
v 24.13062 -210.4434 5.77316E-15
v 21.58061 -210.3434 5.77316E-15
v 24.23062 -210.3434 5.77316E-15
v 24.38062 -210.3434 2.1
v 24.38062 -210.3434 5.77316E-15
v 25.28062 -210.3434 2.1
v 25.53062 -210.3434 5.77316E-15
v 25.28062 -210.3434 5.77316E-15
v 21.58061 -210.4434 5.77316E-15
v 24.23062 -211.4933 5.77316E-15
v 24.13062 -211.4933 5.77316E-15
v 24.23062 -210.4434 5.77316E-15
v 24.38062 -210.4434 5.77316E-15
v 25.53062 -210.4434 5.77316E-15
v 25.28062 -210.4434 5.77316E-15
v 25.28062 -210.4434 2.1
v 24.38062 -210.4434 2.1
v 30.11062 -205.8134 3
v 29.68061 -206.2434 3
v 24.23062 -211.4933 2.1
v 24.23062 -212.3933 2.1
v 24.23062 -212.6434 5.77316E-15
v 24.23062 -212.3933 5.77316E-15
v 24.13062 -212.3933 5.77316E-15
v 24.13062 -212.3933 2.1
v 24.13062 -211.4933 2.1
v 24.13062 -212.6434 5.77316E-15
v 28.78062 -206.2434 0.55
v 28.78062 -206.2434 2.8
v 26.58061 -206.2434 2.8
v 21.58061 -206.2434 3
v 26.58061 -206.2434 0.55
v 21.15062 -205.8134 3
v 26.58061 -205.9434 0.55
v 26.58061 -205.9434 2.8
v 28.78062 -205.9434 2.8
v 28.78062 -205.9434 0.55
v 34.48062 -208.8634 3
v 34.48062 -208.2434 3
v 34.78062 -208.2434 3
v 34.78062 -208.8634 3
v 34.48062 -209.3634 3
v 34.78062 -209.3634 3
v 34.48062 -209.8634 3
v 34.78062 -209.8634 3
v 34.48062 -210.3634 3
v 34.78062 -210.3634 3
v 34.48062 -216.8434 3
v 34.78062 -216.8434 3
v 34.78062 -215.6432 2.1
v 34.78062 -215.6432 5.77316E-15
v 34.78062 -216.5432 2.1
v 34.78062 -216.8434 5.77316E-15
v 34.78062 -216.5432 5.77316E-15
v 34.78062 -208.2434 5.77316E-15
v 34.48062 -208.2434 5.77316E-15
v 34.48062 -215.6432 2.1
v 34.48062 -215.6432 5.77316E-15
v 34.48062 -216.5432 2.1
v 34.48062 -216.8434 5.77316E-15
v 34.48062 -216.5432 5.77316E-15
v 34.78062 -208.8634 0
v 34.48062 -208.8634 0
v 34.48062 -209.3634 0
v 34.78062 -209.3634 0
v 34.48062 -209.8634 0
v 34.78062 -209.8634 0
v 34.48062 -210.3634 0
v 34.78062 -210.3634 0
v 25.83061 -206.2434 5.77316E-15
v 25.83061 -210.8934 3
v 25.83061 -206.2434 3
v 25.83061 -210.8934 5.77316E-15
v 25.53062 -206.2434 3
v 25.53062 -206.2434 5.77316E-15
v 25.53062 -210.8934 3
v 25.53062 -210.8934 5.77316E-15
v 21.58061 -216.8434 3
v 21.15062 -217.2734 3
v 28.03062 -211.9034 3
v 28.03062 -211.9034 0
v 27.93061 -212.0034 0
v 27.93061 -212.0034 3
v 25.83061 -212.0034 3
v 25.83061 -212.0034 0
v 25.53062 -211.9034 0
v 25.53062 -211.9034 3
v 28.03062 -212.3434 5.77316E-15
v 28.03062 -212.3434 2.1
v 28.03062 -213.2434 2.1
v 28.03062 -213.7434 3
v 28.03062 -213.7434 5.77316E-15
v 28.03062 -213.2434 5.77316E-15
v 27.93061 -213.2434 5.77316E-15
v 27.93061 -213.2434 2.1
v 27.93061 -212.3434 2.1
v 27.93061 -212.3434 5.77316E-15
v 25.83061 -216.8434 5.77316E-15
v 25.53062 -216.8434 5.77316E-15
v 27.93061 -213.7434 3
v 27.93061 -213.7434 5.77316E-15
v 25.53062 -216.8434 3
v 25.83061 -216.8434 3
v 35.23062 -217.0484 2.55
v 38.23062 -217.0484 3
v 38.23062 -217.0484 2.55
v 35.23062 -217.0484 3
v 38.23062 -217.0934 2.55
v 38.23062 -217.0934 3
v 38.23062 -217.1434 2.55
v 35.23062 -217.0934 3
v 35.23062 -217.0934 2.55
v 35.23062 -217.1434 2.55
v 33.01062 -217.2734 5.77316E-15
v 33.01062 -217.1434 5.77316E-15
v 33.01062 -217.1434 2.1
v 32.11061 -217.1434 2.1
v 31.48562 -217.1434 2.8
v 30.96062 -217.1434 2.8
v 30.96062 -217.1434 0.8
v 31.48562 -217.1434 0.8
v 34.16062 -217.1434 2.8
v 33.63562 -217.1434 2.8
v 33.63562 -217.1434 0.8
v 34.16062 -217.1434 0.8
v 36.83062 -209.8934 5.77316E-15
v 34.78062 -210.0134 0
v 36.83062 -210.0134 5.77316E-15
v 34.78062 -209.8934 0
v 34.78062 -209.8934 3
v 38.68062 -210.0134 3
v 34.78062 -210.0134 3
v 38.68062 -209.8934 3
v 38.68062 -209.8934 5.77316E-15
v 38.68062 -210.0134 5.77316E-15
v 37.73062 -210.0134 5.77316E-15
v 37.73062 -209.8934 5.77316E-15
v 21.58061 -211.6434 1.05
v 21.28062 -211.6434 2.55
v 21.58061 -211.6434 2.55
v 21.28062 -211.6434 1.05
v 21.28062 -212.5434 2.55
v 21.58061 -212.5434 2.55
v 21.58061 -212.5434 1.05
v 21.28062 -212.5434 1.05
v 21.58061 -207.3934 0.8
v 21.58061 -207.3934 2.8
v 21.58061 -213.8934 0.8
v 21.58061 -209.1934 2.8
v 21.58061 -215.6934 0.8
v 21.58061 -215.6934 2.8
v 21.58061 -209.1934 0.8
v 21.58061 -213.8934 2.8
v 21.28062 -209.1934 0.8
v 21.28062 -209.1934 2.8
v 21.28062 -207.3934 2.8
v 21.28062 -207.3934 0.8
v 21.28062 -215.6934 0.8
v 21.28062 -215.6934 2.8
v 21.28062 -213.8934 2.8
v 21.28062 -213.8934 0.8
v 29.69062 -211.9034 5.77316E-15
v 29.69062 -212.2834 3
v 29.69062 -212.2834 5.77316E-15
v 29.69062 -211.9034 3
v 30.07061 -211.9034 5.77316E-15
v 30.07061 -212.2834 3
v 30.07061 -211.9034 3
v 30.07061 -212.2834 5.77316E-15
v 21.58061 -212.6434 5.77316E-15
v 24.38062 -212.6434 5.77316E-15
v 24.38062 -212.6434 2.1
v 21.58061 -212.6434 3
v 25.28062 -212.6434 2.1
v 25.53062 -212.6434 3
v 25.53062 -212.6434 5.77316E-15
v 25.28062 -212.6434 5.77316E-15
v 24.38062 -212.7434 2.1
v 24.38062 -212.7434 5.77316E-15
v 21.58061 -212.7434 5.77316E-15
v 21.58061 -212.7434 3
v 25.53062 -212.7434 3
v 25.53062 -212.7434 5.77316E-15
v 25.28062 -212.7434 5.77316E-15
v 25.28062 -212.7434 2.1
v 29.99616 -212.5434 5.058952
v 40.01616 -206.9134 3.0098
v 35.62616 -206.9134 3.0098
v 34.38616 -212.5434 5.058952
v 40.01616 -218.1734 3.0098
v 30.08616 -212.5434 5.058952
v 30.04116 -212.5884 5.042573
v 35.62616 -218.1734 3.0098
v 24.45616 -218.1734 3.0098
v 20.25616 -218.1734 3.0098
v 26.88616 -211.5434 5.422922
v 20.25616 -204.9134 3.0098
v 28.99616 -211.5434 5.422922
v 32.23116 -208.3084 4.245479
v 28.83616 -204.9134 3.0098
v 35.62616 -203.5534 3.0098
v 28.83616 -203.5534 3.0098
v 32.23116 -206.9484 4.245479
v 21.13062 -217.2934 3
v 21.13062 -216.9034 3
v 21.15062 -216.9034 3
v 21.52062 -217.2934 3
v 21.52062 -217.2734 3
v 29.74061 -205.8134 3
v 29.74061 -205.7934 3
v 30.13062 -205.7934 3
v 30.11062 -206.1834 3
v 30.13062 -206.1834 3
v 38.74062 -207.8134 3
v 38.74062 -207.7934 3
v 39.13062 -207.7934 3
v 39.11061 -208.1834 3
v 39.13062 -208.1834 3
v 39.11061 -216.9034 3
v 39.13062 -216.9034 3
v 39.13062 -217.2934 3
v 38.74062 -217.2734 3
v 38.74062 -217.2934 3
v 21.13062 -217.2934 0
v 21.15062 -216.9034 4.440892E-15
v 21.13062 -216.9034 4.440892E-15
v 21.52062 -217.2734 4.440892E-15
v 21.52062 -217.2934 4.440892E-15
v 30.11062 -218.1034 3
v 30.13062 -218.1034 3
v 30.13062 -218.4934 3
v 29.74061 -218.4734 3
v 29.74061 -218.4934 3
v 30.13062 -218.4934 0
v 30.11062 -218.1034 4.440892E-15
v 30.13062 -218.1034 4.440892E-15
v 29.74061 -218.4934 4.440892E-15
v 29.74061 -218.4734 4.440892E-15
v 25.72062 -218.4734 3
v 25.33061 -218.4934 3
v 25.72062 -218.4934 3
v 25.35061 -218.1034 3
v 25.33061 -218.1034 3
v 21.13062 -205.7934 3
v 21.52062 -205.7934 3
v 21.52062 -205.8134 3
v 21.13062 -206.1834 3
v 21.15062 -206.1834 3
v 21.13062 -205.7934 0
v 21.52062 -205.8134 4.440892E-15
v 21.52062 -205.7934 4.440892E-15
v 21.15062 -206.1834 4.440892E-15
v 21.13062 -206.1834 4.440892E-15
v 34.48062 -208.9134 0.07
v 34.46062 -209.4434 0.07
v 34.48062 -209.4434 0.07
v 33.90562 -209.4434 0.07
v 33.88562 -209.4434 0.07
v 33.88562 -208.9134 0.07
v 34.47962 -208.9134 0.07
v 33.88562 -208.8934 0.07
v 34.47962 -208.8934 0.07
v 34.46062 -209.4234 0.09
v 34.48062 -208.9134 0.09
v 34.46062 -208.9134 0.09
v 34.48062 -209.4434 0.09
v 33.90562 -209.4234 0.09
v 33.88562 -209.4434 0.09
v 33.88562 -208.9134 0.09
v 33.90562 -208.9134 0.09
v 34.48062 -209.5134 0.07
v 34.46062 -210.4034 0.07
v 34.48062 -210.4034 0.07
v 33.90562 -210.4034 0.07
v 33.88562 -210.4034 0.07
v 33.88562 -209.5134 0.07
v 34.47962 -209.5134 0.07
v 33.88562 -209.4934 0.07
v 34.47962 -209.4934 0.07
v 34.41062 -211.3034 0.07
v 33.88562 -210.4234 0.07
v 33.88562 -211.2834 0.07
v 33.88562 -211.3034 0.07
v 34.41062 -210.4034 0.07
v 34.41062 -211.3024 0.07
v 34.43062 -210.4034 0.07
v 34.43062 -211.3024 0.07
v 34.46062 -210.3834 0.09
v 34.48062 -209.5134 0.09
v 34.46062 -209.5134 0.09
v 34.48062 -210.4034 0.09
v 33.90562 -210.3834 0.09
v 33.88562 -210.4034 0.09
v 33.88562 -209.5134 0.09
v 33.90562 -209.5134 0.09
v 34.41062 -210.4034 0.09
v 33.90562 -210.4234 0.09
v 34.41062 -210.4234 0.09
v 33.88562 -211.3034 0.09
v 33.90562 -211.2834 0.09
v 34.41062 -211.3034 0.09
v 34.41062 -211.2834 0.09
v 34.48062 -212.6228 1.016
v 34.47562 -212.6228 1.15
v 34.47562 -212.6228 1.016
v 34.48062 -212.6228 1.15
v 34.47562 -212.4568 1.15
v 34.48062 -212.4568 1.15
v 34.47562 -212.4568 1.016
v 34.48062 -212.4568 1.016
v 34.48062 -212.4168 1.016
v 34.47562 -212.4168 1.016
v 34.48062 -212.6628 1.016
v 34.47562 -212.6628 1.016
v 34.47562 -212.4168 1.18
v 34.48062 -212.4168 1.18
v 34.47562 -212.6628 1.18
v 34.48062 -212.6628 1.18
v 34.47562 -212.4568 1.046
v 34.48062 -212.4568 1.046
v 34.47562 -212.6228 1.046
v 34.48062 -212.6228 1.046
v 34.48062 -212.6208 1.048
v 34.47562 -212.5228 1.048
v 34.47562 -212.6208 1.048
v 34.48062 -212.5228 1.048
v 34.47562 -212.5228 1.148
v 34.48062 -212.5228 1.148
v 34.47562 -212.6208 1.148
v 34.48062 -212.6208 1.148
v 34.48062 -212.5208 1.148
v 34.47562 -212.5208 1.048
v 34.47562 -212.5208 1.148
v 34.48062 -212.5208 1.048
v 34.47562 -212.4588 1.048
v 34.48062 -212.4588 1.048
v 34.47562 -212.4588 1.148
v 34.48062 -212.4588 1.148
v 34.41062 -211.3034 0.81
v 34.41062 -211.3034 0.83
v 34.41062 -211.2834 0.83
v 34.41062 -211.2834 0.81
v 34.41062 -211.2834 0.07
v 34.41062 -210.4234 0.83
v 34.41062 -210.4034 0.83
v 34.41062 -210.4234 0.81
v 34.41062 -210.4034 0.81
v 34.41062 -210.4234 0.07
v 34.43062 -211.3024 0.8289999
v 34.41062 -211.3024 0.8289999
v 23.79018 -210.4434 1.016
v 23.79018 -210.4484 1.15
v 23.79018 -210.4484 1.016
v 23.79018 -210.4434 1.15
v 23.62418 -210.4484 1.15
v 23.62418 -210.4434 1.15
v 23.62418 -210.4484 1.016
v 23.62418 -210.4434 1.016
v 23.58418 -210.4434 1.016
v 23.58418 -210.4484 1.016
v 23.83018 -210.4434 1.016
v 23.83018 -210.4484 1.016
v 23.58418 -210.4484 1.18
v 23.58418 -210.4434 1.18
v 23.83018 -210.4484 1.18
v 23.83018 -210.4434 1.18
v 23.62418 -210.4484 1.046
v 23.62418 -210.4434 1.046
v 23.79018 -210.4484 1.046
v 23.79018 -210.4434 1.046
v 23.78818 -210.4434 1.048
v 23.69018 -210.4484 1.048
v 23.78818 -210.4484 1.048
v 23.69018 -210.4434 1.048
v 23.69018 -210.4484 1.148
v 23.69018 -210.4434 1.148
v 23.78818 -210.4484 1.148
v 23.78818 -210.4434 1.148
v 23.68818 -210.4434 1.148
v 23.68818 -210.4484 1.048
v 23.68818 -210.4484 1.148
v 23.68818 -210.4434 1.048
v 23.62618 -210.4484 1.048
v 23.62618 -210.4434 1.048
v 23.62618 -210.4484 1.148
v 23.62618 -210.4434 1.148
v 33.88062 -208.8434 0.81
v 33.88062 -208.8434 0.83
v 33.90062 -208.8434 0.83
v 33.90062 -208.8434 0.81
v 34.48062 -208.3134 0.07
v 34.46062 -208.8434 0.07
v 34.48062 -208.8434 0.07
v 33.90062 -208.8434 0.07
v 33.88062 -208.8434 0.07
v 33.88062 -208.3134 0.07
v 34.47962 -208.3134 0.07
v 33.88062 -208.2934 0.07
v 34.47962 -208.2934 0.07
v 34.46062 -208.8234 0.09
v 34.48062 -208.3134 0.09
v 34.46062 -208.3134 0.09
v 34.48062 -208.8434 0.09
v 33.90062 -208.8234 0.09
v 33.88062 -208.8434 0.09
v 33.88062 -208.3134 0.09
v 33.90062 -208.3134 0.09
v 33.88062 -208.2934 0.8289999
v 34.47962 -208.2934 0.8289999
v 34.46062 -211.9034 0.81
v 34.46062 -211.9034 0.83
v 34.48062 -211.9034 0.83
v 34.48062 -211.9034 0.81
v 34.46062 -211.9034 0.07
v 34.46062 -211.9034 0.09
v 34.48062 -211.9034 0.09
v 34.48062 -211.9034 0.07
v 34.48062 -211.3734 0.83
v 34.48062 -211.3734 0.81
v 34.48062 -211.3734 0.09
v 34.48062 -211.3734 0.07
v 33.90562 -211.9034 0.07
v 33.88562 -211.9034 0.07
v 33.88562 -211.3734 0.07
v 34.47962 -211.3734 0.07
v 33.88562 -211.3534 0.07
v 34.47962 -211.3534 0.07
v 34.46062 -211.8834 0.09
v 34.46062 -211.3734 0.09
v 33.90562 -211.8834 0.09
v 33.88562 -211.9034 0.09
v 33.88562 -211.3734 0.09
v 33.90562 -211.3734 0.09
v 34.46062 -211.3734 0.81
v 34.46062 -211.8834 0.81
v 34.47962 -211.3534 0.8289999
v 34.47962 -211.3734 0.8289999
v 33.90562 -211.3734 0.07
v 34.46062 -211.3734 0.07
v 33.90562 -211.3734 0.81
v 33.88562 -211.3734 0.81
v 33.88562 -211.3734 0.83
v 33.90562 -211.3734 0.83
v 34.46062 -211.3734 0.83
v 33.90062 -208.3134 0.07
v 34.46062 -208.3134 0.07
v 33.88062 -208.3134 0.81
v 34.46062 -208.3134 0.81
v 33.90062 -208.3134 0.81
v 34.48062 -208.3134 0.81
v 33.88062 -208.3134 0.83
v 33.90062 -208.3134 0.83
v 34.48062 -208.3134 0.83
v 34.46062 -208.3134 0.83
v 33.90562 -209.5134 0.07
v 34.46062 -209.5134 0.07
v 34.48062 -209.5134 0.81
v 33.90562 -209.5134 0.81
v 33.88562 -209.5134 0.81
v 34.46062 -209.5134 0.81
v 34.48062 -209.5134 0.83
v 33.88562 -209.5134 0.83
v 33.90562 -209.5134 0.83
v 34.46062 -209.5134 0.83
v 33.90562 -208.9134 0.07
v 34.46062 -208.9134 0.07
v 34.48062 -208.9134 0.81
v 33.90562 -208.9134 0.81
v 33.88562 -208.9134 0.81
v 34.46062 -208.9134 0.81
v 33.88562 -208.9134 0.83
v 33.90562 -208.9134 0.83
v 34.48062 -208.9134 0.83
v 34.46062 -208.9134 0.83

vt -38.38062 4.440892E-16
vt -32.88062 5.77316E-15
vt -35.23062 3.552714E-15
vt -33.01062 5.77316E-15
vt -33.63562 0.8
vt -33.01062 2.1
vt -34.16062 0.8
vt -33.63562 2.8
vt -35.23062 2.55
vt -32.11061 2.1
vt -34.16062 2.8
vt -31.48562 2.8
vt -38.23062 2.55
vt -31.48562 0.8
vt -32.11061 5.77316E-15
vt -30.96062 0.8
vt -29.68061 0
vt -29.68061 3
vt -30.96062 2.8
vt -38.68062 3
vt -38.68062 0
vt -38.23062 4.440892E-16
vt -180.6845 3
vt -180.6845 0
vt -181.2926 0
vt -181.2926 3
vt -35.62616 -205.1141
vt -30.04116 -199.1707
vt -24.45616 -205.1141
vt -26.83061 -218.0434
vt -28.63062 -218.3434
vt -28.63062 -218.0434
vt -26.83061 -218.3434
vt 2.8 -218.0434
vt 0.8 -218.3434
vt 0.8 -218.0434
vt 2.8 -218.3434
vt -0.8 -218.0434
vt -2.8 -218.3434
vt -2.8 -218.0434
vt -0.8 -218.3434
vt 136.5596 3
vt 136.5596 0
vt 135.9515 0
vt 135.9515 3
vt -25.78062 0
vt -26.83061 0.8
vt -25.78062 3
vt -26.83061 2.8
vt -28.63062 2.8
vt -28.63062 0.8
vt -175.7764 0
vt -175.1682 3
vt -175.1682 0
vt -175.7764 3
vt 28.63062 -218.0434
vt 26.83061 -218.3434
vt 26.83061 -218.0434
vt 28.63062 -218.3434
vt 0 -216.8434
vt -3 -218.0434
vt -3 -216.8434
vt 0 -218.0434
vt -136.5596 0
vt -135.9515 3
vt -135.9515 0
vt -136.5596 3
vt 135.7111 3
vt 135.103 0
vt 135.103 3
vt 135.7111 0
vt 175.7764 3
vt 175.7764 0
vt 175.1682 0
vt 175.1682 3
vt 3 -216.8434
vt 3 -218.0434
vt -174.9278 0
vt -174.3197 3
vt -174.3197 0
vt -174.9278 3
vt 1.8 -207.9434
vt 4.440892E-16 -208.2434
vt 5.77316E-15 -207.9434
vt 1.8 -208.2434
vt -38.38062 -208.2434
vt -39.11061 -207.8134
vt -38.38062 -207.8134
vt -38.68062 -208.2434
vt -39.11061 -217.2734
vt -38.68062 -216.8434
vt -38.23062 -217.1434
vt -38.23062 -216.8434
vt -38.23062 -217.2734
vt -39.11061 -208.1834
vt -39.13062 -208.1834
vt -39.13062 -207.7934
vt -38.74062 -207.8134
vt -38.74062 -207.7934
vt -38.74062 -217.2734
vt -38.74062 -217.2934
vt -39.13062 -217.2934
vt -39.11061 -216.9034
vt -39.13062 -216.9034
vt 38.68062 0
vt 38.38062 4.440892E-16
vt 38.38062 1.8
vt 38.68062 3
vt -119.2932 3
vt -119.9013 0
vt -119.9013 3
vt -119.2932 0
vt 36.93016 2.1
vt 37.38062 1.8
vt 36.93016 0.6
vt 37.38062 1.554312E-15
vt 33.68062 5.77316E-15
vt 36.03016 0.6
vt 33.68062 2.1
vt 36.03016 2.1
vt 32.25562 2.8
vt 32.88062 2.1
vt 30.65562 2.8
vt 29.68061 3
vt 30.65562 0.8
vt 29.68061 0
vt 32.25562 0.8
vt 32.88062 5.77316E-15
vt -37.38062 -207.9434
vt -38.38062 -207.9434
vt -37.38062 -208.2434
vt -33.68062 -208.2434
vt -33.68062 -207.9434
vt -33.68062 -207.8134
vt -37.38062 -207.8134
vt -32.88062 -208.2434
vt -32.88062 -207.8134
vt -30.11062 -207.8134
vt -29.68061 -208.2434
vt -29.68061 -206.2434
vt -30.11062 -205.8134
vt -21.58061 -206.2434
vt -21.15062 -205.8134
vt -21.58061 -216.8434
vt -21.15062 -217.2734
vt -25.78062 -216.8434
vt -25.35061 -217.2734
vt -25.78062 -218.0434
vt -25.35061 -218.4734
vt -29.68061 -218.0434
vt -30.11062 -218.4734
vt -29.68061 -216.8434
vt -30.11062 -217.2734
vt -32.11061 -217.2734
vt -32.11061 -217.1434
vt -32.11061 -216.8434
vt -30.11062 -206.1834
vt -30.13062 -206.1834
vt -30.13062 -205.7934
vt -29.74061 -205.8134
vt -29.74061 -205.7934
vt -25.35061 -218.1034
vt -25.33061 -218.1034
vt -25.33061 -218.4934
vt -25.72062 -218.4734
vt -25.72062 -218.4934
vt 125.656 0
vt 126.2641 3
vt 126.2641 0
vt 125.656 3
vt -2.1 -208.2434
vt -2.1 -207.9434
vt -32.88062 -207.9434
vt 2.1 -207.9434
vt 2.1 -208.2434
vt -1.8 -208.2434
vt -1.8 -207.9434
vt -0.8 -207.9434
vt -2.8 -208.2434
vt -2.8 -207.9434
vt -0.8 -208.2434
vt -30.65562 -207.9434
vt -32.25562 -208.2434
vt -32.25562 -207.9434
vt -30.65562 -208.2434
vt 2.8 -207.9434
vt 0.8 -208.2434
vt 0.8 -207.9434
vt 2.8 -208.2434
vt 32.25562 -207.9434
vt 30.65562 -208.2434
vt 30.65562 -207.9434
vt 32.25562 -208.2434
vt -0.6 -207.9434
vt -0.6 -208.2434
vt -36.03016 -207.9434
vt -36.93016 -208.2434
vt -36.93016 -207.9434
vt -36.03016 -208.2434
vt 0.6 -208.2434
vt 0.6 -207.9434
vt 36.93016 -207.9434
vt 36.03016 -208.2434
vt 36.03016 -207.9434
vt 36.93016 -208.2434
vt 1.95 -214.0934
vt 1.95 -212.9934
vt 2.55 -212.9934
vt 2.55 -214.0934
vt 2.55 -214.8934
vt 1.95 -214.8934
vt 3 -208.2434
vt 2.55 -212.1934
vt 181.2926 3
vt 180.6845 0
vt 180.6845 3
vt 181.2926 0
vt 1.95 -211.0934
vt 2.55 -210.2934
vt 1.95 -210.2934
vt 119.2932 0
vt 119.9013 3
vt 119.9013 0
vt 119.2932 3
vt 1.95 -212.1934
vt 2.55 -211.0934
vt 38.98062 -214.8934
vt 38.68062 -214.0934
vt 38.98062 -214.0934
vt 38.68062 -214.8934
vt 38.98062 1.95
vt 38.68062 2.55
vt 38.98062 2.55
vt 38.68062 1.95
vt -38.98062 -214.0934
vt -38.68062 -214.8934
vt -38.98062 -214.8934
vt -38.68062 -214.0934
vt -38.98062 2.55
vt -38.68062 1.95
vt -38.98062 1.95
vt -38.68062 2.55
vt 38.98062 -211.0934
vt 38.68062 -210.2934
vt 38.98062 -210.2934
vt 38.68062 -211.0934
vt -38.98062 -210.2934
vt -38.68062 -211.0934
vt -38.98062 -211.0934
vt -38.68062 -210.2934
vt 38.98062 -212.9934
vt 38.68062 -212.1934
vt 38.98062 -212.1934
vt 38.68062 -212.9934
vt -38.98062 -212.1934
vt -38.68062 -212.9934
vt -38.98062 -212.9934
vt -38.68062 -212.1934
vt 34.48062 0
vt 34.78062 3
vt 34.78062 0
vt 34.48062 3
vt -129.0311 0
vt -128.8897 3
vt -128.8897 0
vt -129.0311 3
vt -32.23062 -212.8434
vt -32.13062 -211.9034
vt -32.13062 -212.8434
vt -32.23062 -212.0034
vt -34.48062 -211.9034
vt -34.48062 -212.0034
vt -32.13062 -213.7434
vt -32.23062 -214.5034
vt -32.23062 -213.7434
vt -32.13062 -214.6034
vt -34.48062 -214.5034
vt -34.48062 -214.6034
vt 34.48062 -214.6034
vt 32.23062 -214.5034
vt 34.48062 -214.5034
vt 32.13062 -214.6034
vt 32.23062 -212.0034
vt 32.13062 -211.9034
vt 34.48062 -212.0034
vt 34.48062 -211.9034
vt -5.77316E-15 -214.5034
vt -3 -214.6034
vt -3 -214.5034
vt -5.77316E-15 -214.6034
vt -3 -212.0034
vt -5.77316E-15 -211.9034
vt -5.77316E-15 -212.0034
vt -3 -211.9034
vt -25.83061 5.77316E-15
vt -28.58061 5.77316E-15
vt -28.58061 2.1
vt -25.83061 3
vt -29.48062 2.1
vt -30.03062 3
vt -30.03062 0
vt -29.48062 5.77316E-15
vt -5.77316E-15 -213.7434
vt -2.1 -213.8434
vt -2.1 -213.7434
vt -5.77316E-15 -213.8434
vt -28.58061 -213.7434
vt -25.83061 -213.8434
vt -28.58061 -213.8434
vt -25.83061 -213.7434
vt 3 -213.8434
vt 3 -213.7434
vt 25.83061 -213.7434
vt 29.73062 -213.8434
vt 25.83061 -213.8434
vt 30.03062 -213.7434
vt 29.73062 -216.8434
vt 30.03062 -216.8434
vt -39.41262 0
vt -39.0964 3
vt -39.0964 0
vt -39.41262 3
vt 29.73062 0
vt 29.48062 2.1
vt 29.73062 3
vt 29.48062 5.77316E-15
vt 28.58061 2.1
vt 25.83061 3
vt 25.83061 5.77316E-15
vt 28.58061 5.77316E-15
vt -29.48062 -213.8434
vt -30.03062 -213.7434
vt -29.48062 -213.7434
vt -29.73062 -213.8434
vt -30.03062 -216.8434
vt -29.73062 -216.8434
vt 2.1 -213.7434
vt 2.1 -213.8434
vt 24.13062 -210.4434
vt 21.58061 -210.4434
vt 21.58061 -210.3434
vt 24.13062 -210.3434
vt 24.23062 -210.3434
vt 24.13062 -212.6434
vt 24.23062 -212.6434
vt 25.53062 -210.4434
vt 24.23062 -210.4434
vt 25.53062 -210.3434
vt -5.77316E-15 -210.3434
vt -3 -210.4434
vt -3 -210.3434
vt -5.77316E-15 -210.4434
vt -24.13062 3
vt -21.58061 3
vt -21.58061 5.77316E-15
vt -24.13062 5.77316E-15
vt -24.23062 5.77316E-15
vt -24.23062 3
vt -24.38062 2.1
vt -24.38062 5.77316E-15
vt -25.28062 2.1
vt -25.53062 3
vt -25.53062 5.77316E-15
vt -25.28062 5.77316E-15
vt 3 -210.4434
vt 3 -210.3434
vt 24.13062 5.77316E-15
vt 21.58061 3
vt 24.13062 3
vt 21.58061 5.77316E-15
vt -24.13062 -210.3434
vt -21.58061 -210.4434
vt -24.13062 -210.4434
vt -21.58061 -210.3434
vt -24.23062 -211.4933
vt -24.13062 -211.4933
vt -24.23062 -210.3434
vt -24.23062 -210.4434
vt -24.38062 -210.3434
vt -24.38062 -210.4434
vt -25.53062 -210.4434
vt -25.28062 -210.3434
vt -25.28062 -210.4434
vt -25.53062 -210.3434
vt 2.1 -210.4434
vt 2.1 -210.3434
vt -2.1 -210.3434
vt -2.1 -210.4434
vt 25.53062 5.77316E-15
vt 25.28062 5.77316E-15
vt 25.28062 2.1
vt 25.53062 3
vt 24.38062 2.1
vt 24.23062 3
vt 24.23062 5.77316E-15
vt 24.38062 5.77316E-15
vt -125.656 3
vt -126.2641 0
vt -126.2641 3
vt -125.656 0
vt 124.2418 0
vt 124.2418 3
vt 124.8499 3
vt 124.8499 0
vt 0 -206.2434
vt 3 -206.2434
vt -5.77316E-15 -211.4933
vt -2.1 -211.4933
vt -2.1 -212.3933
vt -3 -212.6434
vt -5.77316E-15 -212.6434
vt -5.77316E-15 -212.3933
vt -24.23062 2.1
vt -24.13062 2.1
vt -24.13062 -212.3933
vt -24.23062 -212.3933
vt 24.13062 2.1
vt 24.23062 2.1
vt -24.23062 -212.6434
vt -24.13062 -212.6434
vt 2.1 -212.3933
vt 3 -212.6434
vt 2.1 -211.4933
vt -3 -213.7434
vt 39.41262 3
vt 39.0964 0
vt 39.0964 3
vt 39.41262 0
vt 30.03062 5.77316E-15
vt 30.03062 3
vt -124.2418 3
vt -124.2418 0
vt -124.8499 0
vt -124.8499 3
vt 28.78062 0.55
vt 28.78062 2.8
vt 26.58061 2.8
vt 26.58061 0.55
vt 160.4895 0
vt 161.0977 3
vt 161.0977 0
vt 160.4895 3
vt -0.55 -205.9434
vt -2.8 -206.2434
vt -2.8 -205.9434
vt -0.55 -206.2434
vt -26.58061 -205.9434
vt -28.78062 -206.2434
vt -28.78062 -205.9434
vt -26.58061 -206.2434
vt 2.8 -205.9434
vt 0.55 -206.2434
vt 0.55 -205.9434
vt 2.8 -206.2434
vt 28.78062 -205.9434
vt 26.58061 -206.2434
vt 26.58061 -205.9434
vt 28.78062 -206.2434
vt 34.48062 -208.8634
vt 34.48062 -208.2434
vt 34.78062 -208.2434
vt 34.78062 -208.8634
vt 34.48062 -209.3634
vt 34.78062 -209.3634
vt 34.48062 -209.8634
vt 34.78062 -209.8634
vt 34.48062 -210.3634
vt 34.78062 -210.3634
vt 34.48062 -210.8634
vt 34.78062 -210.8634
vt 34.48062 -216.8434
vt 34.78062 -216.8434
vt 0 -210.8634
vt -2.1 -215.6432
vt -3 -210.8634
vt -5.77316E-15 -215.6432
vt -2.1 -216.5432
vt -5.77316E-15 -216.5432
vt -34.78062 5.77316E-15
vt -34.48062 3
vt -34.48062 5.77316E-15
vt -34.78062 3
vt 3 -210.8634
vt 2.1 -215.6432
vt 2.1 -216.5432
vt -34.78062 -208.8634
vt -34.78062 -208.2434
vt -34.48062 -208.2434
vt -34.48062 -208.8634
vt -34.48062 -209.3634
vt -34.78062 -209.3634
vt -34.48062 -209.8634
vt -34.78062 -209.8634
vt -34.48062 -210.3634
vt -34.78062 -210.3634
vt -34.48062 -210.8634
vt -34.78062 -210.8634
vt -34.78062 -215.6432
vt -34.48062 -215.6432
vt -3 -210.8934
vt -3 -206.2434
vt -5.77316E-15 -210.8934
vt 25.83061 -206.2434
vt 25.53062 -210.8934
vt 25.53062 -206.2434
vt 25.83061 -210.8934
vt -25.53062 -206.2434
vt -25.83061 -210.8934
vt -25.83061 -206.2434
vt -25.53062 -210.8934
vt 3 -210.8934
vt 138.682 3
vt 138.0739 0
vt 138.0739 3
vt 138.682 0
vt -135.7111 0
vt -135.103 3
vt -135.103 0
vt -135.7111 3
vt -130.021 3
vt -130.021 0
vt -130.1624 0
vt -130.1624 3
vt 27.93061 0
vt 27.93061 3
vt 91.23427 0
vt 91.55049 3
vt 91.55049 0
vt 91.23427 3
vt -28.03062 3
vt -28.03062 0
vt -5.77316E-15 -212.3434
vt -2.1 -212.3434
vt -2.1 -213.2434
vt -5.77316E-15 -213.2434
vt -28.03062 2.1
vt -27.93061 5.77316E-15
vt -27.93061 2.1
vt -28.03062 -212.3434
vt -27.93061 -213.2434
vt -28.03062 -213.2434
vt -27.93061 -212.3434
vt 28.03062 5.77316E-15
vt 27.93061 2.1
vt 28.03062 2.1
vt -27.93061 -212.0034
vt -28.03062 -211.9034
vt -25.83061 -212.0034
vt -25.53062 -211.9034
vt -25.83061 -216.8434
vt -25.53062 -216.8434
vt 130.021 3
vt 130.1624 0
vt 130.021 0
vt 130.1624 3
vt 3 -212.0034
vt 2.1 -212.3434
vt 2.1 -213.2434
vt 28.03062 -211.9034
vt 28.03062 -213.7434
vt 27.93061 -213.7434
vt 27.93061 -212.0034
vt 25.53062 -211.9034
vt 25.83061 -212.0034
vt 25.53062 -216.8434
vt 25.83061 -216.8434
vt 28.03062 3
vt -28.03062 -213.7434
vt -27.93061 -213.7434
vt -34.78062 2.1
vt -34.48062 2.1
vt -34.48062 -216.5432
vt -34.78062 -216.5432
vt 34.48062 2.1
vt 34.78062 2.1
vt -34.78062 -216.8434
vt -34.48062 -216.8434
vt 35.23062 2.55
vt 38.23062 3
vt 38.23062 2.55
vt 35.23062 3
vt -35.23062 -216.8434
vt -38.23062 -217.0484
vt -35.23062 -217.0484
vt 2.55 -217.0934
vt 3 -217.0484
vt 3 -217.0934
vt 2.55 -217.0484
vt 0 -217.1434
vt 2.55 -217.1434
vt 2.55 -216.8434
vt -2.55 -217.0484
vt -3 -217.0934
vt -3 -217.0484
vt -2.55 -217.0934
vt -2.55 -216.8434
vt -2.55 -217.1434
vt -35.23062 -217.0934
vt -38.23062 -217.0934
vt -35.23062 -217.1434
vt -35.23062 3
vt -38.23062 3
vt 174.3197 0
vt 174.9278 3
vt 174.9278 0
vt 174.3197 3
vt -33.01062 -217.2734
vt -35.23062 -217.2734
vt -33.01062 -217.1434
vt -33.01062 -216.8434
vt 2.1 -216.8434
vt 2.1 -217.1434
vt -2.1 -217.1434
vt -2.1 -216.8434
vt -31.48562 -217.1434
vt -30.96062 -216.8434
vt -30.96062 -217.1434
vt -31.48562 -216.8434
vt -2.8 -217.1434
vt -0.8 -216.8434
vt -0.8 -217.1434
vt -2.8 -216.8434
vt 30.96062 -217.1434
vt 31.48562 -216.8434
vt 31.48562 -217.1434
vt 30.96062 -216.8434
vt 0.8 -217.1434
vt 2.8 -216.8434
vt 2.8 -217.1434
vt 0.8 -216.8434
vt -34.16062 -217.1434
vt -33.63562 -216.8434
vt -33.63562 -217.1434
vt -34.16062 -216.8434
vt 33.63562 -217.1434
vt 34.16062 -216.8434
vt 34.16062 -217.1434
vt 33.63562 -216.8434
vt -36.83062 -209.8934
vt -34.78062 -210.0134
vt -36.83062 -210.0134
vt -34.78062 -209.8934
vt 34.78062 -209.8934
vt 38.68062 -210.0134
vt 34.78062 -210.0134
vt 38.68062 -209.8934
vt -3 -210.0134
vt -5.77316E-15 -209.8934
vt -5.77316E-15 -210.0134
vt -3 -209.8934
vt -37.73062 -210.0134
vt -38.68062 -209.8934
vt -37.73062 -209.8934
vt -38.68062 -210.0134
vt -91.23427 3
vt -91.55049 0
vt -91.55049 3
vt -91.23427 0
vt 3 -211.9034
vt 21.58061 1.05
vt 21.28062 2.55
vt 21.58061 2.55
vt 21.28062 1.05
vt -21.58061 -211.6434
vt -21.28062 -212.5434
vt -21.58061 -212.5434
vt -21.28062 -211.6434
vt 21.58061 -212.5434
vt 21.28062 -211.6434
vt 21.58061 -211.6434
vt 21.28062 -212.5434
vt -160.4895 3
vt -160.4895 0
vt -161.0977 0
vt -161.0977 3
vt -0.8 -207.3934
vt -2.8 -207.3934
vt -0.8 -213.8934
vt -2.8 -209.1934
vt -138.682 0
vt -138.0739 3
vt -138.0739 0
vt -138.682 3
vt -0.8 -215.6934
vt -2.8 -215.6934
vt -0.8 -209.1934
vt -1.05 -212.5434
vt -2.8 -213.8934
vt -1.05 -211.6434
vt -2.55 -212.5434
vt -2.55 -211.6434
vt -21.58061 2.8
vt -21.28062 0.8
vt -21.58061 0.8
vt -21.28062 2.8
vt -21.58061 -207.3934
vt -21.28062 -209.1934
vt -21.58061 -209.1934
vt -21.28062 -207.3934
vt 21.58061 0.8
vt 21.28062 2.8
vt 21.58061 2.8
vt 21.28062 0.8
vt 21.58061 -209.1934
vt 21.28062 -207.3934
vt 21.58061 -207.3934
vt 21.28062 -209.1934
vt -21.58061 -213.8934
vt -21.28062 -215.6934
vt -21.58061 -215.6934
vt -21.28062 -213.8934
vt 21.58061 -215.6934
vt 21.28062 -213.8934
vt 21.58061 -213.8934
vt 21.28062 -215.6934
vt -21.58061 2.55
vt -21.28062 1.05
vt -21.58061 1.05
vt -21.28062 2.55
vt 3 -212.2834
vt 5.77316E-15 -212.2834
vt -3 -212.2834
vt -30.07061 -211.9034
vt -29.69062 -212.2834
vt -30.07061 -212.2834
vt -29.69062 -211.9034
vt 30.07061 5.77316E-15
vt 29.69062 3
vt 30.07061 3
vt 29.69062 5.77316E-15
vt 30.07061 -212.2834
vt 29.69062 -211.9034
vt 30.07061 -211.9034
vt 29.69062 -212.2834
vt -30.07061 3
vt -29.69062 5.77316E-15
vt -30.07061 5.77316E-15
vt -29.69062 3
vt -2.1 -212.7434
vt -2.1 -212.6434
vt -5.77316E-15 -212.7434
vt -24.38062 -212.6434
vt -21.58061 -212.7434
vt -24.38062 -212.7434
vt -21.58061 -212.6434
vt 3 -212.7434
vt 21.58061 -212.6434
vt 25.53062 -212.7434
vt 21.58061 -212.7434
vt 25.53062 -212.6434
vt -3 -212.7434
vt -25.28062 -212.7434
vt -25.53062 -212.6434
vt -25.28062 -212.6434
vt -25.53062 -212.7434
vt 2.1 -212.6434
vt 2.1 -212.7434
vt -29.99616 -201.4557
vt -40.01616 -195.4644
vt -35.62616 -195.4644
vt -34.38616 -201.4557
vt -36.57348 -206.9134
vt -30.58216 -212.5434
vt -36.57348 -218.1734
vt -40.01616 -203.9866
vt -34.38616 -197.9953
vt -30.08616 -197.9953
vt -40.01604 -203.9906
vt -30.08597 -197.9994
vt -30.04097 -198.0473
vt -35.62604 -203.9906
vt -26.50479 -212.5884
vt -32.44822 -219.3734
vt -32.44822 -218.1734
vt -26.50479 -213.7884
vt -24.45616 -203.9866
vt -29.99616 -197.9953
vt -20.25616 -203.9866
vt -26.88616 -196.9311
vt -20.06397 -218.1734
vt -27.11947 -211.5434
vt -20.06397 -204.9134
vt -28.99616 -196.9311
vt -20.25616 -193.585
vt -26.88616 -200.6405
vt -28.99616 -200.6405
vt -26.45691 -212.5434
vt -28.83535 -208.3084
vt -25.39273 -211.5434
vt -28.99616 -200.6405
vt -32.23116 -197.1979
vt -32.44823 -206.9134
vt -28.83616 -193.5851
vt -32.44822 -203.5534
vt -31.73942 -208.3084
vt -28.12654 -203.5534
vt -28.12654 -204.9134
vt -28.83616 -192.307
vt -32.23116 -195.9199
vt -35.62616 -192.307
vt -31.73942 -206.9484
vt -28.83534 -206.9484
vt -24.01068 -219.3734
vt -29.95411 -212.5884
vt -24.01068 -218.1734
vt -29.95411 -213.7884
vt 21.13062 -217.2934
vt 21.13062 -216.9034
vt 21.15062 -216.9034
vt 21.15062 -217.2734
vt 21.52062 -217.2934
vt 21.52062 -217.2734
vt 21.58061 -216.8434
vt 25.35061 -217.2734
vt 25.78062 -216.8434
vt 21.58061 -206.2434
vt 25.35061 -218.4734
vt 21.15062 -205.8134
vt 25.78062 -218.0434
vt 29.68061 -206.2434
vt 30.11062 -218.4734
vt 29.68061 -218.0434
vt 30.11062 -205.8134
vt 29.68061 -208.2434
vt 30.11062 -207.8134
vt 38.68062 -208.2434
vt 39.11061 -207.8134
vt 38.68062 -216.8434
vt 30.11062 -217.2734
vt 29.68061 -216.8434
vt 38.23062 -217.0484
vt 35.23062 -217.0484
vt 35.23062 -217.0934
vt 38.23062 -217.0934
vt 39.11061 -217.2734
vt 29.74061 -205.8134
vt 29.74061 -205.7934
vt 30.13062 -205.7934
vt 30.11062 -206.1834
vt 30.13062 -206.1834
vt 38.74062 -207.8134
vt 38.74062 -207.7934
vt 39.13062 -207.7934
vt 39.11061 -208.1834
vt 39.13062 -208.1834
vt 39.11061 -216.9034
vt 39.13062 -216.9034
vt 39.13062 -217.2934
vt 38.74062 -217.2734
vt 38.74062 -217.2934
vt -138.6315 3
vt -138.6598 0
vt -138.6598 3
vt -138.6315 0
vt -3 -217.2734
vt -4.440892E-15 -216.9034
vt 0 -217.2734
vt -3 -216.9034
vt -21.15062 3
vt -21.13062 4.440892E-15
vt -21.15062 4.440892E-15
vt -21.13062 3
vt -21.15062 -216.9034
vt -21.13062 -216.9034
vt -21.13062 -217.2934
vt -21.52062 -217.2734
vt -21.52062 -217.2934
vt -21.52062 4.440892E-15
vt -21.52062 3
vt 138.6598 3
vt 138.6315 0
vt 138.6315 3
vt 138.6598 0
vt -3 -217.2934
vt -4.440892E-15 -217.2934
vt 3 -124.2566
vt 0 -124.2283
vt 3 -124.2283
vt 0 -124.2566
vt 3 -205.8134
vt 4.440892E-15 -206.1834
vt 0 -205.8134
vt 3 -206.1834
vt 30.11062 3
vt 30.13062 4.440892E-15
vt 30.11062 4.440892E-15
vt 30.13062 3
vt -3 -124.2283
vt -3 -124.2566
vt 29.74061 3
vt 29.74061 4.440892E-15
vt 3 -205.7934
vt 4.440892E-15 -205.7934
vt 30.11062 -218.1034
vt 30.13062 -218.1034
vt 30.13062 -218.4934
vt 29.74061 -218.4734
vt 29.74061 -218.4934
vt 3 -175.8165
vt 0 -175.8165
vt 0 -175.7882
vt 3 -175.7882
vt 0 -218.4734
vt 3 -218.1034
vt 3 -218.4734
vt 4.440892E-15 -218.1034
vt -30.13062 3
vt -30.11062 4.440892E-15
vt -30.13062 4.440892E-15
vt -30.11062 3
vt -30.13062 -218.4934
vt -30.13062 -218.1034
vt -30.11062 -218.1034
vt -29.74061 -218.4934
vt -29.74061 -218.4734
vt -3 -175.7882
vt -3 -175.8165
vt -29.74061 4.440892E-15
vt -29.74061 3
vt 4.440892E-15 -218.4934
vt 3 -218.4934
vt -25.35061 0
vt -25.72062 4.440892E-15
vt -25.72062 3
vt -25.35061 3
vt 3 -136.6032
vt 0 -136.5749
vt 3 -136.5749
vt 0 -136.6032
vt 25.72062 -218.4734
vt 25.72062 -218.4934
vt 25.33061 -218.4934
vt 25.35061 -218.1034
vt 25.33061 -218.1034
vt -3 -218.4934
vt -3 -218.4734
vt -3 -136.5749
vt -3 -136.6032
vt -3 -218.1034
vt -25.33061 4.440892E-15
vt -25.33061 3
vt 21.13062 -205.7934
vt 21.52062 -205.7934
vt 21.52062 -205.8134
vt 21.13062 -206.1834
vt 21.15062 -206.1834
vt 3 -160.5003
vt 0 -160.472
vt 3 -160.472
vt 0 -160.5003
vt 21.15062 3
vt 21.52062 4.440892E-15
vt 21.15062 0
vt 21.52062 3
vt -3 -205.8134
vt -3 -205.7934
vt -21.52062 -205.8134
vt -21.52062 -205.7934
vt -21.13062 -205.7934
vt -21.15062 -206.1834
vt -21.13062 -206.1834
vt -3 -206.1834
vt -3 -160.472
vt -3 -160.5003
vt 21.13062 3
vt 21.13062 4.440892E-15
vt 181.2831 3
vt 181.2831 0
vt 181.2549 0
vt 181.2549 3
vt 3 -216.9034
vt 3 -217.2734
vt -39.13062 3
vt -39.11061 4.440892E-15
vt -39.13062 4.440892E-15
vt -39.11061 3
vt -181.2549 3
vt -181.2831 0
vt -181.2831 3
vt -181.2549 0
vt -38.74062 4.440892E-15
vt -38.74062 3
vt 3 -217.2934
vt -3 -119.2793
vt 0 -119.2793
vt 0 -119.3075
vt -3 -119.3075
vt 39.11061 0
vt 38.74062 3
vt 39.11061 3
vt 38.74062 4.440892E-15
vt 4.440892E-15 -207.8134
vt 3 -207.7934
vt 3 -207.8134
vt 4.440892E-15 -207.7934
vt 3 -119.3075
vt 3 -119.2793
vt 4.440892E-15 -208.1834
vt 3 -208.1834
vt 39.13062 4.440892E-15
vt 39.13062 3
vt -34.48062 -208.9134
vt -34.46062 -209.4434
vt -34.48062 -209.4434
vt -33.90562 -209.4434
vt -33.88562 -209.4434
vt -33.88562 -208.9134
vt -34.47962 -208.9134
vt -33.88562 -208.8934
vt -34.47962 -208.8934
vt -34.46062 -209.4234
vt -34.46062 -208.9134
vt -33.90562 -209.4234
vt -33.90562 -208.9134
vt -34.48062 -209.5134
vt -34.46062 -210.4034
vt -34.48062 -210.4034
vt -33.90562 -210.4034
vt -33.88562 -210.4034
vt -33.88562 -209.5134
vt -34.47962 -209.5134
vt -33.88562 -209.4934
vt -34.47962 -209.4934
vt -34.41062 -211.3034
vt -33.88562 -210.4234
vt -33.88562 -211.2834
vt -33.88562 -211.3034
vt -34.41062 -210.4034
vt -34.41062 -211.3024
vt -34.43062 -210.4034
vt -34.43062 -211.3024
vt -34.46062 -210.3834
vt -34.46062 -209.5134
vt -33.90562 -210.3834
vt -33.90562 -209.5134
vt -33.90562 -210.4234
vt -34.41062 -210.4234
vt -33.90562 -211.2834
vt -34.41062 -211.2834
vt -34.48062 1.016
vt -34.47562 1.15
vt -34.47562 1.016
vt -34.48062 1.15
vt -34.48062 -212.6228
vt -34.47562 -212.4568
vt -34.47562 -212.6228
vt -34.48062 -212.4568
vt 34.48062 1.15
vt 34.47562 1.016
vt 34.47562 1.15
vt 34.48062 1.016
vt -34.48062 -212.4168
vt -34.47562 -212.4168
vt -34.48062 -212.6628
vt -34.47562 -212.6628
vt -34.47562 1.18
vt -34.48062 1.18
vt 34.48062 -212.4168
vt 34.47562 -212.6628
vt 34.47562 -212.4168
vt 34.48062 -212.6628
vt 34.48062 1.18
vt 34.47562 1.18
vt -34.47562 1.046
vt -34.48062 1.046
vt 34.48062 -212.4568
vt 34.47562 -212.6228
vt 34.47562 -212.4568
vt 34.48062 -212.6228
vt 34.48062 1.046
vt 34.47562 1.046
vt -1.016 -212.4568
vt -1.046 -212.6228
vt -1.046 -212.4568
vt -1.016 -212.6228
vt -1.016 -212.4168
vt -1.15 -212.4568
vt -1.18 -212.4168
vt -1.15 -212.6228
vt -1.016 -212.6628
vt -1.18 -212.6628
vt 1.016 -212.4568
vt 1.046 -212.4568
vt 1.046 -212.6228
vt 1.016 -212.6228
vt 1.016 -212.6628
vt 1.15 -212.6228
vt 1.18 -212.6628
vt 1.15 -212.4568
vt 1.016 -212.4168
vt 1.18 -212.4168
vt -34.48062 -212.6208
vt -34.47562 -212.5228
vt -34.47562 -212.6208
vt -34.48062 -212.5228
vt -34.48062 1.048
vt -34.47562 1.148
vt -34.47562 1.048
vt -34.48062 1.148
vt 34.48062 -212.5228
vt 34.47562 -212.6208
vt 34.47562 -212.5228
vt 34.48062 -212.6208
vt 34.48062 1.148
vt 34.47562 1.048
vt 34.47562 1.148
vt 34.48062 1.048
vt -1.048 -212.6208
vt -1.148 -212.5228
vt -1.048 -212.5228
vt -1.148 -212.6208
vt 1.048 -212.6208
vt 1.148 -212.5228
vt 1.148 -212.6208
vt 1.048 -212.5228
vt -34.48062 -212.5208
vt -34.47562 -212.4588
vt -34.47562 -212.5208
vt -34.48062 -212.4588
vt 34.48062 -212.4588
vt 34.47562 -212.5208
vt 34.47562 -212.4588
vt 34.48062 -212.5208
vt -1.148 -212.5208
vt -1.048 -212.4588
vt -1.048 -212.5208
vt -1.148 -212.4588
vt 1.148 -212.5208
vt 1.048 -212.4588
vt 1.148 -212.4588
vt 1.048 -212.5208
vt -0.81 -211.3034
vt -0.83 -211.3034
vt -0.83 -211.2834
vt -0.81 -211.2834
vt -0.09 -211.3034
vt -0.09 -211.2834
vt -0.07 -211.3034
vt -0.07 -211.2834
vt -34.41062 0.83
vt -34.41062 0.81
vt -34.41062 0.09
vt -34.41062 0.07
vt 34.41062 0.07
vt 34.43062 0.8289999
vt 34.43062 0.07
vt 34.41062 0.8289999
vt 1.016 -210.4434
vt 1.15 -210.4484
vt 1.016 -210.4484
vt 1.15 -210.4434
vt -23.79018 -210.4434
vt -23.62418 -210.4484
vt -23.79018 -210.4484
vt -23.62418 -210.4434
vt -1.15 -210.4434
vt -1.016 -210.4484
vt -1.15 -210.4484
vt -1.016 -210.4434
vt -23.58418 -210.4434
vt -23.58418 -210.4484
vt -23.83018 -210.4434
vt -23.83018 -210.4484
vt 1.18 -210.4484
vt 1.18 -210.4434
vt 23.58418 -210.4434
vt 23.83018 -210.4484
vt 23.58418 -210.4484
vt 23.83018 -210.4434
vt -1.18 -210.4434
vt -1.18 -210.4484
vt 1.046 -210.4484
vt 1.046 -210.4434
vt 23.62418 -210.4434
vt 23.79018 -210.4484
vt 23.62418 -210.4484
vt 23.79018 -210.4434
vt -1.046 -210.4434
vt -1.046 -210.4484
vt -23.62418 1.016
vt -23.79018 1.046
vt -23.62418 1.046
vt -23.79018 1.016
vt -23.58418 1.016
vt -23.62418 1.15
vt -23.58418 1.18
vt -23.79018 1.15
vt -23.83018 1.016
vt -23.83018 1.18
vt 23.62418 1.016
vt 23.62418 1.046
vt 23.79018 1.046
vt 23.79018 1.016
vt 23.83018 1.016
vt 23.79018 1.15
vt 23.83018 1.18
vt 23.62418 1.15
vt 23.58418 1.016
vt 23.58418 1.18
vt -23.78818 -210.4434
vt -23.69018 -210.4484
vt -23.78818 -210.4484
vt -23.69018 -210.4434
vt 1.048 -210.4434
vt 1.148 -210.4484
vt 1.048 -210.4484
vt 1.148 -210.4434
vt 23.69018 -210.4434
vt 23.78818 -210.4484
vt 23.69018 -210.4484
vt 23.78818 -210.4434
vt -1.148 -210.4434
vt -1.048 -210.4484
vt -1.148 -210.4484
vt -1.048 -210.4434
vt -23.78818 1.048
vt -23.69018 1.148
vt -23.69018 1.048
vt -23.78818 1.148
vt 23.78818 1.048
vt 23.69018 1.148
vt 23.78818 1.148
vt 23.69018 1.048
vt -23.68818 -210.4434
vt -23.62618 -210.4484
vt -23.68818 -210.4484
vt -23.62618 -210.4434
vt 23.62618 -210.4434
vt 23.68818 -210.4484
vt 23.62618 -210.4484
vt 23.68818 -210.4434
vt -23.68818 1.148
vt -23.62618 1.048
vt -23.68818 1.048
vt -23.62618 1.148
vt 23.68818 1.148
vt 23.62618 1.048
vt 23.62618 1.148
vt 23.68818 1.048
vt 33.88062 0.81
vt 33.88062 0.83
vt 33.90062 0.83
vt 33.90062 0.81
vt -34.48062 -208.3134
vt -34.46062 -208.8434
vt -34.48062 -208.8434
vt -33.90062 -208.8434
vt -33.88062 -208.8434
vt -33.88062 -208.3134
vt -34.47962 -208.3134
vt -33.88062 -208.2934
vt -34.47962 -208.2934
vt -34.46062 -208.8234
vt -34.46062 -208.3134
vt -33.90062 -208.8234
vt -33.90062 -208.3134
vt -34.47962 0.07
vt -33.88062 0.8289999
vt -33.88062 0.07
vt -34.47962 0.8289999
vt 34.46062 0.81
vt 34.46062 0.83
vt 34.48062 0.83
vt 34.48062 0.81
vt 34.46062 0.07
vt 34.46062 0.09
vt 34.48062 0.09
vt 34.48062 0.07
vt -0.81 -211.9034
vt -0.83 -211.9034
vt -0.83 -211.3734
vt -0.81 -211.3734
vt -0.09 -211.9034
vt -0.09 -211.3734
vt -0.07 -211.9034
vt -0.07 -211.3734
vt -34.48062 -211.3734
vt -34.46062 -211.9034
vt -33.90562 -211.9034
vt -33.88562 -211.9034
vt -33.88562 -211.3734
vt -34.47962 -211.3734
vt -33.88562 -211.3534
vt -34.47962 -211.3534
vt -34.46062 -211.8834
vt -34.46062 -211.3734
vt -33.90562 -211.8834
vt -33.90562 -211.3734
vt 34.46062 -211.3734
vt 34.48062 -211.3734
vt 34.46062 -211.8834
vt -0.8289999 -211.3534
vt -0.07 -211.3534
vt -0.8289999 -211.3734
vt -34.48062 0.07
vt -33.90562 0.07
vt -33.88562 0.07
vt -34.46062 0.07
vt -34.46062 0.09
vt -34.48062 0.09
vt -33.88562 0.09
vt -33.90562 0.09
vt -34.46062 0.81
vt -34.48062 0.81
vt -33.90562 0.81
vt -33.88562 0.81
vt -34.48062 0.83
vt -33.88562 0.83
vt -33.90562 0.83
vt -34.46062 0.83
vt -33.90062 0.07
vt -33.88062 0.09
vt -33.90062 0.09
vt -33.88062 0.81
vt -33.90062 0.81
vt -33.88062 0.83
vt -33.90062 0.83

vn 0 0 0
vn 0 1 0
vn 0.7071162 0.7070974 0
vn 0 0.3420206 -0.9396924
vn 0 0 -1
vn -1 0 0
vn 1 0 0
vn -0.7071115 0.7071021 0
vn 0 0 1
vn 0.7071115 -0.7071021 0
vn -0.7071115 -0.7071021 0
vn 0 -1 0
vn 0.1601691 -0.9870896 0
vn 0.3162024 -0.9486918 0
vn 0.07982225 -0.9968091 0
vn -0.3162024 0.9486918 0
vn -0.3162477 -0.9486767 0
vn 0.3162477 0.9486767 0
vn -2.551708E-08 -0.3420207 -0.9396924
vn -0.1762418 -0.1762421 -0.9684408
vn -0.1204402 -2.938516E-07 -0.9927205
vn -0.1170969 0.2341724 -0.9651174
vn -1.758519E-05 0.3419925 -0.9397027
vn -0.1762503 0.176227 -0.968442
vn -0.3420204 -1.867006E-07 -0.9396926
vn -0.08744452 0.2623333 -0.9610072
vn 0.1762418 0.1762417 -0.9684409
vn 0.09024841 0.09024813 -0.9918218
vn 0.1170912 -0.2341826 -0.9651156
vn -0.09024824 -0.09024864 -0.9918218
vn 0.1762418 -0.1762424 -0.9684407
vn -1.784099E-07 -0.1204406 -0.9927205
vn 0.3420202 0 -0.9396926

usemtl Краска-01
f 3/1/1 2/1/1 1/1/1
f 6/2/1 5/2/1 4/2/1
f 9/3/1 8/3/1 7/3/1
f 15/9/2 17/11/2 19/13/2
f 22/16/2 20/14/2 21/15/2
f 22/16/2 21/15/2 23/17/2
f 33/29/4 32/28/4 31/27/4
f 29/90/5 61/94/5 60/92/5
f 72/108/12 85/124/12 84/123/12
f 21/156/5 102/155/5 23/152/5
f 129/211/6 131/218/6 27/60/6
f 150/261/12 149/260/12 148/259/12
f 149/260/12 151/262/2 148/259/12
f 154/265/10 153/264/10 152/263/10
f 153/264/10 155/266/10 152/263/10
f 188/324/12 184/325/15 180/327/12
f 184/325/15 183/328/12 180/327/12
f 284/522/10 283/521/10 282/520/10
f 285/523/10 284/522/10 282/520/10
f 283/554/8 284/553/8 282/552/8
f 284/553/8 285/555/8 282/552/8
f 150/479/2 148/481/2 149/482/2
f 148/481/12 151/480/2 149/482/12
f 312/590/6 308/588/6 60/589/6
f 314/595/7 315/597/7 9/589/7
f 317/609/5 10/610/5 7/582/5
f 348/676/7 350/678/7 97/405/7
f 351/679/7 280/62/7 353/685/7
f 387/391/12 384/392/12 380/393/12
f 384/392/12 383/368/12 380/393/12
f 392/764/22 391/763/21 389/762/20
f 393/767/23 391/766/21 392/765/22
f 388/777/26 393/767/4 396/776/4
f 399/782/29 398/781/28 397/780/27
f 400/783/30 388/777/26 398/779/28
f 400/786/30 398/785/28 399/784/29
f 403/800/20 405/799/32 404/798/31
f 24/830/9 307/831/9 26/828/9
f 309/832/9 307/831/9 24/830/9
f 313/833/9 55/829/9 311/834/9
f 311/834/9 55/829/9 30/835/9
f 458/1004/5 457/1003/5 456/1002/5
f 457/1003/5 459/1005/5 456/1002/5
f 475/1017/5 474/1016/5 473/1015/5
f 474/1016/5 476/1018/5 473/1015/5
f 543/1140/2 546/1140/2 542/1140/2
f 546/1140/2 547/1140/2 542/1140/2
f 549/1141/2 548/1141/2 541/1141/2
f 548/1141/2 544/1141/2 541/1141/2
f 500/1142/2 498/1142/2 503/1142/2
f 504/1142/2 500/1142/2 503/1142/2
f 486/1143/2 550/1143/2 482/1143/2
f 550/1143/2 545/1143/2 482/1143/2
f 595/1246/5 594/1245/5 593/1244/5
f 594/1245/5 596/1247/5 593/1244/5
f 615/271/2 612/1278/5 621/1277/2
f 619/271/5 616/1278/5 623/1277/5
f 616/1278/5 624/1279/5 623/1277/5
f 626/1297/2 640/1296/2 623/1295/2
f 640/1296/2 641/1298/2 623/1295/2
f 635/1302/2 634/1301/2 622/1300/2
f 631/1299/2 635/1302/2 622/1300/2
f 643/1306/2 642/1305/2 621/1304/2
f 642/1305/2 636/1303/2 621/1304/2
f 645/1309/2 644/1308/2 620/1307/2
f 646/1310/2 645/1309/2 620/1307/2
f 598/1259/2 647/1311/2 593/1295/2
f 647/1311/2 648/1298/2 593/1295/2
f 609/1313/2 608/1312/2 603/1300/2
f 604/1299/2 609/1313/2 603/1300/2
f 649/1314/2 651/1315/2 652/1304/2
f 651/1315/2 650/1303/2 652/1304/2
f 654/1317/2 653/1316/2 655/1307/2
f 656/1310/2 654/1317/2 655/1307/2
f 478/1297/2 657/1296/2 473/1295/2
f 657/1296/2 658/1298/2 473/1295/2
f 497/1302/2 496/1301/2 491/1300/2
f 492/1299/2 497/1302/2 491/1300/2
f 661/1306/2 660/1305/2 659/1304/2
f 660/1305/2 662/1303/2 659/1304/2
f 665/1309/2 664/1308/2 663/1307/2
f 666/1310/2 665/1309/2 663/1307/2
f 461/1297/2 667/1296/2 456/1295/2
f 667/1296/2 668/1298/2 456/1295/2
f 472/1302/2 471/1301/2 466/1300/2
f 467/1299/2 472/1302/2 466/1300/2
f 671/1306/2 670/1305/2 669/1304/2
f 670/1305/2 672/1303/2 669/1304/2
f 674/1309/2 673/1308/2 675/1307/2
f 676/1310/2 674/1309/2 675/1307/2
f 13/7/2 7/3/2 10/4/2
f 10/4/2 11/5/2 13/7/2
f 14/8/2 11/5/2 10/4/2
f 10/4/2 12/6/2 14/8/2
f 17/11/2 15/9/2 7/3/2
f 7/3/2 13/7/2 17/11/2
f 18/12/2 14/8/2 12/6/2
f 12/6/2 16/10/2 18/12/2
f 20/14/2 18/12/2 16/10/2
f 16/10/2 21/15/2 20/14/2
f 25/19/2 22/16/2 23/17/2
f 23/17/2 24/18/2 25/19/2
f 18/12/2 25/19/2 24/18/2
f 24/18/2 26/20/2 18/12/2
f 17/11/2 18/12/2 26/20/2
f 26/20/2 19/13/2 17/11/2
f 19/13/2 26/20/2 27/21/2
f 27/21/2 28/22/2 19/13/2
f 29/25/3 27/24/3 26/23/3
f 26/23/3 30/26/3 29/25/3
f 34/30/5 36/32/5 35/31/5
f 35/31/5 37/33/5 34/30/5
f 36/34/6 39/36/6 38/35/6
f 38/35/6 35/37/6 36/34/6
f 40/38/7 34/40/7 37/39/7
f 37/39/7 41/41/7 40/38/7
f 44/44/8 43/43/8 42/42/8
f 42/42/8 45/45/8 44/44/8
f 34/49/2 40/47/2 44/46/2
f 44/46/2 45/48/2 34/49/2
f 39/51/2 46/17/2 44/46/2
f 44/46/2 40/47/2 39/51/2
f 36/50/2 34/49/2 45/48/2
f 45/48/2 47/18/2 36/50/2
f 39/51/2 36/50/2 47/18/2
f 47/18/2 46/17/2 39/51/2
f 48/52/3 46/54/3 47/53/3
f 47/53/3 49/55/3 48/52/3
f 39/56/9 40/58/9 41/57/9
f 41/57/9 38/59/9 39/56/9
f 50/60/7 51/62/7 45/61/7
f 45/61/7 44/63/7 50/60/7
f 43/64/10 44/66/10 45/65/10
f 45/65/10 42/67/10 43/64/10
f 52/68/2 51/70/2 50/69/2
f 50/69/2 53/71/2 52/68/2
f 46/74/11 48/73/11 49/72/11
f 49/72/11 47/75/11 46/74/11
f 46/63/6 47/77/6 24/76/6
f 24/76/6 23/60/6 46/63/6
f 54/78/2 23/80/2 24/79/2
f 24/79/2 55/81/2 54/78/2
f 56/82/6 3/84/6 1/83/6
f 1/83/6 57/85/6 56/82/6
f 1/86/5 2/88/5 58/87/5
f 58/87/5 59/89/5 1/86/5
f 59/89/5 58/87/5 29/90/5
f 29/90/5 27/91/5 59/89/5
f 27/91/5 29/90/5 60/92/5
f 60/92/5 28/93/5 27/91/5
f 63/96/5 62/95/5 58/87/5
f 58/87/5 64/97/5 63/96/5
f 64/97/5 58/87/5 65/98/5
f 65/98/5 66/99/5 64/97/5
f 68/101/5 67/100/5 29/90/5
f 29/90/5 69/102/5 68/101/5
f 69/102/5 29/90/5 70/103/5
f 70/103/5 71/104/5 69/102/5
f 57/107/12 1/106/12 59/105/12
f 59/105/12 72/108/12 57/107/12
f 73/109/10 72/111/10 59/110/10
f 59/110/10 58/112/10 73/109/10
f 75/114/12 57/107/12 72/108/12
f 72/108/12 74/113/12 75/114/12
f 75/114/12 74/113/12 76/115/12
f 76/115/12 77/116/12 75/114/12
f 79/118/12 78/117/12 77/116/12
f 77/116/12 76/115/12 79/118/12
f 81/120/12 80/119/12 78/117/12
f 78/117/12 79/118/12 81/120/12
f 81/120/12 74/113/12 82/121/12
f 82/121/12 83/122/12 81/120/12
f 82/121/12 74/113/12 72/108/12
f 72/108/12 84/123/12 82/121/12
f 86/125/12 84/123/12 85/124/12
f 85/124/12 87/126/12 86/125/12
f 83/122/12 82/121/12 88/127/12
f 88/127/12 4/128/12 83/122/12
f 88/127/12 86/125/12 87/126/12
f 87/126/12 4/128/12 88/127/12
f 89/129/5 56/130/5 57/86/5
f 57/86/5 75/131/5 89/129/5
f 90/129/5 77/131/5 78/132/5
f 78/132/5 91/133/5 90/129/5
f 90/129/5 91/133/5 92/134/5
f 92/134/5 93/135/5 90/129/5
f 94/138/5 6/137/5 4/136/5
f 4/136/5 87/139/5 94/138/5
f 94/138/5 87/139/5 95/140/5
f 95/140/5 96/141/5 94/138/5
f 96/141/5 95/140/5 97/142/5
f 97/142/5 98/143/5 96/141/5
f 98/143/5 97/142/5 99/144/5
f 99/144/5 100/145/5 98/143/5
f 100/145/5 99/144/5 50/146/5
f 50/146/5 53/147/5 100/145/5
f 53/147/5 50/146/5 44/148/5
f 44/148/5 43/149/5 53/147/5
f 43/149/5 44/148/5 46/150/5
f 46/150/5 48/151/5 43/149/5
f 48/151/5 46/150/5 23/152/5
f 23/152/5 54/153/5 48/151/5
f 101/154/5 54/153/5 23/152/5
f 23/152/5 102/155/5 101/154/5
f 104/158/5 103/157/5 96/141/5
f 96/141/5 105/159/5 104/158/5
f 105/159/5 96/141/5 106/160/5
f 106/160/5 107/161/5 105/159/5
f 109/163/5 108/162/5 43/149/5
f 43/149/5 110/164/5 109/163/5
f 110/164/5 43/149/5 111/165/5
f 111/165/5 112/166/5 110/164/5
f 94/167/2 87/169/2 85/168/2
f 85/168/2 113/170/2 94/167/2
f 5/84/7 114/172/7 83/171/7
f 83/171/7 4/83/7 5/84/7
f 114/173/5 115/133/5 80/132/5
f 80/132/5 83/136/5 114/173/5
f 115/174/6 91/84/6 78/83/6
f 78/83/6 80/175/6 115/174/6
f 90/84/7 89/177/7 75/176/7
f 75/176/7 77/83/7 90/84/7
f 116/178/7 117/180/7 84/179/7
f 84/179/7 86/181/7 116/178/7
f 117/182/5 118/184/5 82/183/5
f 82/183/5 84/185/5 117/182/5
f 118/186/6 119/188/6 88/187/6
f 88/187/6 82/189/6 118/186/6
f 119/190/9 116/192/9 86/191/9
f 86/191/9 88/193/9 119/190/9
f 120/194/7 121/172/7 81/171/7
f 81/171/7 79/195/7 120/194/7
f 121/196/5 122/198/5 74/197/5
f 74/197/5 81/199/5 121/196/5
f 122/174/6 123/201/6 76/200/6
f 76/200/6 74/175/6 122/174/6
f 123/202/9 120/204/9 79/203/9
f 79/203/9 76/205/9 123/202/9
f 126/208/6 125/207/6 124/206/6
f 124/206/6 127/209/6 126/208/6
f 127/209/6 128/210/6 26/76/6
f 26/76/6 72/212/6 127/209/6
f 26/76/6 128/210/6 129/211/6
f 129/211/6 27/60/6 26/76/6
f 130/213/6 127/209/6 72/212/6
f 72/212/6 132/219/6 130/213/6
f 30/214/11 26/216/11 27/215/11
f 27/215/11 29/217/11 30/214/11
f 133/220/6 59/83/6 27/60/6
f 27/60/6 131/218/6 133/220/6
f 133/220/6 132/219/6 72/212/6
f 72/212/6 59/83/6 133/220/6
f 58/221/8 59/223/8 72/222/8
f 72/222/8 73/224/8 58/221/8
f 134/225/6 130/213/6 135/226/6
f 135/226/6 131/218/6 134/225/6
f 136/227/9 137/229/9 124/228/9
f 124/228/9 129/230/9 136/227/9
f 137/231/12 138/233/12 127/232/12
f 127/232/12 124/234/12 137/231/12
f 138/235/5 139/237/5 128/236/5
f 128/236/5 127/238/5 138/235/5
f 139/239/2 136/241/2 129/240/2
f 129/240/2 128/242/2 139/239/2
f 140/243/9 141/245/9 133/244/9
f 133/244/9 131/246/9 140/243/9
f 141/231/12 142/233/12 132/232/12
f 132/232/12 133/234/12 141/231/12
f 142/247/5 143/249/5 135/248/5
f 135/248/5 132/250/5 142/247/5
f 143/239/2 140/241/2 131/240/2
f 131/240/2 135/242/2 143/239/2
f 144/251/9 145/253/9 134/252/9
f 134/252/9 125/254/9 144/251/9
f 145/231/12 146/233/12 130/232/12
f 130/232/12 134/234/12 145/231/12
f 146/255/5 147/257/5 126/256/5
f 126/256/5 130/258/5 146/255/5
f 147/239/2 144/241/2 125/240/2
f 125/240/2 126/242/2 147/239/2
f 156/267/5 158/269/5 157/268/5
f 157/268/5 159/270/5 156/267/5
f 159/270/5 157/268/5 160/271/5
f 160/271/5 161/272/5 159/270/5
f 162/273/5 163/275/5 154/274/5
f 154/274/5 152/276/5 162/273/5
f 152/276/5 154/274/5 164/277/5
f 164/277/5 165/278/5 152/276/5
f 166/279/9 167/281/9 153/280/9
f 153/280/9 155/282/9 166/279/9
f 155/282/9 153/280/9 168/283/9
f 168/283/9 169/284/9 155/282/9
f 169/284/9 168/283/9 170/285/9
f 170/285/9 171/286/9 169/284/9
f 164/287/7 167/289/7 166/288/7
f 166/288/7 165/290/7 164/287/7
f 170/291/7 161/293/7 160/292/7
f 160/292/7 171/294/7 170/291/7
f 174/297/2 173/296/2 172/295/2
f 172/295/2 175/298/2 174/297/2
f 176/299/2 174/297/2 175/298/2
f 175/298/2 177/300/2 176/299/2
f 176/299/2 177/300/2 178/301/2
f 178/301/2 179/302/2 176/299/2
f 173/303/7 174/305/7 180/304/7
f 180/304/7 181/306/7 173/303/7
f 173/307/5 181/309/5 182/308/5
f 182/308/5 172/310/5 173/307/5
f 183/311/6 175/312/6 172/303/6
f 172/303/6 182/306/6 183/311/6
f 175/313/9 183/315/9 184/314/9
f 184/314/9 177/316/9 175/313/9
f 177/316/9 184/314/9 185/317/9
f 185/317/9 186/318/9 177/316/9
f 187/319/13 178/321/14 177/320/14
f 177/320/14 184/322/15 187/319/13
f 187/323/13 184/325/15 188/324/12
f 188/324/12 189/326/12 187/323/13
f 180/327/12 183/328/12 182/329/12
f 182/329/12 181/330/12 180/327/12
f 189/331/5 179/333/5 178/332/5
f 178/332/5 187/334/5 189/331/5
f 187/334/5 178/332/5 190/335/5
f 190/335/5 191/336/5 187/334/5
f 176/337/6 179/303/6 189/306/6
f 189/306/6 188/338/6 176/337/6
f 174/307/5 176/333/5 188/331/5
f 188/331/5 180/309/5 174/307/5
f 194/341/9 193/340/9 192/339/9
f 192/339/9 195/342/9 194/341/9
f 196/343/9 195/342/9 197/344/9
f 197/344/9 198/345/9 196/343/9
f 196/343/9 200/347/9 199/346/9
f 199/346/9 201/348/9 196/343/9
f 202/349/2 195/351/6 192/350/7
f 192/350/7 203/352/7 202/349/2
f 204/355/2 194/354/2 195/353/2
f 195/353/2 202/356/2 204/355/2
f 205/357/2 202/356/2 195/353/2
f 195/353/2 196/358/2 205/357/2
f 205/357/2 196/358/2 206/359/2
f 206/359/2 207/360/2 205/357/2
f 208/361/2 206/359/2 196/358/2
f 196/358/2 201/362/2 208/361/2
f 208/361/2 201/362/2 209/363/2
f 209/363/2 210/364/2 208/361/2
f 193/365/6 194/366/6 204/349/6
f 204/349/6 211/352/6 193/365/6
f 203/367/12 192/369/12 193/368/12
f 193/368/12 211/370/12 203/367/12
f 202/371/5 203/373/5 211/372/5
f 211/372/5 204/374/5 202/371/5
f 212/375/5 213/376/5 202/371/5
f 202/371/5 205/377/5 212/375/5
f 214/378/5 205/377/5 207/379/5
f 207/379/5 215/380/5 214/378/5
f 200/365/6 196/366/6 205/349/6
f 205/349/6 214/352/6 200/365/6
f 201/351/7 199/350/7 216/352/7
f 216/352/7 209/349/7 201/351/7
f 216/381/5 217/383/5 210/382/5
f 210/382/5 209/384/5 216/381/5
f 218/385/6 208/386/6 210/349/6
f 210/349/6 217/352/6 218/385/6
f 219/380/5 206/379/5 208/382/5
f 208/382/5 218/383/5 219/380/5
f 215/352/7 207/349/7 206/387/7
f 206/387/7 219/388/7 215/352/7
f 218/391/12 217/390/12 216/389/12
f 216/389/12 199/392/12 218/391/12
f 219/393/12 218/391/12 199/392/12
f 199/392/12 200/394/12 219/393/12
f 219/393/12 200/394/12 214/395/12
f 214/395/12 215/396/12 219/393/12
f 113/397/2 85/399/2 87/398/2
f 87/398/2 94/400/2 113/397/2
f 221/403/8 220/402/8 96/401/8
f 96/401/8 95/404/8 221/403/8
f 221/406/6 95/405/6 87/83/6
f 87/83/6 85/212/6 221/406/6
f 222/408/7 212/407/7 205/349/7
f 205/349/7 196/351/7 222/408/7
f 223/409/7 222/408/7 196/351/7
f 196/351/7 198/410/7 223/409/7
f 223/409/7 198/410/7 224/411/7
f 224/411/7 225/412/7 223/409/7
f 223/413/2 225/357/2 226/356/2
f 226/356/2 227/414/2 223/413/2
f 222/375/5 223/416/5 227/415/5
f 227/415/5 228/376/5 222/375/5
f 212/395/12 222/418/12 228/417/12
f 228/417/12 213/367/12 212/395/12
f 197/369/12 229/367/12 224/395/12
f 224/395/12 198/394/12 197/369/12
f 226/415/5 225/416/5 224/419/5
f 224/419/5 229/420/5 226/415/5
f 227/421/6 226/412/6 229/411/6
f 229/411/6 197/422/6 227/421/6
f 228/423/6 227/421/6 197/422/6
f 197/422/6 195/366/6 228/423/6
f 228/423/6 195/366/6 202/349/2
f 202/349/2 213/407/6 228/423/6
f 178/303/7 177/424/7 186/62/7
f 186/62/7 190/60/7 178/303/7
f 184/425/16 177/427/16 178/426/16
f 178/426/16 187/428/16 184/425/16
f 185/325/12 191/323/12 190/429/12
f 190/429/12 186/430/12 185/325/12
f 184/311/6 187/306/6 191/60/6
f 191/60/6 185/76/6 184/311/6
f 95/433/10 96/432/10 220/431/10
f 220/431/10 221/434/10 95/433/10
f 231/436/12 230/435/12 95/126/12
f 95/126/12 221/124/12 231/436/12
f 234/438/12 97/370/12 95/126/12
f 95/126/12 230/435/12 234/438/12
f 232/437/12 231/436/12 221/124/12
f 221/124/12 233/368/12 232/437/12
f 234/438/12 232/437/12 233/368/12
f 233/368/12 97/370/12 234/438/12
f 98/439/11 97/441/11 233/440/11
f 233/440/11 235/442/11 98/439/11
f 236/443/7 237/445/7 232/444/7
f 232/444/7 234/446/7 236/443/7
f 237/447/5 238/449/5 231/448/5
f 231/448/5 232/450/5 237/447/5
f 238/451/6 239/453/6 230/452/6
f 230/452/6 231/454/6 238/451/6
f 239/455/9 236/457/9 234/456/9
f 234/456/9 230/458/9 239/455/9
f 242/461/9 241/460/9 240/459/9
f 240/459/9 243/462/9 242/461/9
f 243/462/9 240/459/9 244/463/9
f 244/463/9 245/464/9 243/462/9
f 245/464/9 244/463/9 246/465/9
f 246/465/9 247/466/9 245/464/9
f 247/466/9 246/465/9 248/467/9
f 248/467/9 249/468/9 247/466/9
f 249/468/9 248/467/9 151/469/9
f 151/469/9 149/470/9 249/468/9
f 149/470/9 151/469/9 250/471/9
f 250/471/9 251/472/9 149/470/9
f 150/473/7 149/475/7 252/474/7
f 252/474/7 253/476/7 150/473/7
f 254/477/7 252/474/7 149/475/7
f 149/475/7 251/62/7 254/477/7
f 254/477/7 251/62/7 255/60/7
f 255/60/7 256/478/7 254/477/7
f 257/479/2 258/481/2 241/480/2
f 241/480/2 242/482/2 257/479/2
f 259/484/6 151/483/6 148/473/6
f 148/473/6 260/476/6 259/484/6
f 250/76/6 151/483/6 259/484/6
f 259/484/6 261/485/6 250/76/6
f 262/60/6 250/76/6 261/485/6
f 261/485/6 263/478/6 262/60/6
f 258/488/5 257/487/5 264/486/5
f 264/486/5 265/489/5 258/488/5
f 266/490/5 265/489/5 264/486/5
f 264/486/5 267/491/5 266/490/5
f 268/492/5 266/490/5 267/491/5
f 267/491/5 269/493/5 268/492/5
f 270/494/5 268/492/5 269/493/5
f 269/493/5 271/495/5 270/494/5
f 148/496/5 270/494/5 271/495/5
f 271/495/5 150/497/5 148/496/5
f 148/496/5 150/497/5 253/498/5
f 253/498/5 260/499/5 148/496/5
f 272/405/7 274/501/7 273/500/7
f 273/500/7 275/502/7 272/405/7
f 276/362/2 274/298/2 272/295/2
f 272/295/2 277/363/2 276/362/2
f 274/503/9 276/505/9 278/504/9
f 278/504/9 273/506/9 274/503/9
f 279/389/12 275/329/12 273/328/12
f 273/328/12 278/392/12 279/389/12
f 277/507/5 272/509/5 275/508/5
f 275/508/5 279/510/5 277/507/5
f 276/406/6 277/405/6 279/502/6
f 279/502/6 278/511/6 276/406/6
f 51/48/2 50/46/2 99/355/2
f 99/355/2 280/354/2 51/48/2
f 281/512/8 280/514/8 99/513/8
f 99/513/8 100/515/8 281/512/8
f 53/516/2 50/518/2 51/517/2
f 51/517/2 52/519/2 53/516/2
f 284/524/12 285/525/12 286/328/12
f 286/328/12 287/329/12 284/524/12
f 288/526/17 287/528/17 286/527/17
f 286/527/17 289/529/17 288/526/17
f 282/530/2 283/531/2 288/363/2
f 288/363/2 289/362/2 282/530/2
f 291/533/7 290/532/7 283/292/7
f 283/292/7 282/294/7 291/533/7
f 292/534/7 291/533/7 282/294/7
f 282/294/7 293/424/7 292/534/7
f 292/534/7 293/424/7 294/303/7
f 294/303/7 295/535/7 292/534/7
f 292/536/2 295/531/2 296/537/2
f 296/537/2 297/538/2 292/536/2
f 291/539/5 292/541/5 297/540/5
f 297/540/5 298/542/5 291/539/5
f 290/543/12 291/545/12 298/544/12
f 298/544/12 299/524/12 290/543/12
f 290/539/5 299/542/5 284/546/5
f 284/546/5 283/547/5 290/539/5
f 283/547/5 284/546/5 287/548/5
f 287/548/5 288/549/5 283/547/5
f 288/549/5 287/548/5 300/550/5
f 300/550/5 301/551/5 288/549/5
f 298/557/6 285/556/6 284/293/6
f 284/293/6 299/532/6 298/557/6
f 302/312/6 285/556/6 298/557/6
f 298/557/6 297/558/6 302/312/6
f 303/303/6 302/312/6 297/558/6
f 297/558/6 296/535/6 303/303/6
f 302/561/9 293/560/9 282/559/9
f 282/559/9 285/562/9 302/561/9
f 285/562/9 282/559/9 289/563/9
f 289/563/9 286/564/9 285/562/9
f 286/564/9 289/563/9 304/565/9
f 304/565/9 305/566/9 286/564/9
f 302/525/12 303/524/12 294/543/12
f 294/543/12 293/567/12 302/525/12
f 296/540/5 295/541/5 294/568/5
f 294/568/5 303/569/5 296/540/5
f 254/570/2 256/479/2 263/481/2
f 263/481/2 261/571/2 254/570/2
f 252/498/5 254/573/5 261/572/5
f 261/572/5 259/499/5 252/498/5
f 253/261/12 252/575/12 259/574/12
f 259/574/12 260/259/12 253/261/12
f 250/262/12 262/259/12 255/261/12
f 255/261/12 251/260/12 250/262/12
f 263/572/5 256/573/5 255/576/5
f 255/576/5 262/577/5 263/572/5
f 306/578/12 308/580/12 307/579/12
f 307/579/12 309/581/12 306/578/12
f 15/582/5 19/93/5 308/583/5
f 308/583/5 306/584/5 15/582/5
f 310/585/6 311/587/6 307/586/6
f 307/586/6 308/588/6 310/585/6
f 19/591/6 28/60/6 60/589/6
f 60/589/6 308/588/6 19/591/6
f 306/592/7 309/594/7 313/593/7
f 313/593/7 314/595/7 306/592/7
f 7/60/7 15/596/7 314/595/7
f 314/595/7 9/589/7 7/60/7
f 314/598/5 310/599/5 312/92/5
f 312/92/5 315/600/5 314/598/5
f 310/13/2 314/9/2 313/601/2
f 313/601/2 311/602/2 310/13/2
f 23/603/2 54/605/2 55/604/2
f 55/604/2 24/606/2 23/603/2
f 7/582/5 8/608/5 316/607/5
f 316/607/5 317/609/5 7/582/5
f 317/589/6 318/612/6 12/611/6
f 12/611/6 10/60/6 317/589/6
f 318/609/5 319/155/5 16/156/5
f 16/156/5 12/610/5 318/609/5
f 319/613/7 102/589/7 21/60/7
f 21/60/7 16/614/7 319/613/7
f 320/615/5 321/617/5 25/616/5
f 25/616/5 18/618/5 320/615/5
f 321/619/7 322/621/7 22/620/7
f 22/620/7 25/622/7 321/619/7
f 322/623/9 323/625/9 20/624/9
f 20/624/9 22/626/9 322/623/9
f 323/627/6 320/629/6 18/628/6
f 18/628/6 20/630/6 323/627/6
f 324/631/5 325/633/5 14/632/5
f 14/632/5 17/634/5 324/631/5
f 325/619/7 326/621/7 11/620/7
f 11/620/7 14/622/7 325/619/7
f 326/635/9 327/637/9 13/636/9
f 13/636/9 11/638/9 326/635/9
f 327/627/6 324/629/6 17/628/6
f 17/628/6 13/630/6 327/627/6
f 328/639/5 330/641/5 329/640/5
f 329/640/5 331/642/5 328/639/5
f 332/643/9 334/645/9 333/644/9
f 333/644/9 335/646/9 332/643/9
f 333/647/7 337/649/7 336/648/7
f 336/648/7 335/650/7 333/647/7
f 338/651/5 339/653/5 336/652/5
f 336/652/5 337/654/5 338/651/5
f 287/293/7 286/291/7 305/62/7
f 305/62/7 300/60/7 287/293/7
f 289/655/18 286/657/18 287/656/18
f 287/656/18 288/658/18 289/655/18
f 300/329/12 305/328/12 304/392/12
f 304/392/12 301/389/12 300/329/12
f 289/659/6 288/292/6 301/60/6
f 301/60/6 304/76/6 289/659/6
f 340/660/12 342/662/12 341/661/12
f 341/661/12 343/663/12 340/660/12
f 342/664/5 345/666/5 344/665/5
f 344/665/5 341/667/5 342/664/5
f 346/668/9 340/670/9 343/669/9
f 343/669/9 347/671/9 346/668/9
f 97/674/3 98/673/3 235/672/3
f 235/672/3 233/675/3 97/674/3
f 349/677/7 348/676/7 97/405/7
f 97/405/7 233/501/7 349/677/7
f 351/679/7 349/677/7 233/501/7
f 233/501/7 280/62/7 351/679/7
f 352/684/7 99/60/7 97/405/7
f 97/405/7 350/678/7 352/684/7
f 100/680/10 99/682/10 280/681/10
f 280/681/10 281/683/10 100/680/10
f 353/685/7 280/62/7 99/60/7
f 99/60/7 352/684/7 353/685/7
f 346/687/7 350/678/7 354/686/7
f 354/686/7 340/689/7 346/687/7
f 355/688/7 350/678/7 346/687/7
f 346/687/7 345/690/7 355/688/7
f 342/691/7 340/689/7 354/686/7
f 354/686/7 351/679/7 342/691/7
f 351/679/7 355/688/7 345/690/7
f 345/690/7 342/691/7 351/679/7
f 351/692/2 354/694/2 356/693/2
f 356/693/2 357/695/2 351/692/2
f 349/696/5 351/698/5 357/697/5
f 357/697/5 358/699/5 349/696/5
f 348/700/12 349/702/12 358/701/12
f 358/701/12 359/703/12 348/700/12
f 354/704/9 348/706/9 359/705/9
f 359/705/9 356/707/9 354/704/9
f 353/692/2 352/694/2 360/693/2
f 360/693/2 361/695/2 353/692/2
f 355/708/5 353/710/5 361/709/5
f 361/709/5 362/711/5 355/708/5
f 350/700/12 355/702/12 362/701/12
f 362/701/12 363/703/12 350/700/12
f 352/712/9 350/714/9 363/713/9
f 363/713/9 360/715/9 352/712/9
f 345/716/2 346/718/2 347/717/2
f 347/717/2 344/719/2 345/716/2
f 364/292/6 366/721/6 365/720/6
f 365/720/6 367/659/6 364/292/6
f 368/292/7 370/294/7 369/722/7
f 369/722/7 371/721/7 368/292/7
f 368/723/5 371/725/5 366/724/5
f 366/724/5 364/726/5 368/723/5
f 371/727/12 369/729/12 365/728/12
f 365/728/12 366/730/12 371/727/12
f 369/731/9 370/733/9 367/732/9
f 367/732/9 365/734/9 369/731/9
f 370/735/2 368/737/2 364/736/2
f 364/736/2 367/738/2 370/735/2
f 374/359/2 373/360/2 372/355/2
f 372/355/2 375/354/2 374/359/2
f 376/361/2 374/359/2 375/354/2
f 375/354/2 377/362/2 376/361/2
f 376/361/2 377/362/2 378/363/2
f 378/363/2 379/364/2 376/361/2
f 373/411/7 374/740/7 380/739/7
f 380/739/7 381/741/7 373/411/7
f 373/742/5 381/744/5 382/743/5
f 382/743/5 372/745/5 373/742/5
f 375/422/6 372/411/6 382/741/6
f 382/741/6 383/746/6 375/422/6
f 375/747/9 383/749/9 384/748/9
f 384/748/9 377/750/9 375/747/9
f 384/751/7 385/741/7 378/411/7
f 378/411/7 377/410/7 384/751/7
f 386/752/5 379/754/5 378/753/5
f 378/753/5 385/755/5 386/752/5
f 376/756/6 379/411/6 386/741/6
f 386/741/6 387/757/6 376/756/6
f 374/742/5 376/754/5 387/752/5
f 387/752/5 380/744/5 374/742/5
f 387/391/12 386/390/12 385/389/12
f 385/389/12 384/392/12 387/391/12
f 380/393/12 383/368/12 382/370/12
f 382/370/12 381/396/12 380/393/12
f 388/758/19 390/760/19 389/759/20
f 389/759/20 391/761/21 388/758/19
f 394/770/24 393/769/23 392/768/22
f 392/768/22 395/771/24 394/770/24
f 394/772/24 395/774/24 31/773/25
f 31/773/25 32/775/25 394/772/24
f 388/777/26 396/776/4 397/778/27
f 397/778/27 398/779/28 388/777/26
f 388/787/26 400/789/30 401/788/30
f 401/788/30 390/792/25 388/787/26
f 401/791/30 400/790/30 399/784/29
f 399/784/29 402/793/31 401/791/30
f 405/802/32 403/794/20 390/792/25
f 390/792/25 401/788/30 405/802/32
f 401/795/30 402/797/31 404/796/31
f 404/796/31 405/801/32 401/795/30
f 33/803/33 396/805/33 394/804/33
f 394/804/33 32/806/33 33/803/33
f 408/809/9 407/808/9 406/807/9
f 406/807/9 281/810/9 408/809/9
f 281/810/9 406/807/9 409/811/9
f 409/811/9 410/812/9 281/810/9
f 280/813/9 281/810/9 52/814/9
f 52/814/9 51/815/9 280/813/9
f 281/810/9 280/813/9 233/816/9
f 233/816/9 235/818/9 281/810/9
f 51/815/9 52/814/9 42/817/9
f 42/817/9 45/819/9 51/815/9
f 235/818/9 233/816/9 221/820/9
f 221/820/9 220/823/9 235/818/9
f 45/819/9 42/817/9 49/821/9
f 49/821/9 47/822/9 45/819/9
f 220/823/9 221/820/9 85/824/9
f 85/824/9 113/825/9 220/823/9
f 113/825/9 85/824/9 72/826/9
f 72/826/9 73/827/9 113/825/9
f 73/827/9 72/826/9 26/828/9
f 26/828/9 30/835/9 73/827/9
f 47/822/9 49/821/9 55/829/9
f 55/829/9 24/830/9 47/822/9
f 313/833/9 309/832/9 24/830/9
f 24/830/9 55/829/9 313/833/9
f 26/828/9 307/831/9 311/834/9
f 311/834/9 30/835/9 26/828/9
f 412/837/9 411/836/9 220/823/9
f 220/823/9 413/838/9 412/837/9
f 413/838/9 220/823/9 414/839/9
f 414/839/9 415/840/9 413/838/9
f 417/842/9 416/841/9 73/827/9
f 73/827/9 418/843/9 417/842/9
f 418/843/9 73/827/9 419/844/9
f 419/844/9 420/845/9 418/843/9
f 422/847/9 421/846/9 30/835/9
f 30/835/9 423/848/9 422/847/9
f 423/848/9 30/835/9 424/849/9
f 424/849/9 425/850/9 423/848/9
f 281/851/2 406/853/2 426/852/2
f 426/852/2 100/854/2 281/851/2
f 281/855/7 100/857/7 427/856/7
f 427/856/7 408/858/7 281/855/7
f 408/859/2 427/861/2 428/860/2
f 428/860/2 407/862/2 408/859/2
f 428/864/5 427/863/5 100/145/5
f 100/145/5 426/865/5 428/864/5
f 426/865/5 100/145/5 429/866/5
f 429/866/5 430/867/5 426/865/5
f 410/869/2 429/868/2 100/861/2
f 100/861/2 281/859/2 410/869/2
f 406/870/2 281/872/2 100/871/2
f 100/871/2 426/873/2 406/870/2
f 429/857/7 410/855/7 409/874/7
f 409/874/7 430/875/7 429/857/7
f 220/876/2 413/878/2 105/877/2
f 105/877/2 96/879/2 220/876/2
f 220/880/6 96/882/6 103/881/6
f 103/881/6 414/883/6 220/880/6
f 414/884/12 103/886/12 104/885/12
f 104/885/12 415/887/12 414/884/12
f 96/879/2 105/877/2 413/888/2
f 413/888/2 220/889/2 96/879/2
f 96/886/12 220/884/12 411/890/12
f 411/890/12 106/891/12 96/886/12
f 106/882/6 411/880/6 412/892/6
f 412/892/6 107/893/6 106/882/6
f 432/895/9 431/894/9 49/821/9
f 49/821/9 433/896/9 432/895/9
f 433/896/9 49/821/9 434/897/9
f 434/897/9 435/898/9 433/896/9
f 48/901/2 436/900/2 433/899/2
f 433/899/2 49/902/2 48/901/2
f 48/903/6 49/905/6 431/904/6
f 431/904/6 437/906/6 48/903/6
f 432/907/2 438/909/2 437/908/2
f 437/908/2 431/910/2 432/907/2
f 437/913/5 438/912/5 436/911/5
f 436/911/5 48/151/5 437/913/5
f 48/151/5 436/911/5 439/914/5
f 439/914/5 440/915/5 48/151/5
f 49/916/2 433/917/2 436/900/2
f 436/900/2 48/901/2 49/916/2
f 49/910/2 48/908/2 440/918/2
f 440/918/2 434/919/2 49/910/2
f 439/920/6 435/921/6 434/905/6
f 434/905/6 440/903/6 439/920/6
f 441/924/2 111/923/2 43/922/2
f 43/922/2 42/925/2 441/924/2
f 442/926/2 42/928/2 43/927/2
f 43/927/2 110/929/2 442/926/2
f 443/931/9 441/930/9 42/817/9
f 42/817/9 442/932/9 443/931/9
f 442/932/9 42/817/9 444/933/9
f 444/933/9 445/934/9 442/932/9
f 111/903/7 441/936/7 443/935/7
f 443/935/7 112/920/7 111/903/7
f 42/937/2 442/938/2 110/929/2
f 110/929/2 43/927/2 42/937/2
f 42/936/7 43/903/7 108/906/7
f 108/906/7 444/939/7 42/936/7
f 444/925/2 108/922/2 109/940/2
f 109/940/2 445/941/2 444/925/2
f 448/944/9 447/943/9 446/942/9
f 446/942/9 235/818/9 448/944/9
f 235/818/9 446/942/9 449/945/9
f 449/945/9 450/946/9 235/818/9
f 235/947/2 446/949/2 451/948/2
f 451/948/2 98/950/2 235/947/2
f 235/951/12 98/953/12 452/952/12
f 452/952/12 448/954/12 235/951/12
f 453/893/7 447/956/7 448/955/7
f 448/955/7 452/882/7 453/893/7
f 453/958/5 452/957/5 98/143/5
f 98/143/5 451/959/5 453/958/5
f 451/959/5 98/143/5 454/960/5
f 454/960/5 455/961/5 451/959/5
f 450/962/7 454/881/7 98/882/7
f 98/882/7 235/955/7 450/962/7
f 446/963/2 235/964/2 98/950/2
f 98/950/2 451/948/2 446/963/2
f 449/965/12 455/966/12 454/953/12
f 454/953/12 450/951/12 449/965/12
f 29/969/2 69/968/2 423/967/2
f 423/967/2 30/970/2 29/969/2
f 29/857/6 30/972/6 421/971/6
f 421/971/6 70/856/6 29/857/6
f 422/973/2 71/975/2 70/974/2
f 70/974/2 421/976/2 422/973/2
f 30/977/2 423/979/2 69/978/2
f 69/978/2 29/980/2 30/977/2
f 30/976/2 29/974/2 67/981/2
f 67/981/2 424/982/2 30/976/2
f 68/875/6 425/983/6 424/972/6
f 424/972/6 67/857/6 68/875/6
f 58/986/2 64/985/2 418/984/2
f 418/984/2 73/987/2 58/986/2
f 58/988/12 73/990/12 416/989/12
f 416/989/12 65/991/12 58/988/12
f 65/992/6 416/994/6 417/993/6
f 417/993/6 66/995/6 65/992/6
f 73/996/2 418/997/2 64/985/2
f 64/985/2 58/986/2 73/996/2
f 73/994/6 58/992/6 62/998/6
f 62/998/6 419/999/6 73/994/6
f 419/990/12 62/988/12 63/1000/12
f 63/1000/12 420/1001/12 419/990/12
f 456/1002/5 459/1005/5 460/1006/5
f 460/1006/5 461/1007/5 456/1002/5
f 462/1008/5 461/1007/5 463/1009/5
f 463/1009/5 464/1010/5 462/1008/5
f 465/1011/5 467/1012/5 466/1002/5
f 466/1002/5 468/1004/5 465/1011/5
f 469/1013/5 465/1011/5 468/1004/5
f 468/1004/5 470/1006/5 469/1013/5
f 469/1013/5 470/1006/5 471/1007/5
f 471/1007/5 472/1014/5 469/1013/5
f 473/1015/5 476/1018/5 477/1019/5
f 477/1019/5 478/1020/5 473/1015/5
f 479/1021/5 478/1020/5 480/1022/5
f 480/1022/5 481/1023/5 479/1021/5
f 482/1024/5 483/1025/5 477/1019/5
f 477/1019/5 486/1028/5 482/1024/5
f 484/1026/5 483/1025/5 482/1024/5
f 482/1024/5 485/1027/5 484/1026/5
f 487/1029/5 486/1028/5 488/1030/5
f 488/1030/5 489/1031/5 487/1029/5
f 490/1032/5 492/1033/5 491/1015/5
f 491/1015/5 493/1017/5 490/1032/5
f 494/1034/5 490/1032/5 493/1017/5
f 493/1017/5 495/1019/5 494/1034/5
f 494/1034/5 495/1019/5 496/1020/5
f 496/1020/5 497/1035/5 494/1034/5
f 499/1036/5 495/1019/5 498/1028/5
f 498/1028/5 500/1037/5 499/1036/5
f 502/1038/5 501/1027/5 495/1019/5
f 495/1019/5 499/1036/5 502/1038/5
f 503/1024/5 501/1027/5 502/1038/5
f 502/1038/5 504/1039/5 503/1024/5
f 505/1040/2 507/1042/2 506/1041/2
f 506/1041/2 508/1043/2 505/1040/2
f 508/1044/5 506/1046/5 509/1045/5
f 509/1045/5 510/1047/5 508/1044/5
f 510/1048/12 509/1050/12 511/1049/2
f 511/1049/2 512/1051/2 510/1048/12
f 514/1053/5 513/1052/5 512/1047/5
f 512/1047/5 511/1045/5 514/1053/5
f 511/1045/5 512/1047/5 505/1044/5
f 505/1044/5 507/1046/5 511/1045/5
f 507/1046/5 505/1044/5 515/1054/5
f 515/1054/5 516/1055/5 507/1046/5
f 513/1040/2 514/1042/2 517/1056/2
f 517/1056/2 518/1057/2 513/1040/2
f 518/1058/9 517/1060/9 519/1059/9
f 519/1059/9 520/1061/9 518/1058/9
f 520/1062/12 519/1063/12 516/1049/12
f 516/1049/12 515/1051/12 520/1062/12
f 512/1040/2 511/1042/2 521/1064/2
f 521/1064/2 522/1065/2 512/1040/2
f 522/1066/9 521/1068/9 523/1067/9
f 523/1067/9 524/1069/9 522/1066/9
f 524/1070/12 523/1071/12 507/1049/2
f 507/1049/2 505/1051/2 524/1070/12
f 512/1072/7 522/1074/7 524/1073/7
f 524/1073/7 505/1075/7 512/1072/7
f 510/1077/7 512/1072/7 513/1076/7
f 513/1076/7 518/1078/7 510/1077/7
f 508/1079/7 510/1077/7 518/1078/7
f 518/1078/7 520/1081/7 508/1079/7
f 520/1081/7 515/1080/7 505/1075/7
f 505/1075/7 508/1079/7 520/1081/7
f 523/1084/6 521/1083/6 511/1082/6
f 511/1082/6 507/1085/6 523/1084/6
f 506/1087/6 507/1085/6 516/1086/6
f 516/1086/6 519/1088/6 506/1087/6
f 509/1089/6 506/1087/6 519/1088/6
f 519/1088/6 517/1091/6 509/1089/6
f 517/1091/6 514/1090/6 511/1082/6
f 511/1082/6 509/1089/6 517/1091/6
f 525/1092/5 527/1094/5 526/1093/5
f 526/1093/5 528/1095/5 525/1092/5
f 528/1096/2 526/1098/2 529/1097/2
f 529/1097/2 530/1099/2 528/1096/2
f 530/1100/9 529/1102/9 531/1101/9
f 531/1101/9 532/1103/9 530/1100/9
f 532/1104/12 531/1106/12 527/1105/12
f 527/1105/12 525/1107/12 532/1104/12
f 525/1108/7 528/1110/7 530/1109/7
f 530/1109/7 532/1111/7 525/1108/7
f 527/1112/6 531/1114/6 529/1113/6
f 529/1113/6 526/1115/6 527/1112/6
f 533/1104/12 535/1106/12 534/1105/12
f 534/1105/12 536/1107/12 533/1104/12
f 536/1116/5 534/1118/5 537/1117/5
f 537/1117/5 538/1119/5 536/1116/5
f 538/1096/2 537/1098/2 539/1097/2
f 539/1097/2 540/1099/2 538/1096/2
f 540/1120/9 539/1122/9 535/1121/9
f 535/1121/9 533/1123/9 540/1120/9
f 533/1124/7 536/1126/7 538/1125/7
f 538/1125/7 540/1127/7 533/1124/7
f 535/1128/6 539/1130/6 537/1129/6
f 537/1129/6 534/1131/6 535/1128/6
f 543/1134/7 542/1133/7 541/1132/7
f 541/1132/7 544/1135/7 543/1134/7
f 544/1135/7 541/1132/7 503/1136/7
f 503/1136/7 504/1137/7 544/1135/7
f 504/1137/7 503/1136/7 482/1138/7
f 482/1138/7 545/1139/7 504/1137/7
f 487/1144/12 489/1146/12 551/1145/12
f 551/1145/12 552/1147/12 487/1144/12
f 553/1148/2 555/1150/2 554/1149/6
f 554/1149/6 556/1151/6 553/1148/2
f 556/1152/5 554/1154/5 557/1153/5
f 557/1153/5 558/1155/5 556/1152/5
f 558/1156/7 557/1158/7 559/1157/2
f 559/1157/2 560/1159/2 558/1156/7
f 562/1161/5 561/1160/5 560/1155/5
f 560/1155/5 559/1153/5 562/1161/5
f 559/1153/5 560/1155/5 553/1152/5
f 553/1152/5 555/1154/5 559/1153/5
f 555/1154/5 553/1152/5 563/1162/5
f 563/1162/5 564/1163/5 555/1154/5
f 561/1148/6 562/1150/6 565/1164/6
f 565/1164/6 566/1165/6 561/1148/6
f 566/1166/9 565/1168/9 567/1167/9
f 567/1167/9 568/1169/9 566/1166/9
f 568/1170/7 567/1171/7 564/1157/7
f 564/1157/7 563/1159/7 568/1170/7
f 560/1148/2 559/1150/2 569/1172/6
f 569/1172/6 570/1173/6 560/1148/2
f 570/1174/9 569/1176/9 571/1175/9
f 571/1175/9 572/1177/9 570/1174/9
f 572/1178/7 571/1179/7 555/1157/2
f 555/1157/2 553/1159/2 572/1178/7
f 560/1180/2 570/1182/2 572/1181/2
f 572/1181/2 553/1183/2 560/1180/2
f 558/1185/2 560/1180/2 561/1184/2
f 561/1184/2 566/1186/2 558/1185/2
f 556/1187/2 558/1185/2 566/1186/2
f 566/1186/2 568/1189/2 556/1187/2
f 568/1189/2 563/1188/2 553/1183/2
f 553/1183/2 556/1187/2 568/1189/2
f 571/1192/12 569/1191/12 559/1190/12
f 559/1190/12 555/1193/12 571/1192/12
f 554/1195/12 555/1193/12 564/1194/12
f 564/1194/12 567/1196/12 554/1195/12
f 557/1197/12 554/1195/12 567/1196/12
f 567/1196/12 565/1199/12 557/1197/12
f 565/1199/12 562/1198/12 559/1190/12
f 559/1190/12 557/1197/12 565/1199/12
f 573/1200/5 575/1202/5 574/1201/5
f 574/1201/5 576/1203/5 573/1200/5
f 576/1204/6 574/1206/6 577/1205/6
f 577/1205/6 578/1207/6 576/1204/6
f 578/1208/9 577/1210/9 579/1209/9
f 579/1209/9 580/1211/9 578/1208/9
f 580/1212/7 579/1214/7 575/1213/7
f 575/1213/7 573/1215/7 580/1212/7
f 573/1216/2 576/1218/2 578/1217/2
f 578/1217/2 580/1219/2 573/1216/2
f 575/1220/12 579/1222/12 577/1221/12
f 577/1221/12 574/1223/12 575/1220/12
f 581/1212/7 583/1214/7 582/1213/7
f 582/1213/7 584/1215/7 581/1212/7
f 584/1224/5 582/1226/5 585/1225/5
f 585/1225/5 586/1227/5 584/1224/5
f 586/1204/6 585/1206/6 587/1205/6
f 587/1205/6 588/1207/6 586/1204/6
f 588/1228/9 587/1230/9 583/1229/9
f 583/1229/9 581/1231/9 588/1228/9
f 581/1232/2 584/1234/2 586/1233/2
f 586/1233/2 588/1235/2 581/1232/2
f 583/1236/12 587/1238/12 585/1237/12
f 585/1237/12 582/1239/12 583/1236/12
f 591/1242/12 590/1241/12 589/1240/12
f 589/1240/12 592/1243/12 591/1242/12
f 593/1244/5 596/1247/5 597/1248/5
f 597/1248/5 598/1249/5 593/1244/5
f 599/1250/5 598/1249/5 600/1251/5
f 600/1251/5 601/1252/5 599/1250/5
f 602/1253/5 604/1254/5 603/1244/5
f 603/1244/5 605/1246/5 602/1253/5
f 606/1255/5 602/1253/5 605/1246/5
f 605/1246/5 607/1248/5 606/1255/5
f 606/1255/5 607/1248/5 608/1249/5
f 608/1249/5 609/1256/5 606/1255/5
f 601/1257/2 600/1259/2 610/1258/2
f 610/1258/2 611/1260/2 601/1257/2
f 614/1263/12 613/1262/12 612/1261/12
f 612/1261/12 615/1264/12 614/1263/12
f 618/1267/12 617/1266/12 616/1265/12
f 616/1265/12 619/1268/12 618/1267/12
f 620/1271/7 614/1270/7 615/1269/7
f 615/1269/7 621/1272/7 620/1271/7
f 621/1272/7 615/1269/7 618/1273/7
f 618/1273/7 622/1274/7 621/1272/7
f 622/1274/7 618/1273/7 619/1275/7
f 619/1275/7 623/1276/7 622/1274/7
f 623/1277/5 624/1279/5 625/1280/5
f 625/1280/5 626/1281/5 623/1277/5
f 627/1282/5 626/1281/5 628/1283/5
f 628/1283/5 629/1284/5 627/1282/5
f 630/1285/5 631/1286/5 622/1277/5
f 622/1277/5 618/271/5 630/1285/5
f 632/1287/5 630/1285/5 618/271/5
f 618/271/5 633/1280/5 632/1287/5
f 632/1287/5 633/1280/5 634/1281/5
f 634/1281/5 635/1288/5 632/1287/5
f 615/286/2 621/1290/2 636/1289/9
f 636/1289/9 637/1291/9 615/286/2
f 627/1276/7 629/1293/7 638/1292/7
f 638/1292/7 639/1294/7 627/1276/7
f 623/1295/2 641/1298/2 631/1299/2
f 631/1299/2 622/1300/2 623/1295/2
f 622/1300/2 631/1299/2 636/1303/2
f 636/1303/2 621/1304/2 622/1300/2
f 621/1304/2 636/1303/2 646/1310/2
f 646/1310/2 620/1307/2 621/1304/2
f 647/1311/2 598/1259/2 608/1312/2
f 608/1312/2 609/1313/2 647/1311/2
f 648/1298/2 647/1311/2 609/1313/2
f 609/1313/2 604/1299/2 648/1298/2
f 593/1295/2 648/1298/2 604/1299/2
f 604/1299/2 603/1300/2 593/1295/2
f 609/1313/2 608/1312/2 649/1314/2
f 649/1314/2 651/1315/2 609/1313/2
f 603/1300/2 604/1299/2 650/1303/2
f 650/1303/2 652/1304/2 603/1300/2
f 651/1315/2 649/1314/2 653/1316/2
f 653/1316/2 654/1317/2 651/1315/2
f 650/1303/2 651/1315/2 654/1317/2
f 654/1317/2 656/1310/2 650/1303/2
f 652/1304/2 650/1303/2 656/1310/2
f 656/1310/2 655/1307/2 652/1304/2
f 670/1305/2 671/1306/2 673/1308/2
f 673/1308/2 674/1309/2 670/1305/2
f 669/1304/2 672/1303/2 676/1310/2
f 676/1310/2 675/1307/2 669/1304/2

