{
  "accessors": [
    {
      "bufferView": 2,
      "componentType": 5126,
      "count": 10781,
      "max": [
        58.62099838256836,
        192.8979949951172,
        1191.469970703125
      ],
      "min": [
        -530.4550170898438,
        -373.9909973144531,
        962.5239868164063
      ],
      "type": "VEC3"
    },
    {
      "bufferView": 2,
      "byteOffset": 129372,
      "componentType": 5126,
      "count": 10781,
      "max": [
        0.9773244261741638,
        0.9999416470527649,
        0.9992347955703735
      ],
      "min": [
        -0.9766459465026855,
        -0.9993010759353638,
        -0.9999876022338867
      ],
      "type": "VEC3"
    },
    {
      "bufferView": 1,
      "componentType": 5126,
      "count": 10781,
      "max": [
        1.0,
        1.0
      ],
      "min": [
        0.0,
        0.0
      ],
      "type": "VEC2"
    },
    {
      "bufferView": 0,
      "componentType": 5125,
      "count": 53760,
      "type": "SCALAR"
    },
    {
      "bufferView": 2,
      "byteOffset": 258744,
      "componentType": 5126,
      "count": 5725,
      "max": [
        33.4900016784668,
        24.968000411987305,
        1763.7550048828125
      ],
      "min": [
        -525.5159912109375,
        -545.7639770507813,
        149.31300354003906
      ],
      "type": "VEC3"
    },
    {
      "bufferView": 2,
      "byteOffset": 327444,
      "componentType": 5126,
      "count": 5725,
      "max": [
        0.9997330904006958,
        0.999726414680481,
        0.9983752369880676
      ],
      "min": [
        -0.9998801350593567,
        -0.9999918937683105,
        -0.9999957084655762
      ],
      "type": "VEC3"
    },
    {
      "bufferView": 1,
      "byteOffset": 86248,
      "componentType": 5126,
      "count": 5725,
      "max": [
        3.067850112915039,
        2.0600099563598633
      ],
      "min": [
        -2.1070001125335693,
        -0.5688899755477905
      ],
      "type": "VEC2"
    },
    {
      "bufferView": 0,
      "byteOffset": 215040,
      "componentType": 5125,
      "count": 33120,
      "type": "SCALAR"
    },
    {
      "bufferView": 2,
      "byteOffset": 396144,
      "componentType": 5126,
      "count": 9794,
      "max": [
        -88.94499969482422,
        -134.85699462890625,
        1593.77197265625
      ],
      "min": [
        -509.7860107421875,
        -441.1050109863281,
        317.7770080566406
      ],
      "type": "VEC3"
    },
    {
      "bufferView": 2,
      "byteOffset": 513672,
      "componentType": 5126,
      "count": 9794,
      "max": [
        0.9996633529663086,
        0.9998586773872375,
        0.999640941619873
      ],
      "min": [
        -0.9988136887550354,
        -0.9998658299446106,
        -0.9999455809593201
      ],
      "type": "VEC3"
    },
    {
      "bufferView": 1,
      "byteOffset": 132048,
      "componentType": 5126,
      "count": 9794,
      "max": [
        3.138200044631958,
        1.5428500175476074
      ],
      "min": [
        -2.138200044631958,
        0.0
      ],
      "type": "VEC2"
    },
    {
      "bufferView": 0,
      "byteOffset": 347520,
      "componentType": 5125,
      "count": 48816,
      "type": "SCALAR"
    },
    {
      "bufferView": 2,
      "byteOffset": 631200,
      "componentType": 5126,
      "count": 8555,
      "max": [
        78.02799987792969,
        -104.83200073242188,
        1725.14501953125
      ],
      "min": [
        -667.0609741210938,
        -556.3170166015625,
        169.447998046875
      ],
      "type": "VEC3"
    },
    {
      "bufferView": 2,
      "byteOffset": 733860,
      "componentType": 5126,
      "count": 8555,
      "max": [
        0.9994782209396362,
        0.9999011754989624,
        0.9999862909317017
      ],
      "min": [
        -0.9997122883796692,
        -0.9997568726539612,
        -0.9998956918716431
      ],
      "type": "VEC3"
    },
    {
      "bufferView": 1,
      "byteOffset": 210400,
      "componentType": 5126,
      "count": 8555,
      "max": [
        1.2016899585723877,
        1.1912599802017212
      ],
      "min": [
        -0.20316000282764435,
        -0.19351999461650848
      ],
      "type": "VEC2"
    },
    {
      "bufferView": 0,
      "byteOffset": 542784,
      "componentType": 5125,
      "count": 50064,
      "type": "SCALAR"
    },
    {
      "bufferView": 2,
      "byteOffset": 836520,
      "componentType": 5126,
      "count": 5778,
      "max": [
        82.31999969482422,
        -118.70700073242188,
        652.375
      ],
      "min": [
        -62.60300064086914,
        -271.6199951171875,
        337.27801513671875
      ],
      "type": "VEC3"
    },
    {
      "bufferView": 2,
      "byteOffset": 905856,
      "componentType": 5126,
      "count": 5778,
      "max": [
        0.9999614357948303,
        0.9997817873954773,
        0.9999627470970154
      ],
      "min": [
        -0.9999275207519531,
        -0.9996073842048645,
        -0.9998663067817688
      ],
      "type": "VEC3"
    },
    {
      "bufferView": 1,
      "byteOffset": 278840,
      "componentType": 5126,
      "count": 5778,
      "max": [
        1.0524200201034546,
        1.0
      ],
      "min": [
        0.0,
        0.0
      ],
      "type": "VEC2"
    },
    {
      "bufferView": 0,
      "byteOffset": 743040,
      "componentType": 5125,
      "count": 25632,
      "type": "SCALAR"
    },
    {
      "bufferView": 2,
      "byteOffset": 975192,
      "componentType": 5126,
      "count": 2983,
      "max": [
        115.28700256347656,
        259.68701171875,
        1523.6669921875
      ],
      "min": [
        -587.2009887695313,
        -414.4960021972656,
        254.63099670410156
      ],
      "type": "VEC3"
    },
    {
      "bufferView": 2,
      "byteOffset": 1010988,
      "componentType": 5126,
      "count": 2983,
      "max": [
        0.9998820424079895,
        0.9978046417236328,
        0.9999830722808838
      ],
      "min": [
        -0.9998820424079895,
        -0.9978046417236328,
        -0.9999830722808838
      ],
      "type": "VEC3"
    },
    {
      "bufferView": 1,
      "byteOffset": 325064,
      "componentType": 5126,
      "count": 2983,
      "max": [
        1.7961900234222412,
        1.7961900234222412
      ],
      "min": [
        -0.7961900234222412,
        -0.7961900234222412
      ],
      "type": "VEC2"
    },
    {
      "bufferView": 0,
      "byteOffset": 845568,
      "componentType": 5125,
      "count": 11520,
      "type": "SCALAR"
    },
    {
      "bufferView": 2,
      "byteOffset": 1046784,
      "componentType": 5126,
      "count": 7095,
      "max": [
        -125.48400115966797,
        -45.34400177001953,
        1654.6669921875
      ],
      "min": [
        -668.2529907226563,
        -488.6189880371094,
        657.6420288085938
      ],
      "type": "VEC3"
    },
    {
      "bufferView": 2,
      "byteOffset": 1131924,
      "componentType": 5126,
      "count": 7095,
      "max": [
        1.0,
        0.9999772310256958,
        0.999663233757019
      ],
      "min": [
        -1.0,
        -0.9999712109565735,
        -0.999663233757019
      ],
      "type": "VEC3"
    },
    {
      "bufferView": 1,
      "byteOffset": 348928,
      "componentType": 5126,
      "count": 7095,
      "max": [
        2.0974199771881104,
        2.0974199771881104
      ],
      "min": [
        -1.0974199771881104,
        -1.0974199771881104
      ],
      "type": "VEC2"
    },
    {
      "bufferView": 0,
      "byteOffset": 891648,
      "componentType": 5125,
      "count": 30990,
      "type": "SCALAR"
    },
    {
      "bufferView": 2,
      "byteOffset": 1217064,
      "componentType": 5126,
      "count": 53724,
      "max": [
        -160.18800354003906,
        -278.5979919433594,
        1696.3050537109375
      ],
      "min": [
        -320.7449951171875,
        -425.2619934082031,
        1418.583984375
      ],
      "type": "VEC3"
    },
    {
      "bufferView": 2,
      "byteOffset": 1861752,
      "componentType": 5126,
      "count": 53724,
      "max": [
        0.9997771382331848,
        0.9999839067459106,
        0.9997031092643738
      ],
      "min": [
        -0.9997766613960266,
        -0.9999842643737793,
        -0.9996845126152039
      ],
      "type": "VEC3"
    },
    {
      "bufferView": 1,
      "byteOffset": 405688,
      "componentType": 5126,
      "count": 53724,
      "max": [
        0.7167500257492065,
        0.7167500257492065
      ],
      "min": [
        0.28325000405311584,
        0.28325000405311584
      ],
      "type": "VEC2"
    },
    {
      "bufferView": 0,
      "byteOffset": 1015608,
      "componentType": 5125,
      "count": 209040,
      "type": "SCALAR"
    },
    {
      "bufferView": 2,
      "byteOffset": 2506440,
      "componentType": 5126,
      "count": 5106,
      "max": [
        -117.94999694824219,
        -41.604000091552734,
        1742.008056640625
      ],
      "min": [
        -595.4089965820313,
        -452.0950012207031,
        885.948974609375
      ],
      "type": "VEC3"
    },
    {
      "bufferView": 2,
      "byteOffset": 2567712,
      "componentType": 5126,
      "count": 5106,
      "max": [
        0.9996137022972107,
        0.9933739304542542,
        0.9934343099594116
      ],
      "min": [
        -0.9989017844200134,
        -0.9993841648101807,
        -0.9935756921768188
      ],
      "type": "VEC3"
    },
    {
      "bufferView": 1,
      "byteOffset": 835480,
      "componentType": 5126,
      "count": 5106,
      "max": [
        1.2560100555419922,
        1.0728000402450562
      ],
      "min": [
        -0.0631600022315979,
        -0.14618000388145447
      ],
      "type": "VEC2"
    },
    {
      "bufferView": 0,
      "byteOffset": 1851768,
      "componentType": 5125,
      "count": 17268,
      "type": "SCALAR"
    },
    {
      "bufferView": 2,
      "byteOffset": 2628984,
      "componentType": 5126,
      "count": 12844,
      "max": [
        -170.8090057373047,
        -317.35699462890625,
        1751.925048828125
      ],
      "min": [
        -313.614013671875,
        -338.45098876953125,
        1673.0240478515625
      ],
      "type": "VEC3"
    },
    {
      "bufferView": 2,
      "byteOffset": 2783112,
      "componentType": 5126,
      "count": 12844,
      "max": [
        0.9997954964637756,
        0.9983751177787781,
        0.9981355667114258
      ],
      "min": [
        -0.9997956156730652,
        -0.9983751177787781,
        -0.9981355667114258
      ],
      "type": "VEC3"
    },
    {
      "bufferView": 1,
      "byteOffset": 876328,
      "componentType": 5126,
      "count": 12844,
      "max": [
        1.0,
        1.0
      ],
      "min": [
        0.0,
        0.0
      ],
      "type": "VEC2"
    },
    {
      "bufferView": 0,
      "byteOffset": 1920840,
      "componentType": 5125,
      "count": 43776,
      "type": "SCALAR"
    },
    {
      "bufferView": 2,
      "byteOffset": 2937240,
      "componentType": 5126,
      "count": 7748,
      "max": [
        -141.54800415039063,
        -343.91900634765625,
        1619.301025390625
      ],
      "min": [
        -328.0639953613281,
        -449.0989990234375,
        1422.2740478515625
      ],
      "type": "VEC3"
    },
    {
      "bufferView": 2,
      "byteOffset": 3030216,
      "componentType": 5126,
      "count": 7748,
      "max": [
        0.9997457265853882,
        0.9998485445976257,
        0.999817967414856
      ],
      "min": [
        -0.9998095035552979,
        -0.9996859431266785,
        -0.9999078512191772
      ],
      "type": "VEC3"
    },
    {
      "bufferView": 1,
      "byteOffset": 979080,
      "componentType": 5126,
      "count": 7748,
      "max": [
        0.7167500257492065,
        1.0
      ],
      "min": [
        0.0,
        0.0
      ],
      "type": "VEC2"
    },
    {
      "bufferView": 0,
      "byteOffset": 2095944,
      "componentType": 5125,
      "count": 41328,
      "type": "SCALAR"
    },
    {
      "bufferView": 2,
      "byteOffset": 3123192,
      "componentType": 5126,
      "count": 9871,
      "max": [
        -181.18099975585938,
        -6.083000183105469,
        1499.491943359375
      ],
      "min": [
        -484.1570129394531,
        -438.7149963378906,
        297.5360107421875
      ],
      "type": "VEC3"
    },
    {
      "bufferView": 2,
      "byteOffset": 3241644,
      "componentType": 5126,
      "count": 9871,
      "max": [
        0.9994826316833496,
        0.9999805688858032,
        0.9991216659545898
      ],
      "min": [
        -0.9998050928115845,
        -0.9999836683273315,
        -0.9991235733032227
      ],
      "type": "VEC3"
    },
    {
      "bufferView": 1,
      "byteOffset": 1041064,
      "componentType": 5126,
      "count": 9871,
      "max": [
        2.0974199771881104,
        2.0974199771881104
      ],
      "min": [
        -1.0974199771881104,
        -1.0974199771881104
      ],
      "type": "VEC2"
    },
    {
      "bufferView": 0,
      "byteOffset": 2261256,
      "componentType": 5125,
      "count": 49164,
      "type": "SCALAR"
    },
    {
      "bufferView": 2,
      "byteOffset": 3360096,
      "componentType": 5126,
      "count": 25820,
      "max": [
        -79.76799774169922,
        -7.271999835968018,
        1201.81396484375
      ],
      "min": [
        -397.0580139160156,
        -196.19900512695313,
        961.4719848632813
      ],
      "type": "VEC3"
    },
    {
      "bufferView": 2,
      "byteOffset": 3669936,
      "componentType": 5126,
      "count": 25820,
      "max": [
        0.999923825263977,
        0.999451220035553,
        0.9998719096183777
      ],
      "min": [
        -0.999923825263977,
        -0.999451220035553,
        -0.9998711943626404
      ],
      "type": "VEC3"
    },
    {
      "bufferView": 1,
      "byteOffset": 1120032,
      "componentType": 5126,
      "count": 25820,
      "max": [
        2.0974199771881104,
        2.0974199771881104
      ],
      "min": [
        -1.0974199771881104,
        -1.0974199771881104
      ],
      "type": "VEC2"
    },
    {
      "bufferView": 0,
      "byteOffset": 2457912,
      "componentType": 5125,
      "count": 103680,
      "type": "SCALAR"
    },
    {
      "bufferView": 2,
      "byteOffset": 3979776,
      "componentType": 5126,
      "count": 3825,
      "max": [
        34.03099822998047,
        -47.941001892089844,
        1117.0999755859375
      ],
      "min": [
        -203.01499938964844,
        -526.5819702148438,
        674.6290283203125
      ],
      "type": "VEC3"
    },
    {
      "bufferView": 2,
      "byteOffset": 4025676,
      "componentType": 5126,
      "count": 3825,
      "max": [
        0.998405933380127,
        0.9998707175254822,
        0.998948335647583
      ],
      "min": [
        -0.998405933380127,
        -0.9998614192008972,
        -0.998948335647583
      ],
      "type": "VEC3"
    },
    {
      "bufferView": 1,
      "byteOffset": 1326592,
      "componentType": 5126,
      "count": 3825,
      "max": [
        2.0974199771881104,
        2.0974199771881104
      ],
      "min": [
        -1.0974199771881104,
        -1.0974199771881104
      ],
      "type": "VEC2"
    },
    {
      "bufferView": 0,
      "byteOffset": 2872632,
      "componentType": 5125,
      "count": 17856,
      "type": "SCALAR"
    },
    {
      "bufferView": 2,
      "byteOffset": 4071576,
      "componentType": 5126,
      "count": 6180,
      "max": [
        101.2979965209961,
        243.45700073242188,
        1185.1080322265625
      ],
      "min": [
        -573.1950073242188,
        -402.6650085449219,
        954.8109741210938
      ],
      "type": "VEC3"
    },
    {
      "bufferView": 2,
      "byteOffset": 4145736,
      "componentType": 5126,
      "count": 6180,
      "max": [
        0.9893264770507813,
        0.9999884366989136,
        0.9999546408653259
      ],
      "min": [
        -0.9893278479576111,
        -0.9999884366989136,
        -0.9999532103538513
      ],
      "type": "VEC3"
    },
    {
      "bufferView": 1,
      "byteOffset": 1357192,
      "componentType": 5126,
      "count": 6180,
      "max": [
        0.9534299969673157,
        0.9997900128364563
      ],
      "min": [
        0.0002099999983329326,
        0.0002099999983329326
      ],
      "type": "VEC2"
    },
    {
      "bufferView": 0,
      "byteOffset": 2944056,
      "componentType": 5125,
      "count": 32256,
      "type": "SCALAR"
    },
    {
      "bufferView": 2,
      "byteOffset": 4219896,
      "componentType": 5126,
      "count": 5760,
      "max": [
        -158.85899353027344,
        -78.01100158691406,
        1311.5560302734375
      ],
      "min": [
        -312.80499267578125,
        -224.7310028076172,
        1150.843994140625
      ],
      "type": "VEC3"
    },
    {
      "bufferView": 2,
      "byteOffset": 4289016,
      "componentType": 5126,
      "count": 5760,
      "max": [
        0.9989417791366577,
        0.9994999766349792,
        0.9992338418960571
      ],
      "min": [
        -0.9989417791366577,
        -0.9994999766349792,
        -0.9992338418960571
      ],
      "type": "VEC3"
    },
    {
      "bufferView": 1,
      "byteOffset": 1406632,
      "componentType": 5126,
      "count": 5760,
      "max": [
        0.7167500257492065,
        0.7167500257492065
      ],
      "min": [
        0.28325000405311584,
        0.28325000405311584
      ],
      "type": "VEC2"
    },
    {
      "bufferView": 0,
      "byteOffset": 3073080,
      "componentType": 5125,
      "count": 23040,
      "type": "SCALAR"
    },
    {
      "bufferView": 2,
      "byteOffset": 4358136,
      "componentType": 5126,
      "count": 27360,
      "max": [
        -89.1510009765625,
        -129.2449951171875,
        1433.5770263671875
      ],
      "min": [
        -378.8840026855469,
        -343.0780029296875,
        1206.7320556640625
      ],
      "type": "VEC3"
    },
    {
      "bufferView": 2,
      "byteOffset": 4686456,
      "componentType": 5126,
      "count": 27360,
      "max": [
        0.9999762773513794,
        0.9998895525932312,
        0.9999756813049316
      ],
      "min": [
        -0.9999762773513794,
        -0.9998278617858887,
        -0.999973714351654
      ],
      "type": "VEC3"
    },
    {
      "bufferView": 1,
      "byteOffset": 1452712,
      "componentType": 5126,
      "count": 27360,
      "max": [
        0.7167500257492065,
        0.7167500257492065
      ],
      "min": [
        0.28325000405311584,
        0.28325000405311584
      ],
      "type": "VEC2"
    },
    {
      "bufferView": 0,
      "byteOffset": 3165240,
      "componentType": 5125,
      "count": 109440,
      "type": "SCALAR"
    },
    {
      "bufferView": 2,
      "byteOffset": 5014776,
      "componentType": 5126,
      "count": 9877,
      "max": [
        185.2519989013672,
        -41.3390007019043,
        1357.927978515625
      ],
      "min": [
        -259.95599365234375,
        -539.4559936523438,
        317.65301513671875
      ],
      "type": "VEC3"
    },
    {
      "bufferView": 2,
      "byteOffset": 5133300,
      "componentType": 5126,
      "count": 9877,
      "max": [
        1.0,
        0.9996548891067505,
        0.9999830722808838
      ],
      "min": [
        -1.0,
        -0.9996102452278137,
        -0.9999830722808838
      ],
      "type": "VEC3"
    },
    {
      "bufferView": 1,
      "byteOffset": 1671592,
      "componentType": 5126,
      "count": 9877,
      "max": [
        2.0974199771881104,
        2.0974199771881104
      ],
      "min": [
        -1.0974199771881104,
        -1.0974199771881104
      ],
      "type": "VEC2"
    },
    {
      "bufferView": 0,
      "byteOffset": 3603000,
      "componentType": 5125,
      "count": 45636,
      "type": "SCALAR"
    },
    {
      "bufferView": 2,
      "byteOffset": 5251824,
      "componentType": 5126,
      "count": 7434,
      "max": [
        80.78700256347656,
        -73.94999694824219,
        1356.7039794921875
      ],
      "min": [
        -598.0590209960938,
        -542.8140258789063,
        349.3190002441406
      ],
      "type": "VEC3"
    },
    {
      "bufferView": 2,
      "byteOffset": 5341032,
      "componentType": 5126,
      "count": 7434,
      "max": [
        0.9999105930328369,
        0.9999759197235107,
        0.9999392628669739
      ],
      "min": [
        -0.9999996423721313,
        -0.9999400973320007,
        -0.9999392628669739
      ],
      "type": "VEC3"
    },
    {
      "bufferView": 1,
      "byteOffset": 1750608,
      "componentType": 5126,
      "count": 7434,
      "max": [
        2.0974199771881104,
        2.0974199771881104
      ],
      "min": [
        -1.0974199771881104,
        -1.0974199771881104
      ],
      "type": "VEC2"
    },
    {
      "bufferView": 0,
      "byteOffset": 3785544,
      "componentType": 5125,
      "count": 35328,
      "type": "SCALAR"
    },
    {
      "bufferView": 2,
      "byteOffset": 5430240,
      "componentType": 5126,
      "count": 4786,
      "max": [
        -486.75799560546875,
        -77.5260009765625,
        1189.281982421875
      ],
      "min": [
        -646.6290283203125,
        -409.97601318359375,
        1019.6380004882813
      ],
      "type": "VEC3"
    },
    {
      "bufferView": 2,
      "byteOffset": 5487672,
      "componentType": 5126,
      "count": 4786,
      "max": [
        0.9999400973320007,
        0.9989784359931946,
        0.9886835217475891
      ],
      "min": [
        -0.9999400973320007,
        -0.9989784359931946,
        -0.9921876192092896
      ],
      "type": "VEC3"
    },
    {
      "bufferView": 1,
      "byteOffset": 1810080,
      "componentType": 5126,
      "count": 4786,
      "max": [
        2.0974199771881104,
        2.0974199771881104
      ],
      "min": [
        -1.0974199771881104,
        -1.0974199771881104
      ],
      "type": "VEC2"
    },
    {
      "bufferView": 0,
      "byteOffset": 3926856,
      "componentType": 5125,
      "count": 21828,
      "type": "SCALAR"
    },
    {
      "bufferView": 2,
      "byteOffset": 5545104,
      "componentType": 5126,
      "count": 3002,
      "max": [
        -114.41500091552734,
        -395.1600036621094,
        1495.02001953125
      ],
      "min": [
        -364.67999267578125,
        -459.9129943847656,
        1407.18701171875
      ],
      "type": "VEC3"
    },
    {
      "bufferView": 2,
      "byteOffset": 5581128,
      "componentType": 5126,
      "count": 3002,
      "max": [
        0.9999240636825562,
        0.9994597434997559,
        0.9999005794525146
      ],
      "min": [
        -0.9998477101325989,
        -0.9999176263809204,
        -0.9963194131851196
      ],
      "type": "VEC3"
    },
    {
      "bufferView": 1,
      "byteOffset": 1848368,
      "componentType": 5126,
      "count": 3002,
      "max": [
        2.071039915084839,
        2.2411201000213623
      ],
      "min": [
        -0.8566200137138367,
        -1.2411199808120728
      ],
      "type": "VEC2"
    },
    {
      "bufferView": 0,
      "byteOffset": 4014168,
      "componentType": 5125,
      "count": 16800,
      "type": "SCALAR"
    },
    {
      "bufferView": 2,
      "byteOffset": 5617152,
      "componentType": 5126,
      "count": 9581,
      "max": [
        -60.80699920654297,
        -2.0959999561309814,
        1539.5479736328125
      ],
      "min": [
        -641.02197265625,
        -499.9519958496094,
        955.9219970703125
      ],
      "type": "VEC3"
    },
    {
      "bufferView": 2,
      "byteOffset": 5732124,
      "componentType": 5126,
      "count": 9581,
      "max": [
        0.9999424815177917,
        0.9997302293777466,
        0.9999988079071045
      ],
      "min": [
        -0.9998740553855896,
        -0.9994387030601501,
        -0.9998617768287659
      ],
      "type": "VEC3"
    },
    {
      "bufferView": 1,
      "byteOffset": 1872384,
      "componentType": 5126,
      "count": 9581,
      "max": [
        2.1603200435638428,
        1.0855400562286377
      ],
      "min": [
        -1.011639952659607,
        -0.7635599970817566
      ],
      "type": "VEC2"
    },
    {
      "bufferView": 0,
      "byteOffset": 4081368,
      "componentType": 5125,
      "count": 52944,
      "type": "SCALAR"
    },
    {
      "bufferView": 2,
      "byteOffset": 5847096,
      "componentType": 5126,
      "count": 7905,
      "max": [
        -116.59700012207031,
        -249.0760040283203,
        1540.6400146484375
      ],
      "min": [
        -669.1019897460938,
        -496.4010009765625,
        1065.3599853515625
      ],
      "type": "VEC3"
    },
    {
      "bufferView": 2,
      "byteOffset": 5941956,
      "componentType": 5126,
      "count": 7905,
      "max": [
        0.9997256994247437,
        0.9998658299446106,
        0.9997330904006958
      ],
      "min": [
        -0.9995031952857971,
        -0.9999659657478333,
        -0.9994296431541443
      ],
      "type": "VEC3"
    },
    {
      "bufferView": 1,
      "byteOffset": 1949032,
      "componentType": 5126,
      "count": 7905,
      "max": [
        2.1603200435638428,
        1.0855400562286377
      ],
      "min": [
        -1.011639952659607,
        -0.7635599970817566
      ],
      "type": "VEC2"
    },
    {
      "bufferView": 0,
      "byteOffset": 4293144,
      "componentType": 5125,
      "count": 44112,
      "type": "SCALAR"
    },
    {
      "bufferView": 2,
      "byteOffset": 6036816,
      "componentType": 5126,
      "count": 9214,
      "max": [
        -82.27999877929688,
        -221.55999755859375,
        1680.8289794921875
      ],
      "min": [
        -393.1860046386719,
        -430.3210144042969,
        1508.906005859375
      ],
      "type": "VEC3"
    },
    {
      "bufferView": 2,
      "byteOffset": 6147384,
      "componentType": 5126,
      "count": 9214,
      "max": [
        0.9999977350234985,
        0.9998087882995605,
        0.9998975992202759
      ],
      "min": [
        -0.9998936057090759,
        -0.9998102188110352,
        -0.9999916553497314
      ],
      "type": "VEC3"
    },
    {
      "bufferView": 1,
      "byteOffset": 2012272,
      "componentType": 5126,
      "count": 9214,
      "max": [
        2.0980300903320313,
        3.0369200706481934
      ],
      "min": [
        -1.5069700479507446,
        -0.45361998677253723
      ],
      "type": "VEC2"
    },
    {
      "bufferView": 0,
      "byteOffset": 4469592,
      "componentType": 5125,
      "count": 52608,
      "type": "SCALAR"
    },
    {
      "bufferView": 2,
      "byteOffset": 6257952,
      "componentType": 5126,
      "count": 8208,
      "max": [
        -70.54000091552734,
        -69.58200073242188,
        1447.8819580078125
      ],
      "min": [
        -406.2860107421875,
        -363.3059997558594,
        1112.488037109375
      ],
      "type": "VEC3"
    },
    {
      "bufferView": 2,
      "byteOffset": 6356448,
      "componentType": 5126,
      "count": 8208,
      "max": [
        1.0,
        0.9999978542327881,
        0.9999380707740784
      ],
      "min": [
        -1.0,
        -0.9999343156814575,
        -0.9995034337043762
      ],
      "type": "VEC3"
    },
    {
      "bufferView": 1,
      "byteOffset": 2085984,
      "componentType": 5126,
      "count": 8208,
      "max": [
        2.793800115585327,
        2.0679500102996826
      ],
      "min": [
        -1.7937999963760376,
        -0.6633899807929993
      ],
      "type": "VEC2"
    },
    {
      "bufferView": 0,
      "byteOffset": 4680024,
      "componentType": 5125,
      "count": 47424,
      "type": "SCALAR"
    },
    {
      "bufferView": 2,
      "byteOffset": 6454944,
      "componentType": 5126,
      "count": 7640,
      "max": [
        191.9199981689453,
        -117.14800262451172,
        1367.2320556640625
      ],
      "min": [
        -142.3040008544922,
        -494.6830139160156,
        1083.0999755859375
      ],
      "type": "VEC3"
    },
    {
      "bufferView": 2,
      "byteOffset": 6546624,
      "componentType": 5126,
      "count": 7640,
      "max": [
        0.9997826218605042,
        0.9999322891235352,
        0.9995646476745605
      ],
      "min": [
        -0.9996994137763977,
        -0.999924898147583,
        -0.9995763301849365
      ],
      "type": "VEC3"
    },
    {
      "bufferView": 1,
      "byteOffset": 2151648,
      "componentType": 5126,
      "count": 7640,
      "max": [
        2.046570062637329,
        1.607509970664978
      ],
      "min": [
        -0.1327199935913086,
        -1.0465699434280396
      ],
      "type": "VEC2"
    },
    {
      "bufferView": 0,
      "byteOffset": 4869720,
      "componentType": 5125,
      "count": 43968,
      "type": "SCALAR"
    },
    {
      "bufferView": 2,
      "byteOffset": 6638304,
      "componentType": 5126,
      "count": 9898,
      "max": [
        118.09500122070313,
        -126.5009994506836,
        1134.156982421875
      ],
      "min": [
        -52.9379997253418,
        -536.60302734375,
        407.7309875488281
      ],
      "type": "VEC3"
    },
    {
      "bufferView": 2,
      "byteOffset": 6757080,
      "componentType": 5126,
      "count": 9898,
      "max": [
        0.999990701675415,
        0.9996691942214966,
        0.9999212026596069
      ],
      "min": [
        -0.9999710917472839,
        -0.9999739527702332,
        -0.9999361634254456
      ],
      "type": "VEC3"
    },
    {
      "bufferView": 1,
      "byteOffset": 2212768,
      "componentType": 5126,
      "count": 9898,
      "max": [
        1.7690600156784058,
        1.4759000539779663
      ],
      "min": [
        -0.7692300081253052,
        -0.09470000118017197
      ],
      "type": "VEC2"
    },
    {
      "bufferView": 0,
      "byteOffset": 5045592,
      "componentType": 5125,
      "count": 51264,
      "type": "SCALAR"
    },
    {
      "bufferView": 2,
      "byteOffset": 6875856,
      "componentType": 5126,
      "count": 9434,
      "max": [
        103.50900268554688,
        -30.367000579833984,
        1111.760986328125
      ],
      "min": [
        -474.7149963378906,
        -549.3709716796875,
        637.8790283203125
      ],
      "type": "VEC3"
    },
    {
      "bufferView": 2,
      "byteOffset": 6989064,
      "componentType": 5126,
      "count": 9434,
      "max": [
        0.9994926452636719,
        0.9998875260353088,
        0.9936836957931519
      ],
      "min": [
        -0.9998946785926819,
        -0.9998090267181396,
        -0.9933573603630066
      ],
      "type": "VEC3"
    },
    {
      "bufferView": 1,
      "byteOffset": 2291952,
      "componentType": 5126,
      "count": 9434,
      "max": [
        2.4380099773406982,
        1.0
      ],
      "min": [
        -1.4295200109481812,
        -1.1546299457550049
      ],
      "type": "VEC2"
    },
    {
      "bufferView": 0,
      "byteOffset": 5250648,
      "componentType": 5125,
      "count": 52704,
      "type": "SCALAR"
    },
    {
      "bufferView": 2,
      "byteOffset": 7102272,
      "componentType": 5126,
      "count": 7647,
      "max": [
        81.12100219726563,
        -64.8550033569336,
        1370.2099609375
      ],
      "min": [
        -627.3839721679688,
        -551.6220092773438,
        1052.26904296875
      ],
      "type": "VEC3"
    },
    {
      "bufferView": 2,
      "byteOffset": 7194036,
      "componentType": 5126,
      "count": 7647,
      "max": [
        0.9996834397315979,
        0.9980505704879761,
        0.9998578429222107
      ],
      "min": [
        -0.9999576210975647,
        -0.9995340704917908,
        -0.9993082284927368
      ],
      "type": "VEC3"
    },
    {
      "bufferView": 1,
      "byteOffset": 2367424,
      "componentType": 5126,
      "count": 7647,
      "max": [
        2.046570062637329,
        1.607509970664978
      ],
      "min": [
        -0.1327199935913086,
        -1.0465699434280396
      ],
      "type": "VEC2"
    },
    {
      "bufferView": 0,
      "byteOffset": 5461464,
      "componentType": 5125,
      "count": 43824,
      "type": "SCALAR"
    },
    {
      "bufferView": 2,
      "byteOffset": 7285800,
      "componentType": 5126,
      "count": 7651,
      "max": [
        -376.2409973144531,
        -159.1320037841797,
        1125.7259521484375
      ],
      "min": [
        -649.031982421875,
        -406.7929992675781,
        389.5260009765625
      ],
      "type": "VEC3"
    },
    {
      "bufferView": 2,
      "byteOffset": 7377612,
      "componentType": 5126,
      "count": 7651,
      "max": [
        0.9998316764831543,
        0.9999561905860901,
        0.9992386698722839
      ],
      "min": [
        -0.9999200105667114,
        -0.9998777508735657,
        -0.9993568062782288
      ],
      "type": "VEC3"
    },
    {
      "bufferView": 1,
      "byteOffset": 2428600,
      "componentType": 5126,
      "count": 7651,
      "max": [
        1.7690600156784058,
        1.4759000539779663
      ],
      "min": [
        -0.7692300081253052,
        -0.09470000118017197
      ],
      "type": "VEC2"
    },
    {
      "bufferView": 0,
      "byteOffset": 5636760,
      "componentType": 5125,
      "count": 39888,
      "type": "SCALAR"
    },
    {
      "bufferView": 2,
      "byteOffset": 7469424,
      "componentType": 5126,
      "count": 9070,
      "max": [
        192.6750030517578,
        -67.0510025024414,
        1343.14697265625
      ],
      "min": [
        -604.989013671875,
        -293.5169982910156,
        628.9979858398438
      ],
      "type": "VEC3"
    },
    {
      "bufferView": 2,
      "byteOffset": 7578264,
      "componentType": 5126,
      "count": 9070,
      "max": [
        0.9999632239341736,
        0.9999398589134216,
        0.9997954964637756
      ],
      "min": [
        -0.998776912689209,
        -0.9993988275527954,
        -0.9998266696929932
      ],
      "type": "VEC3"
    },
    {
      "bufferView": 1,
      "byteOffset": 2489808,
      "componentType": 5126,
      "count": 9070,
      "max": [
        2.4317500591278076,
        2.2703099250793457
      ],
      "min": [
        -1.0465699434280396,
        -1.0465699434280396
      ],
      "type": "VEC2"
    },
    {
      "bufferView": 0,
      "byteOffset": 5796312,
      "componentType": 5125,
      "count": 52032,
      "type": "SCALAR"
    },
    {
      "bufferView": 2,
      "byteOffset": 7687104,
      "componentType": 5126,
      "count": 2178,
      "max": [
        -545.3829956054688,
        -77.87200164794922,
        1197.0770263671875
      ],
      "min": [
        -626.7849731445313,
        -247.6699981689453,
        1094.5240478515625
      ],
      "type": "VEC3"
    },
    {
      "bufferView": 2,
      "byteOffset": 7713240,
      "componentType": 5126,
      "count": 2178,
      "max": [
        0.9993312954902649,
        0.9988886713981628,
        0.9872998595237732
      ],
      "min": [
        -0.9999629855155945,
        -0.969293475151062,
        -0.9877075552940369
      ],
      "type": "VEC3"
    },
    {
      "bufferView": 1,
      "byteOffset": 2562368,
      "componentType": 5126,
      "count": 2178,
      "max": [
        -0.1372700035572052,
        1.9168000221252441
      ],
      "min": [
        -1.0465699434280396,
        -1.0465699434280396
      ],
      "type": "VEC2"
    },
    {
      "bufferView": 0,
      "byteOffset": 6004440,
      "componentType": 5125,
      "count": 12480,
      "type": "SCALAR"
    },
    {
      "bufferView": 2,
      "byteOffset": 7739376,
      "componentType": 5126,
      "count": 5457,
      "max": [
        64.53399658203125,
        201.6540069580078,
        1579.47802734375
      ],
      "min": [
        -535.81298828125,
        -433.4849853515625,
        117.2040023803711
      ],
      "type": "VEC3"
    },
    {
      "bufferView": 2,
      "byteOffset": 7804860,
      "componentType": 5126,
      "count": 5457,
      "max": [
        0.9998813271522522,
        0.999921441078186,
        0.9999862909317017
      ],
      "min": [
        -0.9993396401405334,
        -0.9998995065689087,
        -0.9999830722808838
      ],
      "type": "VEC3"
    },
    {
      "bufferView": 1,
      "byteOffset": 2579792,
      "componentType": 5126,
      "count": 5457,
      "max": [
        1.1572599411010742,
        1.1563299894332886
      ],
      "min": [
        -0.157260000705719,
        -0.15818999707698822
      ],
      "type": "VEC2"
    },
    {
      "bufferView": 0,
      "byteOffset": 6054360,
      "componentType": 5125,
      "count": 20400,
      "type": "SCALAR"
    },
    {
      "bufferView": 2,
      "byteOffset": 7870344,
      "componentType": 5126,
      "count": 514,
      "max": [
        -176.60899353027344,
        -388.7969970703125,
        1579.5250244140625
      ],
      "min": [
        -298.489990234375,
        -409.07598876953125,
        1544.823974609375
      ],
      "type": "VEC3"
    },
    {
      "bufferView": 2,
      "byteOffset": 7876512,
      "componentType": 5126,
      "count": 514,
      "max": [
        0.9983853697776794,
        0.9998993873596191,
        0.9984514117240906
      ],
      "min": [
        -0.9986504912376404,
        -0.19656036794185638,
        -0.9918903708457947
      ],
      "type": "VEC3"
    },
    {
      "bufferView": 1,
      "byteOffset": 2623448,
      "componentType": 5126,
      "count": 514,
      "max": [
        1.1940900087356567,
        1.1929399967193604
      ],
      "min": [
        -0.19408999383449554,
        -0.18702000379562378
      ],
      "type": "VEC2"
    },
    {
      "bufferView": 0,
      "byteOffset": 6135960,
      "componentType": 5125,
      "count": 2880,
      "type": "SCALAR"
    }
  ],
  "asset": {
    "extras": {
      "author": "wertytwerty22 (https://sketchfab.com/wertytwerty22)",
      "license": "CC-BY-4.0 (http://creativecommons.org/licenses/by/4.0/)",
      "source": "https://sketchfab.com/3d-models/ballora-the-dance-of-damage-in-the-dark-95990b38706a4dee850681134bbdb6f0",
      "title": "Ballora: the dance of damage, in the dark"
    },
    "generator": "Sketchfab-15.97.0",
    "version": "2.0"
  },
  "bufferViews": [
    {
      "buffer": 0,
      "byteLength": 6147480,
      "name": "floatBufferViews",
      "target": 34963
    },
    {
      "buffer": 0,
      "byteLength": 2627560,
      "byteOffset": 6147480,
      "byteStride": 8,
      "name": "floatBufferViews",
      "target": 34962
    },
    {
      "buffer": 0,
      "byteLength": 7882680,
      "byteOffset": 8775040,
      "byteStride": 12,
      "name": "floatBufferViews",
      "target": 34962
    }
  ],
  "buffers": [
    {
      "byteLength": 16657720,
      "uri": "scene.bin"
    }
  ],
  "materials": [
    {
      "doubleSided": true,
      "name": "Blue.13_1",
      "pbrMetallicRoughness": {
        "baseColorFactor": [
          0.5159999999999998,
          0.6040000000000001,
          0.8669999999999998,
          1.0
        ],
        "metallicFactor": 0.0,
        "roughnessFactor": 0.0
      }
    },
    {
      "doubleSided": true,
      "name": "Gold",
      "pbrMetallicRoughness": {
        "baseColorFactor": [
          1.0,
          0.772,
          0.0,
          1.0
        ],
        "metallicFactor": 0.0,
        "roughnessFactor": 0.0
      }
    },
    {
      "doubleSided": true,
      "name": "Metal.32_21",
      "pbrMetallicRoughness": {
        "baseColorFactor": [
          0.0,
          0.0,
          0.0,
          1.0
        ],
        "metallicFactor": 0.0,
        "roughnessFactor": 0.0
      }
    },
    {
      "doubleSided": true,
      "name": "Pink",
      "pbrMetallicRoughness": {
        "baseColorFactor": [
          0.811,
          0.476,
          0.679,
          1.0
        ],
        "metallicFactor": 0.0
      }
    },
    {
      "doubleSided": true,
      "name": "Skin1.49_36",
      "pbrMetallicRoughness": {
        "baseColorFactor": [
          0.836,
          0.836,
          0.836,
          1.0
        ],
        "metallicFactor": 0.0,
        "roughnessFactor": 0.0
      }
    },
    {
      "doubleSided": true,
      "name": "Skin2_3",
      "pbrMetallicRoughness": {
        "baseColorFactor": [
          0.811,
          0.801,
          0.816,
          1.0
        ],
        "metallicFactor": 0.0,
        "roughnessFactor": 0.0
      }
    },
    {
      "doubleSided": true,
      "name": "Skirt",
      "pbrMetallicRoughness": {
        "baseColorFactor": [
          0.698,
          0.447,
          0.811,
          1.0
        ],
        "metallicFactor": 0.0,
        "roughnessFactor": 0.0
      }
    },
    {
      "name": "White.6_3",
      "pbrMetallicRoughness": {
        "baseColorFactor": [
          0.902,
          0.902,
          0.902,
          1.0
        ],
        "metallicFactor": 0.0,
        "roughnessFactor": 0.0
      }
    },
    {
      "doubleSided": true,
      "name": "eye.1",
      "pbrMetallicRoughness": {
        "baseColorFactor": [
          0.988,
          0.988,
          0.988,
          1.0
        ],
        "metallicFactor": 0.0
      }
    }
  ],
  "meshes": [
    {
      "name": "Object_0",
      "primitives": [
        {
          "attributes": {
            "NORMAL": 1,
            "POSITION": 0,
            "TEXCOORD_0": 2
          },
          "indices": 3,
          "material": 6,
          "mode": 4
        }
      ]
    },
    {
      "name": "Object_1",
      "primitives": [
        {
          "attributes": {
            "NORMAL": 5,
            "POSITION": 4,
            "TEXCOORD_0": 6
          },
          "indices": 7,
          "material": 0,
          "mode": 4
        }
      ]
    },
    {
      "name": "Object_2",
      "primitives": [
        {
          "attributes": {
            "NORMAL": 9,
            "POSITION": 8,
            "TEXCOORD_0": 10
          },
          "indices": 11,
          "material": 0,
          "mode": 4
        }
      ]
    },
    {
      "name": "Object_3",
      "primitives": [
        {
          "attributes": {
            "NORMAL": 13,
            "POSITION": 12,
            "TEXCOORD_0": 14
          },
          "indices": 15,
          "material": 0,
          "mode": 4
        }
      ]
    },
    {
      "name": "Object_4",
      "primitives": [
        {
          "attributes": {
            "NORMAL": 17,
            "POSITION": 16,
            "TEXCOORD_0": 18
          },
          "indices": 19,
          "material": 0,
          "mode": 4
        }
      ]
    },
    {
      "name": "Object_5",
      "primitives": [
        {
          "attributes": {
            "NORMAL": 21,
            "POSITION": 20,
            "TEXCOORD_0": 22
          },
          "indices": 23,
          "material": 1,
          "mode": 4
        }
      ]
    },
    {
      "name": "Object_6",
      "primitives": [
        {
          "attributes": {
            "NORMAL": 25,
            "POSITION": 24,
            "TEXCOORD_0": 26
          },
          "indices": 27,
          "material": 2,
          "mode": 4
        }
      ]
    },
    {
      "name": "Object_7",
      "primitives": [
        {
          "attributes": {
            "NORMAL": 29,
            "POSITION": 28,
            "TEXCOORD_0": 30
          },
          "indices": 31,
          "material": 2,
          "mode": 4
        }
      ]
    },
    {
      "name": "Object_8",
      "primitives": [
        {
          "attributes": {
            "NORMAL": 33,
            "POSITION": 32,
            "TEXCOORD_0": 34
          },
          "indices": 35,
          "material": 2,
          "mode": 4
        }
      ]
    },
    {
      "name": "Object_9",
      "primitives": [
        {
          "attributes": {
            "NORMAL": 37,
            "POSITION": 36,
            "TEXCOORD_0": 38
          },
          "indices": 39,
          "material": 2,
          "mode": 4
        }
      ]
    },
    {
      "name": "Object_10",
      "primitives": [
        {
          "attributes": {
            "NORMAL": 41,
            "POSITION": 40,
            "TEXCOORD_0": 42
          },
          "indices": 43,
          "material": 2,
          "mode": 4
        }
      ]
    },
    {
      "name": "Object_11",
      "primitives": [
        {
          "attributes": {
            "NORMAL": 45,
            "POSITION": 44,
            "TEXCOORD_0": 46
          },
          "indices": 47,
          "material": 2,
          "mode": 4
        }
      ]
    },
    {
      "name": "Object_12",
      "primitives": [
        {
          "attributes": {
            "NORMAL": 49,
            "POSITION": 48,
            "TEXCOORD_0": 50
          },
          "indices": 51,
          "material": 2,
          "mode": 4
        }
      ]
    },
    {
      "name": "Object_13",
      "primitives": [
        {
          "attributes": {
            "NORMAL": 53,
            "POSITION": 52,
            "TEXCOORD_0": 54
          },
          "indices": 55,
          "material": 2,
          "mode": 4
        }
      ]
    },
    {
      "name": "Object_14",
      "primitives": [
        {
          "attributes": {
            "NORMAL": 57,
            "POSITION": 56,
            "TEXCOORD_0": 58
          },
          "indices": 59,
          "material": 2,
          "mode": 4
        }
      ]
    },
    {
      "name": "Object_15",
      "primitives": [
        {
          "attributes": {
            "NORMAL": 61,
            "POSITION": 60,
            "TEXCOORD_0": 62
          },
          "indices": 63,
          "material": 2,
          "mode": 4
        }
      ]
    },
    {
      "name": "Object_16",
      "primitives": [
        {
          "attributes": {
            "NORMAL": 65,
            "POSITION": 64,
            "TEXCOORD_0": 66
          },
          "indices": 67,
          "material": 2,
          "mode": 4
        }
      ]
    },
    {
      "name": "Object_17",
      "primitives": [
        {
          "attributes": {
            "NORMAL": 69,
            "POSITION": 68,
            "TEXCOORD_0": 70
          },
          "indices": 71,
          "material": 2,
          "mode": 4
        }
      ]
    },
    {
      "name": "Object_18",
      "primitives": [
        {
          "attributes": {
            "NORMAL": 73,
            "POSITION": 72,
            "TEXCOORD_0": 74
          },
          "indices": 75,
          "material": 2,
          "mode": 4
        }
      ]
    },
    {
      "name": "Object_19",
      "primitives": [
        {
          "attributes": {
            "NORMAL": 77,
            "POSITION": 76,
            "TEXCOORD_0": 78
          },
          "indices": 79,
          "material": 2,
          "mode": 4
        }
      ]
    },
    {
      "name": "Object_20",
      "primitives": [
        {
          "attributes": {
            "NORMAL": 81,
            "POSITION": 80,
            "TEXCOORD_0": 82
          },
          "indices": 83,
          "material": 3,
          "mode": 4
        }
      ]
    },
    {
      "name": "Object_21",
      "primitives": [
        {
          "attributes": {
            "NORMAL": 85,
            "POSITION": 84,
            "TEXCOORD_0": 86
          },
          "indices": 87,
          "material": 4,
          "mode": 4
        }
      ]
    },
    {
      "name": "Object_22",
      "primitives": [
        {
          "attributes": {
            "NORMAL": 89,
            "POSITION": 88,
            "TEXCOORD_0": 90
          },
          "indices": 91,
          "material": 4,
          "mode": 4
        }
      ]
    },
    {
      "name": "Object_23",
      "primitives": [
        {
          "attributes": {
            "NORMAL": 93,
            "POSITION": 92,
            "TEXCOORD_0": 94
          },
          "indices": 95,
          "material": 4,
          "mode": 4
        }
      ]
    },
    {
      "name": "Object_24",
      "primitives": [
        {
          "attributes": {
            "NORMAL": 97,
            "POSITION": 96,
            "TEXCOORD_0": 98
          },
          "indices": 99,
          "material": 4,
          "mode": 4
        }
      ]
    },
    {
      "name": "Object_25",
      "primitives": [
        {
          "attributes": {
            "NORMAL": 101,
            "POSITION": 100,
            "TEXCOORD_0": 102
          },
          "indices": 103,
          "material": 4,
          "mode": 4
        }
      ]
    },
    {
      "name": "Object_26",
      "primitives": [
        {
          "attributes": {
            "NORMAL": 105,
            "POSITION": 104,
            "TEXCOORD_0": 106
          },
          "indices": 107,
          "material": 4,
          "mode": 4
        }
      ]
    },
    {
      "name": "Object_27",
      "primitives": [
        {
          "attributes": {
            "NORMAL": 109,
            "POSITION": 108,
            "TEXCOORD_0": 110
          },
          "indices": 111,
          "material": 4,
          "mode": 4
        }
      ]
    },
    {
      "name": "Object_28",
      "primitives": [
        {
          "attributes": {
            "NORMAL": 113,
            "POSITION": 112,
            "TEXCOORD_0": 114
          },
          "indices": 115,
          "material": 4,
          "mode": 4
        }
      ]
    },
    {
      "name": "Object_29",
      "primitives": [
        {
          "attributes": {
            "NORMAL": 117,
            "POSITION": 116,
            "TEXCOORD_0": 118
          },
          "indices": 119,
          "material": 4,
          "mode": 4
        }
      ]
    },
    {
      "name": "Object_30",
      "primitives": [
        {
          "attributes": {
            "NORMAL": 121,
            "POSITION": 120,
            "TEXCOORD_0": 122
          },
          "indices": 123,
          "material": 5,
          "mode": 4
        }
      ]
    },
    {
      "name": "Object_31",
      "primitives": [
        {
          "attributes": {
            "NORMAL": 125,
            "POSITION": 124,
            "TEXCOORD_0": 126
          },
          "indices": 127,
          "material": 5,
          "mode": 4
        }
      ]
    },
    {
      "name": "Object_32",
      "primitives": [
        {
          "attributes": {
            "NORMAL": 129,
            "POSITION": 128,
            "TEXCOORD_0": 130
          },
          "indices": 131,
          "material": 7,
          "mode": 4
        }
      ]
    },
    {
      "name": "Object_33",
      "primitives": [
        {
          "attributes": {
            "NORMAL": 133,
            "POSITION": 132,
            "TEXCOORD_0": 134
          },
          "indices": 135,
          "material": 8,
          "mode": 4
        }
      ]
    }
  ],
  "nodes": [
    {
      "children": [
        1
      ],
      "matrix": [
        1.0,
        0.0,
        0.0,
        0.0,
        0.0,
        2.220446049250313e-16,
        -1.0,
        0.0,
        0.0,
        1.0,
        2.220446049250313e-16,
        0.0,
        0.0,
        0.0,
        0.0,
        1.0
      ],
      "name": "Sketchfab_model"
    },
    {
      "children": [
        2,
        3,
        4,
        5,
        6,
        7,
        8,
        9,
        10,
        11,
        12,
        13,
        14,
        15,
        16,
        17,
        18,
        19,
        20,
        21,
        22,
        23,
        24,
        25,
        26,
        27,
        28,
        29,
        30,
        31,
        32,
        33,
        34,
        35
      ],
      "name": "Project Name.obj.cleaner.materialmerger.gles"
    },
    {
      "mesh": 0,
      "name": "Object_2"
    },
    {
      "mesh": 1,
      "name": "Object_3"
    },
    {
      "mesh": 2,
      "name": "Object_4"
    },
    {
      "mesh": 3,
      "name": "Object_5"
    },
    {
      "mesh": 4,
      "name": "Object_6"
    },
    {
      "mesh": 5,
      "name": "Object_7"
    },
    {
      "mesh": 6,
      "name": "Object_8"
    },
    {
      "mesh": 7,
      "name": "Object_9"
    },
    {
      "mesh": 8,
      "name": "Object_10"
    },
    {
      "mesh": 9,
      "name": "Object_11"
    },
    {
      "mesh": 10,
      "name": "Object_12"
    },
    {
      "mesh": 11,
      "name": "Object_13"
    },
    {
      "mesh": 12,
      "name": "Object_14"
    },
    {
      "mesh": 13,
      "name": "Object_15"
    },
    {
      "mesh": 14,
      "name": "Object_16"
    },
    {
      "mesh": 15,
      "name": "Object_17"
    },
    {
      "mesh": 16,
      "name": "Object_18"
    },
    {
      "mesh": 17,
      "name": "Object_19"
    },
    {
      "mesh": 18,
      "name": "Object_20"
    },
    {
      "mesh": 19,
      "name": "Object_21"
    },
    {
      "mesh": 20,
      "name": "Object_22"
    },
    {
      "mesh": 21,
      "name": "Object_23"
    },
    {
      "mesh": 22,
      "name": "Object_24"
    },
    {
      "mesh": 23,
      "name": "Object_25"
    },
    {
      "mesh": 24,
      "name": "Object_26"
    },
    {
      "mesh": 25,
      "name": "Object_27"
    },
    {
      "mesh": 26,
      "name": "Object_28"
    },
    {
      "mesh": 27,
      "name": "Object_29"
    },
    {
      "mesh": 28,
      "name": "Object_30"
    },
    {
      "mesh": 29,
      "name": "Object_31"
    },
    {
      "mesh": 30,
      "name": "Object_32"
    },
    {
      "mesh": 31,
      "name": "Object_33"
    },
    {
      "mesh": 32,
      "name": "Object_34"
    },
    {
      "mesh": 33,
      "name": "Object_35"
    }
  ],
  "scene": 0,
  "scenes": [
    {
      "name": "Sketchfab_Scene",
      "nodes": [
        0
      ]
    }
  ]
}
