# ProBuilder 5.2.2
# https://unity3d.com/unity/features/worldbuilding/probuilder
# 7/14/2024 10:42:52 AM

mtllib ./Surface-Ceramics.mtl
o Surface-Ceramics

g Surface-Ceramics
v 26.83061 -218.3434 2.8
v 28.63062 -218.4734 2.8
v 28.63062 -218.3434 2.8
v 26.83061 -218.4734 2.8
v 28.63062 -218.4734 0.8
v 28.63062 -218.3434 0.8
v 26.83061 -218.3434 0.8
v 26.83061 -218.4734 0.8
v 25.35061 -217.2734 3
v 25.35061 -218.4734 0
v 25.35061 -217.2734 0
v 25.35061 -218.4734 3
v 30.11062 -218.4734 3
v 30.11062 -217.2734 0
v 30.11062 -218.4734 0
v 30.11062 -217.2734 3
v 38.38062 -207.9434 5.77316E-15
v 38.38062 -207.8134 1.8
v 38.38062 -207.9434 1.8
v 38.38062 -207.8134 6.661338E-16
v 33.68062 -207.8134 2.1
v 36.03016 -207.8134 0.6
v 36.03016 -207.8134 2.1
v 33.68062 -207.8134 5.77316E-15
v 37.38062 -207.8134 1.776357E-15
v 36.93016 -207.8134 0.6
v 36.03016 -207.8134 0.605
v 36.93016 -207.8134 0.605
v 36.93016 -207.8134 2.1
v 37.38062 -207.8134 1.8
v 39.11061 -207.8134 3
v 39.11061 -207.8134 0
v 32.25562 -207.8134 2.8
v 32.88062 -207.8134 2.1
v 30.11062 -207.8134 3
v 30.65562 -207.8134 2.8
v 30.11062 -207.7809 3.000001
v 30.65562 -207.7809 0.8000001
v 30.65562 -207.7809 2.800001
v 30.11062 -207.7809 1.897735E-08
v 30.11062 -207.8136 -0.8319183
v 32.88062 -207.8136 -0.8319183
v 30.65562 -207.8136 -0.03191835
v 32.25562 -207.8136 -0.03191835
v 33.68062 -207.9434 5.77316E-15
v 33.68062 -207.9434 2.1
v 32.25562 -207.9434 2.8
v 30.65562 -207.9434 2.8
v 30.65563 -207.9437 1.981032
v 30.65563 -207.8137 -0.01896889
v 30.65563 -207.9437 -0.01896874
v 30.65563 -207.8137 1.981032
v 31.56118 -207.944 0.8000007
v 31.56118 -207.814 2.800003
v 31.56118 -207.944 2.800003
v 31.56118 -207.814 0.8000008
v 36.93016 -207.9434 2.1
v 36.03016 -207.9434 2.1
v 36.03016 -207.9434 0.6
v 36.93016 -207.9434 0.6
v 38.98062 -214.0934 1.95
v 39.11061 -214.8934 1.95
v 38.98062 -214.8934 1.95
v 39.11061 -214.0934 1.95
v 38.98062 -214.0934 2.55
v 39.11061 -214.0934 2.55
v 38.98062 -214.8934 2.55
v 39.11061 -214.8934 2.55
v 38.98062 -210.2934 1.95
v 39.11061 -211.0934 1.95
v 38.98062 -211.0934 1.95
v 39.11061 -210.2934 1.95
v 38.98062 -210.2934 2.55
v 39.11061 -210.2934 2.55
v 38.98062 -211.0934 2.55
v 39.11061 -211.0934 2.55
v 38.98062 -212.1934 1.95
v 39.11061 -212.9934 1.95
v 38.98062 -212.9934 1.95
v 39.11061 -212.1934 1.95
v 38.98062 -212.1934 2.55
v 39.11061 -212.1934 2.55
v 38.98062 -212.9934 2.55
v 39.11061 -212.9934 2.55
v 34.16062 -217.1434 0.8
v 34.16062 -217.2734 0.805
v 34.16062 -217.1434 0.805
v 34.16062 -217.2734 0.8
v 33.63562 -217.2734 0.805
v 33.63562 -217.2734 0.8
v 33.01062 -217.2734 5.77316E-15
v 35.23062 -217.2734 3.774758E-15
v 35.23062 -217.2734 2.55
v 33.01062 -217.2734 2.1
v 34.16062 -217.2734 2.8
v 33.63562 -217.2734 2.8
v 38.23062 -217.2734 2.55
v 31.48562 -217.2734 2.8
v 32.11061 -217.2734 2.1
v 31.48562 -217.2734 0.8
v 32.11061 -217.2734 5.77316E-15
v 39.11061 -217.2734 3
v 39.11061 -217.2734 0
v 38.23062 -217.2734 8.881784E-16
v 30.96062 -217.2734 2.8
v 30.96062 -217.2734 0.8
v 30.96062 -217.2734 0.805
v 31.48562 -217.2734 0.805
v 33.63562 -217.1434 0.805
v 33.63562 -217.1434 0.8
v 30.65562 -207.9434 0.8
v 30.65562 -207.8134 0.805
v 30.65562 -207.9434 0.805
v 30.65562 -207.8134 0.8
v 32.25562 -207.8134 0.8
v 32.25562 -207.9434 0.805
v 32.25562 -207.8134 0.805
v 32.25562 -207.9434 0.8
v 30.65562 -207.9436 -0.03191821
v 32.25562 -207.9436 -0.03191821
v 30.11062 -205.8134 0
v 30.11062 -207.8134 0
v 30.11062 -205.8134 3
v 21.28062 -207.3934 0.8
v 21.15062 -207.3934 0.805
v 21.15062 -207.3934 0.8
v 21.28062 -207.3934 0.805
v 21.15062 -209.1934 0.805
v 21.15062 -209.1934 0.8
v 21.15062 -205.8134 0
v 21.15062 -205.8134 3
v 21.15062 -207.3934 2.8
v 21.15062 -213.8934 2.8
v 21.15062 -217.2734 0
v 21.15062 -217.2734 3
v 21.15062 -215.6934 0.8
v 21.15062 -215.6934 2.8
v 21.15062 -213.8934 0.8
v 21.15062 -215.6934 0.805
v 21.15062 -213.8934 0.805
v 21.15062 -211.6434 1.05
v 21.15062 -209.1934 2.8
v 21.15062 -212.5434 1.05
v 21.15062 -212.5434 2.55
v 21.15062 -211.6434 2.55
v 21.15062 -212.5434 1.055
v 21.15062 -211.6434 1.055
v 21.28062 -209.1934 0.805
v 21.28062 -209.1934 0.8
v 21.28062 -211.6434 1.05
v 21.28062 -211.6434 1.055
v 21.28062 -212.5434 1.055
v 21.28062 -212.5434 1.05
v 39.11061 -211.0934 1.955
v 38.98062 -211.0934 1.955
v 39.11061 -210.2934 1.955
v 39.11061 -212.1934 1.955
v 39.11061 -212.9934 1.955
v 39.11061 -214.0934 1.955
v 39.11061 -214.8934 1.955
v 38.98062 -210.2934 1.955
v 31.48562 -217.1434 0.8
v 31.48562 -217.1434 0.805
v 30.96062 -217.1434 0.805
v 30.96062 -217.1434 0.8
v 26.58061 -205.9434 2.8
v 26.58061 -205.8134 0.55
v 26.58061 -205.9434 0.55
v 26.58061 -205.8134 2.8
v 28.78062 -205.9434 2.8
v 28.78062 -205.8134 2.8
v 28.78062 -205.9434 0.55
v 28.78062 -205.8134 0.55
v 38.98062 -214.8934 1.955
v 38.98062 -214.0934 1.955
v 38.98062 -212.9934 1.955
v 38.98062 -212.1934 1.955
v 38.23062 -217.1434 2.55
v 38.23062 -217.1434 0
v 35.23062 -217.1434 0
v 35.23062 -217.1434 2.55
v 32.11061 -217.1434 5.77316E-15
v 32.11061 -217.1434 2.1
v 33.01062 -217.2735 1.622369
v 32.11062 -217.1435 1.622369
v 32.11062 -217.2735 1.622369
v 33.01062 -217.1435 1.622369
v 33.01062 -217.1434 2.1
v 33.01062 -217.1434 5.77316E-15
v 30.96062 -217.1434 2.8
v 31.48562 -217.1434 2.8
v 33.63562 -217.1434 2.8
v 34.16062 -217.1434 2.8
v 21.28062 -211.6434 2.55
v 21.28062 -212.5434 2.55
v 21.28062 -207.3934 2.8
v 21.28062 -209.1934 2.8
v 21.28062 -213.8934 2.8
v 21.28062 -215.6934 2.8
v 21.28062 -215.6934 0.8
v 21.28062 -213.8934 0.8
v 36.93016 -207.9434 0.605
v 36.03016 -207.9434 0.605
v 32.88062 -207.8134 5.735808E-15
v 33.68062 -207.8134 0.005
v 32.88062 -207.8134 0.005
v 33.68062 -207.9434 0.005
v 32.88062 -207.9434 0.005
v 32.88062 -207.9434 5.751728E-15
v 26.83061 -218.4734 0.805
v 26.83061 -218.3434 0.805
v 28.63062 -218.4734 0.805
v 28.63062 -218.3434 0.805
v 21.28062 -213.8934 0.805
v 21.28062 -215.6934 0.805
v 28.78062 -205.8134 0.555
v 28.78062 -205.9434 0.555
v 26.58061 -205.8134 0.555
v 26.58061 -205.9434 0.555
v 34.40562 -208.8334 5.67979
v 34.40562 -208.8334 6.204789
v 34.40562 -210.8334 6.204789
v 34.40562 -210.8334 5.67979
v 34.40562 -208.8334 4.10479
v 34.40562 -210.8334 4.83273
v 34.85562 -210.8334 6.204789
v 34.85562 -210.8334 5.67979
v 34.85562 -210.8334 4.83273
v 34.85562 -208.8334 6.204789
v 34.85562 -208.8334 5.67979
v 34.85562 -208.8334 4.10479
v 34.50562 -208.9334 5.67979
v 34.75562 -208.9334 6.204789
v 34.75562 -208.9334 5.67979
v 34.50562 -208.9334 6.204789
v 34.75562 -210.7334 6.204789
v 34.75562 -210.7334 5.67979
v 34.50562 -210.7334 6.204789
v 34.50562 -210.7334 5.67979
v 30.65563 -207.781 -0.03191835
v 30.11063 -207.781 -0.8319187
v 31.56199 -207.8141 0.8000015
v 31.56199 -207.9441 0.8000014
v 31.56199 -207.8143 -0.03191804
v 31.56199 -207.9443 -0.03191789
v 32.25643 -207.9437 -0.03191774
v 32.25643 -207.8137 -0.03191788
v 32.25642 -207.8136 0.8000006
v 32.25642 -207.9436 0.8000007
v 31.76563 -207.8137 0.8000008
v 31.76563 -207.9437 0.8000008
v 31.76563 -207.8138 -0.03191804
v 31.76563 -207.9438 -0.03191789
v 31.76482 -207.8136 2.8
v 31.76482 -207.9436 2.8
v 31.76482 -207.9436 0.8000001
v 31.76482 -207.8136 0.8000001
v 30.65562 -207.8136 0.2353931
v 30.65562 -207.9436 0.2353932
v 30.65562 -207.9436 2.235394
v 31.57933 -207.9437 2.800002
v 31.57933 -207.8137 2.800002
v 31.57934 -207.9438 2.235395
v 31.57934 -207.8138 2.235395
v 30.65562 -207.8136 2.235394
v 31.57934 -207.944 1.981034
v 31.57934 -207.814 1.981034
v 32.88062 -207.8134 1.05
v 32.88062 -207.8784 2.1
v 32.88062 -207.9434 2.1
v 33.74197 -207.8137 3.329564E-07
v 33.74197 -207.8787 3.252075E-07
v 33.74197 -207.8787 1.050001
v 33.74197 -207.8137 1.050001
v 33.74197 -207.9437 3.174586E-07
v 33.74197 -207.9437 1.050001
v 32.88062 -207.9434 1.05
v 32.88062 -207.8784 1.05
v 32.88062 -207.8784 5.743768E-15
v 33.21152 -207.8786 1.05
v 33.21152 -207.8136 1.05
v 33.21152 -207.8136 1.740271E-07
v 33.21152 -207.8786 1.662782E-07
v 33.21152 -207.9436 1.585293E-07
v 33.21152 -207.9436 1.05
v 37.38062 -207.8784 1.8
v 37.38062 -207.9434 1.8
v 37.38062 -207.8134 0.9
v 38.40407 -207.8136 3.32973E-07
v 38.40407 -207.8786 3.252241E-07
v 38.40407 -207.8786 0.9000005
v 38.40407 -207.8136 0.9000005
v 38.40407 -207.9436 3.174752E-07
v 38.40407 -207.9436 0.9000005
v 37.38062 -207.9434 0.9
v 37.38062 -207.8784 0.9
v 37.38062 -207.8784 3.663736E-15
v 37.38062 -207.9434 5.551115E-15
v 31.67477 -207.8137 2.800001
v 31.67477 -207.9437 2.800001
v 31.67477 -207.9437 0.8000002
v 31.67477 -207.8137 0.8000003
v 31.76484 -207.7458 0.8000005
v 31.76484 -207.7458 2.800002
v 31.67479 -207.746 0.8000007
v 31.67479 -207.746 2.800003
v 31.67558 -207.8138 0.800001
v 31.67558 -207.9438 0.8000009
v 31.76565 -207.7461 -0.03191803
v 31.76564 -207.746 0.8000012
v 31.6756 -207.7462 -0.03191803
v 31.67559 -207.7461 0.8000014
v 31.67559 -207.944 -0.03191789
v 31.67559 -207.814 -0.03191804
v 31.61572 -207.8138 2.800002
v 31.61572 -207.9438 2.800002
v 31.61572 -207.9438 0.8000004
v 31.61572 -207.8138 0.8000005
v 31.61574 -207.7461 0.800001
v 31.61574 -207.7461 2.800003
v 31.61653 -207.814 0.8000013
v 31.61653 -207.944 0.8000011
v 31.61655 -207.7464 -0.03191803
v 31.61654 -207.7462 0.8000017
v 31.61654 -207.9441 -0.03191789
v 31.61654 -207.8141 -0.03191804
v 31.5612 -207.7462 0.8000012
v 31.5612 -207.7462 2.800004
v 31.56201 -207.7465 -0.03191803
v 31.562 -207.7464 0.8000019
v 31.45345 -207.9438 1.981033
v 31.45345 -207.9437 2.235394
v 30.65563 -207.7569 2.235394
v 30.65564 -207.7571 1.981033
v 31.45345 -207.7571 2.235395
v 31.45346 -207.7572 1.981034
v 30.65565 -207.814 1.619431
v 30.65565 -207.944 1.619431
v 31.45347 -207.8141 1.619432
v 31.45347 -207.9441 1.619432
v 31.45344 -207.9436 2.800001
v 31.45344 -207.8136 2.800001
v 30.65562 -207.7568 2.800001
v 31.45345 -207.7569 2.800002
v 31.57934 -207.7572 2.235396
v 31.57935 -207.7573 1.981034
v 31.57936 -207.8143 1.619433
v 31.57936 -207.9443 1.619433
v 31.57934 -207.7571 2.800002
v 30.65564 -207.8138 1.783365
v 30.65564 -207.9438 1.783365
v 31.45347 -207.7573 1.783366
v 30.65565 -207.7572 1.783365
v 31.45346 -207.944 1.783365
v 31.57936 -207.7575 1.783367
v 31.57935 -207.9441 1.783366
v 31.57935 -207.8141 1.783366
v 31.45348 -207.7575 1.619432
v 30.65565 -207.7573 1.619432
v 31.57937 -207.7576 1.619433
v 31.76483 -207.7765 0.8000003
v 31.76483 -207.7765 2.800001
v 31.56119 -207.7769 0.800001
v 31.61573 -207.7768 0.8000008
v 31.61573 -207.7768 2.800003
v 31.56119 -207.7769 2.800003
v 31.67478 -207.7766 0.8000005
v 31.67478 -207.7766 2.800002
v 31.76564 -207.7768 -0.03191803
v 31.76563 -207.7766 0.800001
v 31.562 -207.7772 -0.03191803
v 31.61654 -207.777 -0.03191803
v 31.61654 -207.7769 0.8000015
v 31.56199 -207.777 0.8000017
v 31.67559 -207.7769 -0.03191803
v 31.67559 -207.7768 0.8000013

vt -26.83061 -218.3434
vt -28.63062 -218.4734
vt -28.63062 -218.3434
vt -26.83061 -218.4734
vt 2.8 -218.3434
vt 0.8 -218.4734
vt 0.8 -218.3434
vt 2.8 -218.4734
vt -0.8 -218.3434
vt -2.8 -218.4734
vt -2.8 -218.3434
vt -0.8 -218.4734
vt 28.63062 -218.3434
vt 26.83061 -218.4734
vt 26.83061 -218.3434
vt 28.63062 -218.4734
vt 3 -217.2734
vt 0 -218.4734
vt 0 -217.2734
vt 3 -218.4734
vt -3 -218.4734
vt -3 -217.2734
vt 5.77316E-15 -207.9434
vt 1.8 -207.8134
vt 1.8 -207.9434
vt 6.661338E-16 -207.8134
vt -33.68062 2.1
vt -36.03016 0.6
vt -36.03016 2.1
vt -33.68062 5.77316E-15
vt -37.38062 1.776357E-15
vt -36.93016 0.6
vt -36.03016 0.605
vt -36.93016 0.605
vt -38.38062 1.8
vt -36.93016 2.1
vt -37.38062 1.8
vt -39.11061 3
vt -39.11061 0
vt -38.38062 6.661338E-16
vt -32.25562 2.8
vt -32.88062 2.1
vt -30.11062 3
vt -30.65562 2.8
vt -30.65562 0.8000001
vt -30.65562 2.800001
vt -30.11062 1.897735E-08
vt -30.11062 -0.8319183
vt -32.88062 -0.8319183
vt -30.65562 -0.03191835
vt -32.25562 -0.03191835
vt 2.1 -207.8134
vt 2.1 -207.9434
vt -32.25562 -207.9434
vt -30.65562 -207.8134
vt -30.65562 -207.9434
vt -32.25562 -207.8134
vt -1.981032 -207.9437
vt 0.01896889 -207.8137
vt 0.01896874 -207.9437
vt -1.981032 -207.8137
vt 0.8000007 -207.944
vt 2.800003 -207.814
vt 2.800003 -207.944
vt 0.8000008 -207.814
vt -36.93016 -207.9434
vt -36.03016 -207.8134
vt -36.03016 -207.9434
vt -36.93016 -207.8134
vt -2.1 -207.9434
vt -0.6 -207.8134
vt -0.6 -207.9434
vt -2.1 -207.8134
vt 36.03016 -207.9434
vt 36.93016 -207.8134
vt 36.93016 -207.9434
vt 36.03016 -207.8134
vt 0.6 -207.9434
vt 0.6 -207.8134
vt 38.98062 -214.0934
vt 39.11061 -214.8934
vt 38.98062 -214.8934
vt 39.11061 -214.0934
vt 38.98062 2.55
vt 39.11061 1.95
vt 38.98062 1.95
vt 39.11061 2.55
vt -38.98062 -214.8934
vt -39.11061 -214.0934
vt -38.98062 -214.0934
vt -39.11061 -214.8934
vt -38.98062 1.95
vt -39.11061 2.55
vt -38.98062 2.55
vt -39.11061 1.95
vt 38.98062 -210.2934
vt 39.11061 -211.0934
vt 38.98062 -211.0934
vt 39.11061 -210.2934
vt -38.98062 -211.0934
vt -39.11061 -210.2934
vt -38.98062 -210.2934
vt -39.11061 -211.0934
vt 38.98062 -212.1934
vt 39.11061 -212.9934
vt 38.98062 -212.9934
vt 39.11061 -212.1934
vt -38.98062 -212.9934
vt -39.11061 -212.1934
vt -38.98062 -212.1934
vt -39.11061 -212.9934
vt -0.8 -217.1434
vt -0.805 -217.2734
vt -0.805 -217.1434
vt -0.8 -217.2734
vt 34.16062 0.8
vt 33.63562 0.805
vt 34.16062 0.805
vt 33.63562 0.8
vt 33.01062 5.77316E-15
vt 35.23062 3.774758E-15
vt 35.23062 2.55
vt 33.01062 2.1
vt 34.16062 2.8
vt 33.63562 2.8
vt 38.23062 2.55
vt 31.48562 2.8
vt 32.11061 2.1
vt 31.48562 0.8
vt 32.11061 5.77316E-15
vt 30.11062 0
vt 39.11061 3
vt 39.11061 0
vt 38.23062 8.881784E-16
vt 30.11062 3
vt 30.96062 2.8
vt 30.96062 0.8
vt 30.96062 0.805
vt 31.48562 0.805
vt 0.8 -217.2734
vt 0.805 -217.1434
vt 0.805 -217.2734
vt 0.8 -217.1434
vt -33.63562 0.8
vt -34.16062 0.805
vt -33.63562 0.805
vt -34.16062 0.8
vt -34.16062 -217.1434
vt -33.63562 -217.2734
vt -34.16062 -217.2734
vt -33.63562 -217.1434
vt 34.16062 -217.1434
vt 33.63562 -217.2734
vt 33.63562 -217.1434
vt 34.16062 -217.2734
vt 0.8 -207.9434
vt 0.805 -207.8134
vt 0.805 -207.9434
vt 0.8 -207.8134
vt -0.8 -207.8134
vt -0.805 -207.9434
vt -0.805 -207.8134
vt -0.8 -207.9434
vt -30.65562 -207.9436
vt -32.25562 -207.8136
vt -30.65562 -207.8136
vt -32.25562 -207.9436
vt -3 -207.8134
vt 0 -205.8134
vt -3 -205.8134
vt -21.28062 0.8
vt -21.15062 0.805
vt -21.15062 0.8
vt -21.28062 0.805
vt 0.8 -207.3934
vt 0.805 -207.3934
vt 0.805 -209.1934
vt 0.8 -209.1934
vt 3 -205.8134
vt 2.8 -207.3934
vt 2.8 -213.8934
vt 0.8 -215.6934
vt 2.8 -215.6934
vt 0.8 -213.8934
vt 0.805 -215.6934
vt 0.805 -213.8934
vt 1.05 -211.6434
vt 2.8 -209.1934
vt 1.05 -212.5434
vt 2.55 -212.5434
vt 2.55 -211.6434
vt 1.055 -212.5434
vt 1.055 -211.6434
vt 21.15062 0.8
vt 21.28062 0.805
vt 21.28062 0.8
vt 21.15062 0.805
vt -0.8 -209.1934
vt -0.805 -207.3934
vt -0.8 -207.3934
vt -0.805 -209.1934
vt -21.28062 -207.3934
vt -21.15062 -209.1934
vt -21.28062 -209.1934
vt -21.15062 -207.3934
vt 21.28062 -207.3934
vt 21.15062 -209.1934
vt 21.15062 -207.3934
vt 21.28062 -209.1934
vt -21.28062 1.05
vt -21.15062 1.055
vt -21.15062 1.05
vt -21.28062 1.055
vt 21.15062 1.05
vt 21.28062 1.055
vt 21.28062 1.05
vt 21.15062 1.055
vt -1.05 -212.5434
vt -1.055 -211.6434
vt -1.05 -211.6434
vt -1.055 -212.5434
vt -21.28062 -211.6434
vt -21.15062 -212.5434
vt -21.28062 -212.5434
vt -21.15062 -211.6434
vt 21.28062 -211.6434
vt 21.15062 -212.5434
vt 21.15062 -211.6434
vt 21.28062 -212.5434
vt 39.11061 1.955
vt 38.98062 1.955
vt -1.95 -211.0934
vt -1.955 -211.0934
vt -1.955 -210.2934
vt -1.95 -210.2934
vt -1.95 -212.1934
vt -2.55 -212.1934
vt -2.55 -211.0934
vt -1.95 -212.9934
vt -1.955 -212.1934
vt -1.955 -212.9934
vt -2.55 -214.0934
vt -2.55 -212.9934
vt -1.95 -214.0934
vt -2.55 -214.8934
vt -1.95 -214.8934
vt -2.55 -210.2934
vt -1.955 -214.0934
vt -1.955 -214.8934
vt -38.98062 1.955
vt -39.11061 1.955
vt 1.95 -210.2934
vt 1.955 -211.0934
vt 1.95 -211.0934
vt 1.955 -210.2934
vt -30.96062 0.8
vt -31.48562 0.805
vt -30.96062 0.805
vt -31.48562 0.8
vt -31.48562 -217.1434
vt -30.96062 -217.2734
vt -31.48562 -217.2734
vt -30.96062 -217.1434
vt 31.48562 -217.1434
vt 30.96062 -217.2734
vt 30.96062 -217.1434
vt 31.48562 -217.2734
vt -2.8 -205.9434
vt -0.55 -205.8134
vt -0.55 -205.9434
vt -2.8 -205.8134
vt -28.78062 -205.9434
vt -26.58061 -205.8134
vt -26.58061 -205.9434
vt -28.78062 -205.8134
vt 0.55 -205.9434
vt 2.8 -205.8134
vt 2.8 -205.9434
vt 0.55 -205.8134
vt 26.58061 -205.9434
vt 28.78062 -205.8134
vt 28.78062 -205.9434
vt 26.58061 -205.8134
vt 1.95 -214.0934
vt 1.955 -214.8934
vt 1.95 -214.8934
vt 1.955 -214.0934
vt 21.15062 3
vt 25.35061 0
vt 21.15062 0
vt 25.35061 3
vt 1.95 -212.1934
vt 1.955 -212.9934
vt 1.95 -212.9934
vt 1.955 -212.1934
vt 2.55 -217.1434
vt 0 -217.1434
vt 2.55 -217.2734
vt -2.55 -217.2734
vt -2.55 -217.1434
vt -35.23062 -217.1434
vt -38.23062 -217.2734
vt -38.23062 -217.1434
vt -35.23062 -217.2734
vt -2.1 -217.2734
vt -2.1 -217.1434
vt -33.01062 -217.2735
vt -32.11062 -217.1435
vt -32.11062 -217.2735
vt -33.01062 -217.1435
vt 2.1 -217.1434
vt 2.1 -217.2734
vt -2.8 -217.2734
vt -2.8 -217.1434
vt 2.8 -217.1434
vt 2.8 -217.2734
vt 21.15062 2.55
vt 21.28062 2.55
vt -21.28062 2.55
vt -21.15062 2.55
vt -21.28062 2.8
vt -21.15062 2.8
vt 21.15062 2.8
vt 21.28062 2.8
vt -21.28062 -213.8934
vt -21.15062 -215.6934
vt -21.28062 -215.6934
vt -21.15062 -213.8934
vt 21.28062 -215.6934
vt 21.15062 -213.8934
vt 21.28062 -213.8934
vt 21.15062 -215.6934
vt -0.605 -207.8134
vt -0.605 -207.9434
vt 0.605 -207.9434
vt 0.605 -207.8134
vt 36.03016 0.6
vt 36.93016 0.605
vt 36.93016 0.6
vt 36.03016 0.605
vt -32.88062 5.735808E-15
vt -33.68062 0.005
vt -32.88062 0.005
vt -0.005 -207.9434
vt -0.005 -207.8134
vt 33.68062 5.751728E-15
vt 32.88062 0.005
vt 33.68062 0.005
vt 32.88062 5.751728E-15
vt 32.88062 -207.9434
vt 33.68062 -207.8134
vt 33.68062 -207.9434
vt 32.88062 -207.8134
vt 0.805 -218.4734
vt 0.805 -218.3434
vt 26.83061 0.8
vt 26.83061 0.805
vt 28.63062 0.805
vt 28.63062 0.8
vt 26.83061 2.8
vt 28.63062 2.8
vt -0.805 -218.3434
vt -0.805 -218.4734
vt -28.63062 0.8
vt -26.83061 0.805
vt -26.83061 0.8
vt -28.63062 0.805
vt -0.8 -215.6934
vt -0.805 -213.8934
vt -0.8 -213.8934
vt -0.805 -215.6934
vt -0.555 -205.8134
vt -0.555 -205.9434
vt -28.78062 0.55
vt -28.78062 0.555
vt -26.58061 0.555
vt -26.58061 0.55
vt -21.15062 0
vt -28.78062 2.8
vt -21.15062 3
vt -26.58061 2.8
vt 0.555 -205.9434
vt 0.555 -205.8134
vt 26.58061 0.55
vt 28.78062 0.555
vt 28.78062 0.55
vt 26.58061 0.555
vt 5.67979 -208.8334
vt 6.204789 -208.8334
vt 6.204789 -210.8334
vt 5.67979 -210.8334
vt 4.10479 -208.8334
vt 4.83273 -210.8334
vt 34.40562 5.67979
vt 34.40562 6.204789
vt 34.85562 6.204789
vt 34.85562 5.67979
vt 34.85562 4.83273
vt 34.40562 4.83273
vt -5.67979 -210.8334
vt -6.204789 -210.8334
vt -6.204789 -208.8334
vt -5.67979 -208.8334
vt -4.10479 -208.8334
vt -4.83273 -210.8334
vt -34.85562 5.67979
vt -34.85562 6.204789
vt -34.40562 6.204789
vt -34.40562 5.67979
vt -34.40562 4.10479
vt -34.85562 4.10479
vt 34.50562 5.67979
vt 34.75562 6.204789
vt 34.75562 5.67979
vt 34.50562 6.204789
vt 5.67979 -208.9334
vt 6.204789 -210.7334
vt 5.67979 -210.7334
vt 6.204789 -208.9334
vt -34.75562 5.67979
vt -34.50562 6.204789
vt -34.50562 5.67979
vt -34.75562 6.204789
vt -5.67979 -210.7334
vt -6.204789 -208.9334
vt -5.67979 -208.9334
vt -6.204789 -210.7334
vt -34.85562 -197.6432
vt -34.40562 -199.7715
vt -34.85562 -199.7715
vt -34.40562 -197.6432
vt 34.85562 -210.8334
vt 34.40562 -208.8334
vt 34.85562 -208.8334
vt 34.40562 -210.8334
vt 34.75562 -210.7334
vt 34.75562 -208.9334
vt 34.50562 -210.7334
vt 34.50562 -208.9334
vt -34.40562 -210.8334
vt -34.50562 -210.7334
vt -34.40562 -208.8334
vt -34.85562 -210.8334
vt -34.50562 -208.9334
vt -34.75562 -210.7334
vt -34.75562 -208.9334
vt -34.85562 -208.8334
vt 2.099487 -217.1434
vt 2.099487 -217.2734
vt 1.621856 -217.1435
vt 1.621856 -217.2735
vt 32.11061 2.051412
vt 33.01062 2.051412
vt 32.11062 1.57378
vt 33.01062 1.57378
vt -2.099473 -217.2734
vt -2.099473 -217.1434
vt -1.621841 -217.2735
vt -1.621841 -217.1435
vt -33.01062 2.051441
vt -32.11061 2.051441
vt -33.01062 1.573809
vt -32.11062 1.573809
vt 30.11062 -0.03430485
vt 32.88062 -0.03430485
vt 30.11062 -0.8662232
vt 32.88062 -0.8662232
vt -30.70597 0.7657022
vt -30.16097 -0.03429789
vt -30.70598 -0.06621627
vt -30.16098 -0.8662166
vt -32.8367 -0.0343064
vt -32.2117 0.7656935
vt -32.83671 -0.8662247
vt -32.21171 -0.06622475
vt 0.7997121 -207.8141
vt 0.7997119 -207.9441
vt -0.03220749 -207.8143
vt -0.03220734 -207.9443
vt 30.65562 -207.9436
vt 30.65562 -207.8136
vt 32.25643 -207.9437
vt 32.25643 -207.8137
vt 31.76563 -207.8137
vt 31.76563 -207.9437
vt -32.19828 -0.06622478
vt -32.19827 0.7656937
vt -31.70748 -0.06622495
vt -31.70748 0.7656939
vt 32.19823 0.7656723
vt 32.19824 -0.06624611
vt 31.70744 0.7656724
vt 31.70745 -0.06624626
vt -32.25643 -207.9437
vt -32.25643 -207.8137
vt -31.76563 -207.9438
vt -31.76563 -207.8138
vt 32.25561 -207.8134
vt 32.25561 -207.9434
vt 31.76482 -207.8136
vt 31.76482 -207.9436
vt 32.19743 2.8
vt 32.19743 0.8
vt 31.70663 2.8
vt 31.70663 0.8000001
vt -31.76482 -207.9436
vt -31.76482 -207.8136
vt -32.19746 0.8
vt -32.19746 2.8
vt -31.70667 0.8000001
vt -31.70667 2.8
vt 0.2349789 -207.8136
vt 0.234979 -207.9436
vt 0.8 -209.3237
vt 2.8 -209.3237
vt 0.2353932 -209.3239
vt 2.235394 -209.3239
vt -2.799575 -207.9437
vt -2.799575 -207.8137
vt -2.234968 -207.9438
vt -2.234968 -207.8138
vt -2.8 -209.1939
vt -0.8 -209.1939
vt -2.235394 -209.1941
vt -0.2353931 -209.1941
vt 0.2344736 -207.8136
vt 0.2344737 -207.9436
vt -0.01988838 -207.8137
vt -0.01988824 -207.9437
vt -0.01896874 -209.324
vt 1.981032 -209.324
vt -2.234448 -207.9438
vt -2.234448 -207.8138
vt -1.980086 -207.944
vt -1.980086 -207.814
vt -1.981032 -209.1942
vt 0.01896889 -209.1942
vt 3 -207.8064
vt 0 -207.8064
vt 3.000001 -207.7738
vt 1.897735E-08 -207.7738
vt 0.03213039 -207.8064
vt -0.7997879 -207.8062
vt 0.03213039 -207.7738
vt -0.7997881 -207.7737
vt -0.8321956 -207.8065
vt -0.8321959 -207.774
vt -16.2652 -207.8085
vt -17.2332 -207.8085
vt -16.2652 -207.776
vt -17.2332 -207.776
vt -2.8 -207.8062
vt -0.8000001 -207.7737
vt -2.800001 -207.7737
vt 27.81437 -207.8121
vt 27.23383 -207.8121
vt 27.81437 -207.7795
vt 27.23384 -207.7795
vt -32.25562 0.8
vt -32.88062 1.05
vt -32.88062 -207.8134
vt -32.88062 -207.8784
vt -32.88062 -207.9434
vt -33.68062 -207.9434
vt -33.68062 -207.8134
vt -3.329564E-07 -207.8137
vt -3.252075E-07 -207.8787
vt -1.050001 -207.8787
vt -1.050001 -207.8137
vt -3.174586E-07 -207.9437
vt -1.050001 -207.9437
vt -1.05 -207.9434
vt -2.1 -207.8784
vt -1.05 -207.8784
vt -1.05 -207.8134
vt 0.005 -207.8134
vt 0.005 -207.9434
vt 5.743768E-15 -207.8784
vt 32.88062 -207.8784
vt 33.21152 -207.8786
vt 33.21152 -207.8136
vt -32.96686 1.05
vt -32.96686 5.77316E-15
vt -33.29776 1.05
vt -33.29776 1.740271E-07
vt -33.21152 -207.8136
vt -33.21152 -207.8786
vt -33.21152 -207.9436
vt 33.21152 -207.9436
vt 32.96691 5.77316E-15
vt 32.96691 1.05
vt 33.29781 1.585293E-07
vt 33.29781 1.05
vt 33.74197 -207.9437
vt 33.74197 -207.8787
vt -33.74197 -207.8787
vt -33.74197 -207.9437
vt 33.26535 1.585293E-07
vt 33.26535 1.05
vt 33.7958 3.174586E-07
vt 33.7958 1.050001
vt 33.74197 -207.8137
vt -33.26532 1.05
vt -33.26532 1.740271E-07
vt -33.79577 1.050001
vt -33.79577 3.329564E-07
vt -33.74197 -207.8137
vt -37.38062 -207.8134
vt -37.38062 -207.8784
vt -37.38062 -207.9434
vt -38.38062 -207.9434
vt -38.38062 -207.8134
vt -37.38062 0.9
vt -0.9000005 -207.8786
vt -0.9000005 -207.8136
vt -0.9000005 -207.9436
vt -0.9 -207.9434
vt -1.8 -207.9434
vt -1.8 -207.8784
vt -0.9 -207.8784
vt -1.8 -207.8134
vt -0.9 -207.8134
vt -38.40407 -207.8136
vt -38.40407 -207.8786
vt -37.4054 0.9
vt -37.4054 1.776357E-15
vt -38.42886 0.9000005
vt -38.42886 3.32973E-07
vt 37.40542 5.551115E-15
vt 37.40542 0.9
vt 38.42887 3.174752E-07
vt 38.42887 0.9000005
vt 37.38062 -207.8784
vt 37.38062 -207.8134
vt 38.40407 -207.8786
vt 38.40407 -207.8136
vt -38.40407 -207.9436
vt 37.38062 -207.9434
vt 38.40407 -207.9436
vt 31.67475 -207.8137
vt 31.67475 -207.9437
vt 31.44766 2.8
vt 31.44766 0.8000001
vt 31.35761 2.800001
vt 31.35761 0.8000002
vt -31.67477 -207.9437
vt -31.67477 -207.8137
vt -31.44798 0.8000005
vt -31.44798 2.800002
vt -31.35793 0.8000007
vt -31.35793 2.800003
vt 31.67558 -207.8138
vt 31.67558 -207.9438
vt -31.44879 -0.06622255
vt -31.44878 0.7656967
vt -31.35874 -0.06622255
vt -31.35873 0.7656969
vt 31.44846 0.7656636
vt 31.44847 -0.06625508
vt 31.35841 0.7656637
vt 31.35842 -0.06625508
vt -31.67559 -207.944
vt -31.67559 -207.814
vt 31.61569 -207.8138
vt 31.61569 -207.9438
vt 31.19108 2.800001
vt 31.19108 0.8000002
vt 31.13203 2.800002
vt 31.13203 0.8000004
vt -31.61572 -207.9438
vt -31.61572 -207.8138
vt -31.19156 0.8000007
vt -31.19156 2.800003
vt -31.13251 0.800001
vt -31.13251 2.800003
vt 31.61653 -207.814
vt 31.61653 -207.944
vt -31.19237 -0.06622814
vt -31.19236 0.7656913
vt -31.13332 -0.06622814
vt -31.13331 0.7656916
vt 31.19189 0.7656581
vt 31.1919 -0.06626069
vt 31.13284 0.7656584
vt 31.13285 -0.06626069
vt -31.61654 -207.9441
vt -31.61654 -207.8141
vt 31.56114 -207.814
vt 31.56114 -207.944
vt 31.09208 2.800002
vt 31.09208 0.8000004
vt 31.03753 2.800003
vt 31.03753 0.8000007
vt -31.56118 -207.944
vt -31.56118 -207.814
vt -31.09259 0.800001
vt -31.09259 2.800003
vt -31.03804 0.8000012
vt -31.03804 2.800004
vt 31.56198 -207.8141
vt 31.56198 -207.9441
vt -31.0934 -0.06622948
vt -31.09339 0.7656903
vt -31.03886 -0.06622948
vt -31.03885 0.7656905
vt 31.09288 0.7656571
vt 31.09289 -0.06626201
vt 31.03834 0.7656573
vt 31.03834 -0.06626201
vt -31.56199 -207.9443
vt -31.56199 -207.8143
vt 30.69143 1.868768
vt 30.69142 2.123129
vt 31.48925 1.868768
vt 31.48924 2.12313
vt -30.69139 2.123231
vt -30.6914 1.868869
vt -31.48922 2.123231
vt -31.48922 1.86887
vt -31.45347 -207.8141
vt -31.45347 -207.9441
vt 30.65562 -207.9434
vt 30.65562 -207.8134
vt 31.45344 -207.9436
vt 31.45344 -207.8136
vt 30.69142 2.184818
vt 30.69141 2.749424
vt 31.48924 2.184818
vt 31.48923 2.749425
vt -30.69139 2.74947
vt -30.69139 2.184864
vt -31.48921 2.749471
vt -31.48922 2.184864
vt 31.68028 1.86879
vt 31.68027 2.123151
vt 31.80617 1.868791
vt 31.80616 2.123152
vt -31.68007 2.123253
vt -31.68008 1.868891
vt -31.80596 2.123254
vt -31.80597 1.868892
vt -31.57937 -207.8143
vt -31.57937 -207.9443
vt 31.57934 -207.9437
vt 31.57934 -207.8137
vt 31.68027 2.184828
vt 31.68026 2.749434
vt 31.80616 2.184829
vt 31.80615 2.749435
vt -31.68007 2.74948
vt -31.68007 2.184874
vt -31.80595 2.749481
vt -31.80596 2.184875
vt 1.979849 -207.8137
vt 1.979849 -207.9437
vt 1.782182 -207.8138
vt 1.782182 -207.9438
vt -31.48922 1.8367
vt -30.6914 1.836699
vt -31.48923 1.639032
vt -30.69141 1.639031
vt 30.69143 1.836569
vt 31.48925 1.836569
vt 30.69143 1.638901
vt 31.48926 1.638902
vt -31.80597 1.836728
vt -31.68008 1.836727
vt -31.80598 1.63906
vt -31.68009 1.63906
vt 31.68028 1.836597
vt 31.80617 1.836597
vt 31.68029 1.638929
vt 31.80618 1.63893
vt -1.979815 -207.944
vt -1.979815 -207.814
vt -1.782147 -207.9441
vt -1.782147 -207.8141
vt 1.781938 -207.8138
vt 1.781938 -207.9438
vt 1.618005 -207.814
vt 1.618005 -207.944
vt -31.48923 1.609331
vt -30.69141 1.60933
vt -31.48924 1.445397
vt -30.69142 1.445396
vt 30.69143 1.609173
vt 31.48926 1.609174
vt 30.69144 1.44524
vt 31.48926 1.44524
vt -31.80598 1.609365
vt -31.68009 1.609364
vt -31.80599 1.445431
vt -31.6801 1.445431
vt 31.68029 1.609207
vt 31.80618 1.609208
vt 31.68029 1.445274
vt 31.80618 1.445274
vt -1.781896 -207.9441
vt -1.781896 -207.8141
vt -1.617963 -207.9443
vt -1.617963 -207.8143
vt -1.980084 -207.8097
vt -2.234446 -207.8096
vt -1.980085 -207.7531
vt -2.234447 -207.7529
vt -31.45349 -207.7575
vt -31.57937 -207.7576
vt 1.781935 -207.8097
vt 1.618001 -207.8098
vt 1.781935 -207.7531
vt 1.618002 -207.7532
vt -30.65566 -207.7573
vt -1.617959 -207.81
vt -1.781893 -207.8099
vt -1.61796 -207.7534
vt -1.781893 -207.7532
vt 1.979846 -207.8096
vt 1.782179 -207.8097
vt 1.979847 -207.7529
vt 1.782179 -207.7531
vt -1.782144 -207.8099
vt -1.979812 -207.8097
vt -1.782145 -207.7532
vt -1.979813 -207.7531
vt -2.234967 -207.8096
vt -2.799574 -207.8094
vt -2.234968 -207.7529
vt -2.799575 -207.7528
vt 2.234472 -207.8094
vt 1.980111 -207.8096
vt 2.234473 -207.7528
vt 1.980111 -207.7529
vt 31.57935 -207.757
vt 31.45346 -207.7569
vt 2.799585 -207.8093
vt 2.234978 -207.8094
vt 2.799585 -207.7527
vt 2.234979 -207.7528
vt 30.65563 -207.7568
vt -0.8000001 -207.807
vt -2.8 -207.807
vt -0.8000003 -207.77
vt -2.800001 -207.77
vt -31.56118 -207.7769
vt -31.61573 -207.7768
vt 31.6157 -207.7767
vt 31.56115 -207.7768
vt 2.800003 -207.8075
vt 0.8000008 -207.8075
vt 2.800003 -207.7704
vt 0.800001 -207.7704
vt -31.67478 -207.7766
vt 31.67475 -207.7766
vt -31.76483 -207.7765
vt 31.76481 -207.7764
vt 0.03221044 -207.8073
vt -0.7997084 -207.8072
vt 0.03221043 -207.7702
vt -0.7997086 -207.7701
vt -31.562 -207.7772
vt -31.61654 -207.777
vt 31.61653 -207.7769
vt 31.56199 -207.777
vt 0.799711 -207.8076
vt -0.03220856 -207.8078
vt 0.7997112 -207.7705
vt -0.03220855 -207.7707
vt -31.67559 -207.7769
vt 31.67558 -207.7768
vt -31.76564 -207.7768
vt 31.76563 -207.7766
vt -0.8000003 -207.7686
vt -2.800001 -207.7686
vt -0.8000005 -207.7379
vt -2.800002 -207.7379
vt -31.56119 -207.7462
vt -31.61574 -207.7461
vt 31.6157 -207.746
vt 31.56116 -207.7462
vt 2.800003 -207.769
vt 0.800001 -207.769
vt 2.800004 -207.7384
vt 0.8000012 -207.7384
vt -31.67479 -207.746
vt 31.67476 -207.7459
vt -31.76484 -207.7458
vt 31.76481 -207.7458
vt 0.03221066 -207.7689
vt -0.7997084 -207.7687
vt 0.03221065 -207.7382
vt -0.7997086 -207.7381
vt -31.56201 -207.7465
vt -31.61655 -207.7464
vt 31.61654 -207.7462
vt 31.562 -207.7464
vt 0.799711 -207.7692
vt -0.03220878 -207.7693
vt 0.7997112 -207.7385
vt -0.03220878 -207.7387
vt -31.6756 -207.7462
vt 31.67559 -207.7461
vt -31.76565 -207.7461
vt 31.76564 -207.746

vn 0 0 -1
vn -1 0 0
vn 1 0 0
vn 0 1 0
vn 0 -1 0
vn 0 0 1
vn 0 -0.34202 -0.9396927
vn 0.0002423097 0.9999999 -0.0001650735
vn 0.0002798105 -0.9999999 0.0001650778
vn -0.9984604 -0.05547002 0
vn 0.9984604 0.05547002 0
vn 0.8264467 -0.0001999152 -0.563015
vn 0.3445078 -0.0001013874 0.9387835
vn 0.001525066 -0.9999989 0
vn -0.001525067 0.9999989 0
vn 0.00232565 -0.9999973 0
vn -0.002325651 0.9999973 0
vn 0.002517739 -0.9999968 0
vn -0.002517739 0.9999968 0
vn -0.0001721303 -0.9999999 0.0005398924
vn 0.0001721302 0.9999999 -0.0005398921
vn -0.001090878 -0.9999993 0.0005398645
vn 0.001090878 0.9999993 -0.0005398642
vn -0.001090877 -0.9999994 0.0002432149
vn 0.001090877 0.9999994 -0.0002432149
vn 0.9999999 -0.00024888 0
vn -0.9999999 0.00024888 0

usemtl Surface-Ceramics
f 30/37/4 29/36/4 18/35/4
f 34/42/4 33/41/4 21/27/4
f 36/44/4 35/43/4 33/41/4
f 88/116/5 90/119/5 91/120/5
f 88/116/5 91/120/5 92/121/5
f 97/126/5 95/124/5 93/122/5
f 88/150/1 90/149/1 85/148/1
f 90/149/1 110/151/4 85/148/1
f 43/166/1 44/165/1 119/164/1
f 44/165/1 120/167/1 119/164/1
f 133/181/2 131/179/2 132/180/2
f 136/182/2 129/178/2 134/19/2
f 72/235/3 64/244/3 32/26/3
f 100/262/1 106/261/1 162/260/1
f 106/261/1 165/263/4 162/260/1
f 100/267/6 162/264/6 106/265/6
f 162/264/1 165/266/4 106/265/1
f 88/155/6 85/152/6 90/153/6
f 85/152/1 110/154/4 90/153/1
f 268/560/4 204/341/4 115/559/4
f 34/42/4 268/560/4 115/559/4
f 34/42/4 115/559/4 33/41/4
f 269/562/1 34/561/1 21/565/1
f 46/564/1 269/562/1 21/565/1
f 46/564/1 270/563/1 269/562/1
f 279/578/2 209/23/2 208/577/2
f 206/576/2 279/578/2 208/577/2
f 204/26/2 279/578/2 206/576/2
f 279/562/1 204/561/1 24/565/1
f 45/564/1 279/562/1 24/565/1
f 45/564/1 209/563/1 279/562/1
f 286/609/1 30/608/1 18/612/1
f 19/611/1 286/609/1 18/612/1
f 19/611/1 287/610/1 286/609/1
f 288/613/4 25/31/4 26/32/4
f 29/36/4 288/613/4 26/32/4
f 29/36/4 30/37/4 288/613/4
f 1/1/1 3/3/1 2/2/1
f 2/2/1 4/4/1 1/1/1
f 3/5/2 6/7/2 5/6/2
f 5/6/2 2/8/2 3/5/2
f 7/9/3 1/11/3 4/10/3
f 4/10/3 8/12/3 7/9/3
f 6/13/4 7/15/4 8/14/4
f 8/14/4 5/16/4 6/13/4
f 9/17/2 11/19/2 10/18/2
f 10/18/2 12/20/2 9/17/2
f 13/21/3 15/18/3 14/19/3
f 14/19/3 16/22/3 13/21/3
f 17/23/2 19/25/2 18/24/2
f 18/24/2 20/26/2 17/23/2
f 21/27/4 23/29/4 22/28/4
f 22/28/4 24/30/4 21/27/4
f 26/32/4 25/31/4 24/30/4
f 24/30/4 22/28/4 26/32/4
f 26/32/4 22/28/4 27/33/4
f 27/33/4 28/34/4 26/32/4
f 29/36/4 21/27/4 31/38/4
f 31/38/4 18/35/4 29/36/4
f 18/35/4 31/38/4 32/39/4
f 32/39/4 20/40/4 18/35/4
f 35/43/4 31/38/4 21/27/4
f 21/27/4 33/41/4 35/43/4
f 37/43/4 39/46/4 38/45/4
f 38/45/4 40/47/4 37/43/4
f 44/51/4 42/49/4 41/48/4
f 41/48/4 43/50/4 44/51/4
f 45/23/2 46/53/2 21/52/2
f 21/52/2 24/26/2 45/23/2
f 47/54/1 48/56/1 36/55/1
f 36/55/1 33/57/1 47/54/1
f 49/58/3 51/60/3 50/59/3
f 50/59/3 52/61/3 49/58/3
f 53/62/2 55/64/2 54/63/2
f 54/63/2 56/65/2 53/62/2
f 57/66/1 58/68/1 23/67/1
f 23/67/1 29/69/1 57/66/1
f 58/70/3 59/72/3 22/71/3
f 22/71/3 23/73/3 58/70/3
f 59/74/4 60/76/4 26/75/4
f 26/75/4 22/77/4 59/74/4
f 60/78/2 57/53/2 29/52/2
f 29/52/2 26/79/2 60/78/2
f 61/80/4 63/82/4 62/81/4
f 62/81/4 64/83/4 61/80/4
f 65/84/5 61/86/5 64/85/5
f 64/85/5 66/87/5 65/84/5
f 67/88/1 65/90/1 66/89/1
f 66/89/1 68/91/1 67/88/1
f 63/92/4 67/94/4 68/93/4
f 68/93/4 62/95/4 63/92/4
f 69/96/4 71/98/4 70/97/4
f 70/97/4 72/99/4 69/96/4
f 73/84/5 69/86/5 72/85/5
f 72/85/5 74/87/5 73/84/5
f 75/100/1 73/102/1 74/101/1
f 74/101/1 76/103/1 75/100/1
f 71/92/4 75/94/4 76/93/4
f 76/93/4 70/95/4 71/92/4
f 77/104/4 79/106/4 78/105/4
f 78/105/4 80/107/4 77/104/4
f 81/84/5 77/86/5 80/85/5
f 80/85/5 82/87/5 81/84/5
f 83/108/1 81/110/1 82/109/1
f 82/109/1 84/111/1 83/108/1
f 79/92/4 83/94/4 84/93/4
f 84/93/4 78/95/4 79/92/4
f 85/112/3 87/114/3 86/113/3
f 86/113/3 88/115/3 85/112/3
f 88/116/5 86/118/5 89/117/5
f 89/117/5 90/119/5 88/116/5
f 95/124/5 88/116/5 92/121/5
f 92/121/5 93/122/5 95/124/5
f 96/125/5 94/123/5 91/120/5
f 91/120/5 90/119/5 96/125/5
f 99/128/5 94/123/5 96/125/5
f 96/125/5 98/127/5 99/128/5
f 99/128/5 98/127/5 100/129/5
f 100/129/5 101/130/5 99/128/5
f 106/137/5 14/131/5 101/130/5
f 101/130/5 100/129/5 106/137/5
f 97/126/5 102/132/5 96/125/5
f 96/125/5 95/124/5 97/126/5
f 103/133/5 102/132/5 97/126/5
f 97/126/5 104/134/5 103/133/5
f 96/125/5 102/132/5 16/135/5
f 16/135/5 105/136/5 96/125/5
f 106/137/5 105/136/5 16/135/5
f 16/135/5 14/131/5 106/137/5
f 107/138/5 106/137/5 100/129/5
f 100/129/5 108/139/5 107/138/5
f 90/140/2 89/142/2 109/141/2
f 109/141/2 110/143/2 90/140/2
f 110/144/4 109/146/4 87/145/4
f 87/145/4 85/147/4 110/144/4
f 87/152/6 109/154/6 89/153/6
f 89/153/6 86/155/6 87/152/6
f 111/156/2 113/158/2 112/157/2
f 112/157/2 114/159/2 111/156/2
f 115/160/3 117/162/3 116/161/3
f 116/161/3 118/163/3 115/160/3
f 35/168/3 122/26/3 121/169/3
f 121/169/3 123/170/3 35/168/3
f 124/171/4 126/173/4 125/172/4
f 125/172/4 127/174/4 124/171/4
f 128/177/2 125/176/2 126/175/2
f 126/175/2 129/178/2 128/177/2
f 129/178/2 126/175/2 130/169/2
f 130/169/2 134/19/2 129/178/2
f 132/180/2 131/179/2 130/169/2
f 130/169/2 126/175/2 132/180/2
f 135/17/2 131/179/2 133/181/2
f 133/181/2 137/183/2 135/17/2
f 137/183/2 136/182/2 134/19/2
f 134/19/2 135/17/2 137/183/2
f 138/184/2 136/182/2 139/185/2
f 139/185/2 140/186/2 138/184/2
f 141/187/2 129/178/2 138/184/2
f 138/184/2 143/189/2 141/187/2
f 142/188/2 129/178/2 141/187/2
f 141/187/2 145/191/2 142/188/2
f 144/190/2 143/189/2 138/184/2
f 138/184/2 133/181/2 144/190/2
f 145/191/2 144/190/2 133/181/2
f 133/181/2 142/188/2 145/191/2
f 141/187/2 143/189/2 146/192/2
f 146/192/2 147/193/2 141/187/2
f 129/194/5 149/196/5 148/195/5
f 148/195/5 128/197/5 129/194/5
f 149/198/3 124/200/3 127/199/3
f 127/199/3 148/201/3 149/198/3
f 124/202/1 149/204/1 129/203/1
f 129/203/1 126/205/1 124/202/1
f 127/206/6 125/208/6 128/207/6
f 128/207/6 148/209/6 127/206/6
f 150/210/4 141/212/4 147/211/4
f 147/211/4 151/213/4 150/210/4
f 143/214/4 153/216/4 152/215/5
f 152/215/5 146/217/5 143/214/4
f 153/218/3 150/220/3 151/219/3
f 151/219/3 152/221/3 153/218/3
f 150/222/1 153/224/1 143/223/1
f 143/223/1 141/225/1 150/222/1
f 151/226/6 147/228/6 146/227/6
f 146/227/6 152/229/6 151/226/6
f 71/86/5 70/85/5 154/230/5
f 154/230/5 155/231/5 71/86/5
f 156/234/3 154/233/3 70/232/3
f 70/232/3 72/235/3 156/234/3
f 82/237/3 80/236/3 70/232/3
f 70/232/3 76/238/3 82/237/3
f 78/239/3 80/236/3 157/240/3
f 157/240/3 158/241/3 78/239/3
f 78/239/3 84/243/3 66/242/3
f 66/242/3 64/244/3 78/239/3
f 84/243/3 76/238/3 102/22/3
f 102/22/3 68/245/3 84/243/3
f 62/246/3 68/245/3 102/22/3
f 102/22/3 103/19/3 62/246/3
f 31/168/3 102/22/3 76/238/3
f 76/238/3 74/247/3 31/168/3
f 31/168/3 74/247/3 72/235/3
f 72/235/3 32/26/3 31/168/3
f 62/246/3 103/19/3 32/26/3
f 32/26/3 64/244/3 62/246/3
f 62/246/3 64/244/3 159/248/3
f 159/248/3 160/249/3 62/246/3
f 72/95/4 69/92/4 161/250/4
f 161/250/4 156/251/4 72/95/4
f 69/252/2 71/254/2 155/253/2
f 155/253/2 161/255/2 69/252/2
f 71/100/4 69/102/4 72/101/4
f 72/101/4 70/103/4 71/100/4
f 155/98/6 154/97/6 156/99/6
f 156/99/6 161/96/6 155/98/6
f 162/112/3 163/114/3 108/113/3
f 108/113/3 100/115/3 162/112/3
f 106/140/2 107/142/2 164/141/2
f 164/141/2 165/143/2 106/140/2
f 165/256/4 164/258/4 163/257/4
f 163/257/4 162/259/4 165/256/4
f 163/264/6 164/266/6 107/265/6
f 107/265/6 108/267/6 163/264/6
f 166/268/3 168/270/3 167/269/3
f 167/269/3 169/271/3 166/268/3
f 170/272/1 166/274/1 169/273/1
f 169/273/1 171/275/1 170/272/1
f 172/276/2 170/278/2 171/277/2
f 171/277/2 173/279/2 172/276/2
f 168/280/4 172/282/4 173/281/4
f 173/281/4 167/283/4 168/280/4
f 63/86/5 62/85/5 160/230/5
f 160/230/5 174/231/5 63/86/5
f 64/95/4 61/92/4 175/250/4
f 175/250/4 159/251/4 64/95/4
f 61/284/2 63/286/2 174/285/2
f 174/285/2 175/287/2 61/284/2
f 63/88/4 61/90/4 64/89/4
f 64/89/4 62/91/4 63/88/4
f 174/82/6 160/81/6 159/83/6
f 159/83/6 175/80/6 174/82/6
f 135/288/5 134/290/5 11/289/5
f 11/289/5 9/291/5 135/288/5
f 79/86/5 78/85/5 158/230/5
f 158/230/5 176/231/5 79/86/5
f 80/95/4 77/92/4 177/250/4
f 177/250/4 157/251/4 80/95/4
f 77/292/2 79/294/2 176/293/2
f 176/293/2 177/295/2 77/292/2
f 79/108/4 77/110/4 80/109/4
f 80/109/4 78/111/4 79/108/4
f 176/106/6 158/105/6 157/107/6
f 157/107/6 177/104/6 176/106/6
f 178/296/2 179/297/2 104/19/2
f 104/19/2 97/298/2 178/296/2
f 180/297/3 181/300/3 93/299/3
f 93/299/3 92/19/3 180/297/3
f 181/301/1 178/303/1 97/302/1
f 97/302/1 93/304/1 181/301/1
f 99/305/3 101/19/3 182/297/3
f 182/297/3 183/306/3 99/305/3
f 184/307/1 186/309/1 185/308/1
f 185/308/1 187/310/1 184/307/1
f 91/19/2 94/312/2 188/311/2
f 188/311/2 189/297/2 91/19/2
f 105/313/3 106/115/3 165/112/3
f 165/112/3 190/314/3 105/313/3
f 98/262/1 105/261/1 190/263/1
f 190/263/1 191/260/1 98/262/1
f 100/140/2 98/316/2 191/315/2
f 191/315/2 162/143/2 100/140/2
f 96/313/3 90/115/3 110/112/3
f 110/112/3 192/314/3 96/313/3
f 95/150/1 96/149/1 192/151/1
f 192/151/1 193/148/1 95/150/1
f 88/140/2 95/316/2 193/315/2
f 193/315/2 85/143/2 88/140/2
f 150/216/5 194/318/5 145/317/5
f 145/317/5 141/214/5 150/216/5
f 194/222/1 195/224/1 144/223/1
f 144/223/1 145/225/1 194/222/1
f 153/229/6 150/226/6 141/228/6
f 141/228/6 143/227/6 153/229/6
f 195/319/4 153/210/4 143/212/4
f 143/212/4 144/320/4 195/319/4
f 196/202/1 197/204/1 142/203/1
f 142/203/1 132/205/1 196/202/1
f 197/321/4 149/171/4 129/173/4
f 129/173/4 142/322/4 197/321/4
f 149/209/6 124/206/6 126/208/6
f 126/208/6 129/207/6 149/209/6
f 124/196/4 196/324/5 132/323/5
f 132/323/5 126/194/4 124/196/4
f 198/325/1 199/327/1 137/326/1
f 137/326/1 133/328/1 198/325/1
f 199/321/4 200/171/4 136/173/4
f 136/173/4 137/322/4 199/321/4
f 200/329/4 201/331/4 138/330/4
f 138/330/4 136/332/4 200/329/4
f 201/196/5 198/324/5 133/323/5
f 133/323/5 138/194/5 201/196/5
f 60/72/3 26/71/3 28/333/3
f 28/333/3 202/334/3 60/72/3
f 22/79/2 59/78/2 203/335/2
f 203/335/2 27/336/2 22/79/2
f 59/337/5 60/339/5 202/338/5
f 202/338/5 203/340/5 59/337/5
f 60/66/4 59/68/4 22/67/4
f 22/67/4 26/69/4 60/66/4
f 202/76/6 28/75/6 27/77/6
f 27/77/6 203/74/6 202/76/6
f 204/341/4 206/343/4 205/342/4
f 205/342/4 24/30/4 204/341/4
f 24/26/3 205/345/3 207/344/3
f 207/344/3 45/23/3 24/26/3
f 45/346/5 207/348/5 208/347/5
f 208/347/5 209/349/5 45/346/5
f 208/350/6 207/352/6 205/351/6
f 205/351/6 206/353/6 208/350/6
f 7/7/2 8/6/2 210/354/2
f 210/354/2 211/355/2 7/7/2
f 212/358/5 210/357/5 8/356/5
f 8/356/5 5/359/5 212/358/5
f 5/359/5 8/356/5 10/289/5
f 10/289/5 15/131/5 5/359/5
f 4/360/5 12/291/5 10/289/5
f 10/289/5 8/356/5 4/360/5
f 2/361/5 5/359/5 15/131/5
f 15/131/5 13/135/5 2/361/5
f 13/135/5 12/291/5 4/360/5
f 4/360/5 2/361/5 13/135/5
f 5/12/3 6/9/3 213/362/3
f 213/362/3 212/363/3 5/12/3
f 6/364/4 7/366/4 211/365/4
f 211/365/4 213/367/4 6/364/4
f 7/1/4 6/3/4 5/2/4
f 5/2/4 8/4/4 7/1/4
f 211/15/6 210/14/6 212/16/6
f 212/16/6 213/13/6 211/15/6
f 201/171/4 138/173/4 140/172/4
f 140/172/4 214/174/4 201/171/4
f 136/194/5 200/196/5 215/195/5
f 215/195/5 139/197/5 136/194/5
f 200/368/3 201/370/3 214/369/3
f 214/369/3 215/371/3 200/368/3
f 201/325/4 200/327/4 136/326/4
f 136/326/4 138/328/4 201/325/4
f 214/331/6 140/330/6 139/332/6
f 139/332/6 215/329/6 214/331/6
f 172/270/3 173/269/3 216/372/3
f 216/372/3 217/373/3 172/270/3
f 218/376/4 216/375/4 173/374/4
f 173/374/4 167/377/4 218/376/4
f 167/377/4 173/374/4 121/47/4
f 121/47/4 130/378/4 167/377/4
f 171/379/4 123/43/4 121/47/4
f 121/47/4 173/374/4 171/379/4
f 169/381/4 167/377/4 130/378/4
f 130/378/4 131/380/4 169/381/4
f 131/380/4 123/43/4 171/379/4
f 171/379/4 169/381/4 131/380/4
f 167/279/2 168/276/2 219/382/2
f 219/382/2 218/383/2 167/279/2
f 168/384/5 172/386/5 217/385/5
f 217/385/5 219/387/5 168/384/5
f 172/272/4 168/274/4 167/273/4
f 167/273/4 173/275/4 172/272/4
f 217/282/6 216/281/6 218/283/6
f 218/283/6 219/280/6 217/282/6
f 222/390/2 221/389/2 220/388/2
f 220/388/2 223/391/2 222/390/2
f 223/391/2 220/388/2 224/392/2
f 224/392/2 225/393/2 223/391/2
f 226/396/5 222/395/5 223/394/5
f 223/394/5 227/397/5 226/396/5
f 228/398/5 227/397/5 223/394/5
f 223/394/5 225/399/5 228/398/5
f 229/402/3 226/401/3 227/400/3
f 227/400/3 230/403/3 229/402/3
f 231/404/3 230/403/3 227/400/3
f 227/400/3 228/405/3 231/404/3
f 221/408/4 229/407/4 230/406/4
f 230/406/4 220/409/4 221/408/4
f 224/410/4 220/409/4 230/406/4
f 230/406/4 231/411/4 224/410/4
f 232/412/5 234/414/5 233/413/5
f 233/413/5 235/415/5 232/412/5
f 234/416/2 237/418/2 236/417/2
f 236/417/2 233/419/2 234/416/2
f 237/420/4 239/422/4 238/421/4
f 238/421/4 236/423/4 237/420/4
f 239/424/3 232/426/3 235/425/3
f 235/425/3 238/427/3 239/424/3
f 231/428/7 228/430/7 225/429/7
f 225/429/7 224/431/7 231/428/7
f 227/432/6 230/434/6 220/433/6
f 220/433/6 223/435/6 227/432/6
f 233/437/6 236/436/6 226/432/6
f 226/432/6 229/434/6 233/437/6
f 238/438/6 222/435/6 226/432/6
f 226/432/6 236/436/6 238/438/6
f 235/439/6 233/437/6 229/434/6
f 229/434/6 221/433/6 235/439/6
f 235/439/6 221/433/6 222/435/6
f 222/435/6 238/438/6 235/439/6
f 232/444/1 239/441/1 223/440/1
f 223/440/1 220/442/1 232/444/1
f 237/445/1 227/443/1 223/440/1
f 223/440/1 239/441/1 237/445/1
f 234/446/1 232/444/1 220/442/1
f 220/442/1 230/447/1 234/446/1
f 234/446/1 230/447/1 227/443/1
f 227/443/1 237/445/1 234/446/1
f 186/451/2 99/449/2 183/448/2
f 183/448/2 185/450/2 186/451/2
f 184/455/5 94/453/5 99/452/5
f 99/452/5 186/454/5 184/455/5
f 187/459/3 188/457/3 94/456/3
f 94/456/3 184/458/3 187/459/3
f 185/463/4 183/461/4 188/460/4
f 188/460/4 187/462/4 185/463/4
f 42/467/5 204/465/5 122/464/5
f 122/464/5 41/466/5 42/467/5
f 241/471/8 40/469/8 38/468/8
f 38/468/8 240/470/8 241/471/8
f 44/475/4 115/473/4 204/472/4
f 204/472/4 42/474/4 44/475/4
f 245/479/2 243/477/2 242/476/2
f 242/476/2 244/478/2 245/479/2
f 247/483/6 43/481/6 119/480/6
f 119/480/6 246/482/6 247/483/6
f 251/485/6 249/482/6 248/483/6
f 248/483/6 250/484/6 251/485/6
f 250/489/8 248/487/8 247/486/8
f 247/486/8 252/488/8 250/489/8
f 253/493/9 246/491/9 249/490/9
f 249/490/9 251/492/9 253/493/9
f 252/497/1 247/495/1 246/494/1
f 246/494/1 253/496/1 252/497/1
f 255/501/6 47/499/6 33/498/6
f 33/498/6 254/500/6 255/501/6
f 256/505/9 118/503/9 47/502/9
f 47/502/9 255/504/9 256/505/9
f 257/507/1 115/57/1 118/54/1
f 118/54/1 256/506/1 257/507/1
f 254/511/8 33/509/8 115/508/8
f 115/508/8 257/510/8 254/511/8
f 259/513/2 111/156/2 114/159/2
f 114/159/2 258/512/2 259/513/2
f 260/517/10 48/515/10 111/514/10
f 111/514/10 259/516/10 260/517/10
f 264/521/3 262/519/3 261/518/3
f 261/518/3 263/520/3 264/521/3
f 258/525/11 114/523/11 36/522/11
f 36/522/11 265/524/11 258/525/11
f 51/529/2 259/527/2 258/526/2
f 258/526/2 50/528/2 51/529/2
f 49/531/10 260/517/10 259/516/10
f 259/516/10 51/530/10 49/531/10
f 267/535/3 264/533/3 263/532/3
f 263/532/3 266/534/3 267/535/3
f 50/537/11 258/525/11 265/524/11
f 265/524/11 52/536/11 50/537/11
f 40/541/2 122/539/2 35/538/2
f 35/538/2 37/540/2 40/541/2
f 38/545/3 114/543/3 43/542/3
f 43/542/3 240/544/3 38/545/3
f 241/547/2 41/546/2 122/539/2
f 122/539/2 40/541/2 241/547/2
f 240/551/12 43/549/12 41/548/12
f 41/548/12 241/550/12 240/551/12
f 39/554/3 36/552/3 114/543/3
f 114/543/3 38/553/3 39/554/3
f 37/558/13 35/556/13 36/555/13
f 36/555/13 39/557/13 37/558/13
f 271/566/3 274/569/3 273/568/3
f 273/568/3 272/567/3 271/566/3
f 272/567/3 273/568/3 276/571/3
f 276/571/3 275/570/3 272/567/3
f 278/574/3 269/573/3 270/70/3
f 270/70/3 277/572/3 278/574/3
f 268/575/3 34/73/3 269/573/3
f 269/573/3 278/574/3 268/575/3
f 281/581/6 268/353/6 278/579/6
f 278/579/6 280/580/6 281/581/6
f 282/585/8 204/583/8 268/582/8
f 268/582/8 281/584/8 282/585/8
f 283/587/1 279/562/1 204/561/1
f 204/561/1 282/586/1 283/587/1
f 284/588/1 209/563/1 279/562/1
f 279/562/1 283/587/1 284/588/1
f 280/580/6 278/579/6 277/350/6
f 277/350/6 285/589/6 280/580/6
f 285/593/9 277/591/9 209/590/9
f 209/590/9 284/592/9 285/593/9
f 273/595/6 280/580/6 285/589/6
f 285/589/6 276/594/6 273/595/6
f 275/597/1 284/588/1 283/587/1
f 283/587/1 272/596/1 275/597/1
f 276/601/5 285/599/5 284/598/5
f 284/598/5 275/600/5 276/601/5
f 274/602/6 281/581/6 280/580/6
f 280/580/6 273/595/6 274/602/6
f 271/606/4 282/604/4 281/603/4
f 281/603/4 274/605/4 271/606/4
f 272/596/1 283/587/1 282/586/1
f 282/586/1 271/607/1 272/596/1
f 291/614/3 290/567/3 289/566/3
f 289/566/3 292/615/3 291/614/3
f 294/616/3 293/570/3 290/567/3
f 290/567/3 291/614/3 294/616/3
f 296/620/3 286/619/3 287/618/3
f 287/618/3 295/617/3 296/620/3
f 288/622/3 30/621/3 286/619/3
f 286/619/3 296/620/3 288/622/3
f 290/624/1 297/609/1 25/608/1
f 25/608/1 289/623/1 290/624/1
f 289/628/4 25/626/4 288/625/4
f 288/625/4 292/627/4 289/628/4
f 294/632/5 295/630/5 298/629/5
f 298/629/5 293/631/5 294/632/5
f 292/636/6 288/634/6 296/633/6
f 296/633/6 291/635/6 292/636/6
f 293/637/1 298/610/1 297/609/1
f 297/609/1 290/624/1 293/637/1
f 291/635/6 296/633/6 295/638/6
f 295/638/6 294/639/6 291/635/6
f 300/641/6 255/501/6 254/500/6
f 254/500/6 299/640/6 300/641/6
f 301/645/14 256/643/14 255/642/14
f 255/642/14 300/644/14 301/645/14
f 302/647/1 257/507/1 256/506/1
f 256/506/1 301/646/1 302/647/1
f 306/651/15 304/649/15 303/648/15
f 303/648/15 305/650/15 306/651/15
f 308/653/6 251/485/6 250/484/6
f 250/484/6 307/652/6 308/653/6
f 312/657/15 310/655/15 309/654/15
f 309/654/15 311/656/15 312/657/15
f 313/661/14 253/659/14 251/658/14
f 251/658/14 308/660/14 313/661/14
f 314/663/1 252/497/1 253/496/1
f 253/496/1 313/662/1 314/663/1
f 316/665/6 300/641/6 299/640/6
f 299/640/6 315/664/6 316/665/6
f 317/669/16 301/667/16 300/666/16
f 300/666/16 316/668/16 317/669/16
f 318/671/1 302/647/1 301/646/1
f 301/646/1 317/670/1 318/671/1
f 320/675/17 306/673/17 305/672/17
f 305/672/17 319/674/17 320/675/17
f 322/677/6 308/653/6 307/652/6
f 307/652/6 321/676/6 322/677/6
f 324/681/17 312/679/17 311/678/17
f 311/678/17 323/680/17 324/681/17
f 325/685/16 313/683/16 308/682/16
f 308/682/16 322/684/16 325/685/16
f 326/687/1 314/663/1 313/662/1
f 313/662/1 325/686/1 326/687/1
f 55/689/6 316/665/6 315/664/6
f 315/664/6 54/688/6 55/689/6
f 53/693/18 317/691/18 316/690/18
f 316/690/18 55/692/18 53/693/18
f 56/695/1 318/671/1 317/670/1
f 317/670/1 53/694/1 56/695/1
f 328/699/19 320/697/19 319/696/19
f 319/696/19 327/698/19 328/699/19
f 243/701/6 322/677/6 321/676/6
f 321/676/6 242/700/6 243/701/6
f 330/705/19 324/703/19 323/702/19
f 323/702/19 329/704/19 330/705/19
f 245/709/18 325/707/18 322/706/18
f 322/706/18 243/708/18 245/709/18
f 244/711/1 326/687/1 325/686/1
f 325/686/1 245/710/1 244/711/1
f 332/715/20 260/713/20 49/712/20
f 49/712/20 331/714/20 332/715/20
f 336/719/21 334/717/21 333/716/21
f 333/716/21 335/718/21 336/719/21
f 340/721/1 338/164/1 337/166/1
f 337/166/1 339/720/1 340/721/1
f 342/725/6 36/723/6 48/722/6
f 48/722/6 341/724/6 342/725/6
f 341/729/9 48/727/9 260/726/9
f 260/726/9 332/728/9 341/729/9
f 335/733/8 333/731/8 343/730/8
f 343/730/8 344/732/8 335/733/8
f 263/737/22 332/735/22 331/734/22
f 331/734/22 266/736/22 263/737/22
f 346/741/23 336/739/23 335/738/23
f 335/738/23 345/740/23 346/741/23
f 348/743/1 340/721/1 339/720/1
f 339/720/1 347/742/1 348/743/1
f 262/745/6 342/725/6 341/724/6
f 341/724/6 261/744/6 262/745/6
f 261/749/24 341/747/24 332/746/24
f 332/746/24 263/748/24 261/749/24
f 345/753/25 335/751/25 344/750/25
f 344/750/25 349/752/25 345/753/25
f 351/757/2 49/755/2 52/754/2
f 52/754/2 350/756/2 351/757/2
f 353/761/21 334/759/21 336/758/21
f 336/758/21 352/760/21 353/761/21
f 354/765/20 331/763/20 49/762/20
f 49/762/20 351/764/20 354/765/20
f 352/769/23 336/767/23 346/766/23
f 346/766/23 355/768/23 352/769/23
f 356/773/22 266/771/22 331/770/22
f 331/770/22 354/772/22 356/773/22
f 357/777/3 267/775/3 266/774/3
f 266/774/3 356/776/3 357/777/3
f 338/781/2 351/779/2 350/778/2
f 350/778/2 337/780/2 338/781/2
f 359/785/21 353/783/21 352/782/21
f 352/782/21 358/784/21 359/785/21
f 340/789/20 354/787/20 351/786/20
f 351/786/20 338/788/20 340/789/20
f 358/793/23 352/791/23 355/790/23
f 355/790/23 360/792/23 358/793/23
f 348/797/22 356/795/22 354/794/22
f 354/794/22 340/796/22 348/797/22
f 347/801/3 357/799/3 356/798/3
f 356/798/3 348/800/3 347/801/3
f 345/805/3 264/803/3 267/802/3
f 267/802/3 346/804/3 345/805/3
f 360/807/1 347/742/1 339/720/1
f 339/720/1 358/806/1 360/807/1
f 359/811/2 337/809/2 350/808/2
f 350/808/2 353/810/2 359/811/2
f 358/806/1 339/720/1 337/166/1
f 337/166/1 359/812/1 358/806/1
f 355/816/3 357/814/3 347/813/3
f 347/813/3 360/815/3 355/816/3
f 353/820/2 350/818/2 52/817/2
f 52/817/2 334/819/2 353/820/2
f 346/824/3 267/822/3 357/821/3
f 357/821/3 355/823/3 346/824/3
f 349/828/3 262/826/3 264/825/3
f 264/825/3 345/827/3 349/828/3
f 334/832/2 52/830/2 265/829/2
f 265/829/2 333/831/2 334/832/2
f 344/834/6 342/725/6 262/745/6
f 262/745/6 349/833/6 344/834/6
f 333/838/2 265/836/2 36/835/2
f 36/835/2 343/837/2 333/838/2
f 343/839/6 36/723/6 342/725/6
f 342/725/6 344/834/6 343/839/6
f 362/843/3 254/841/3 257/840/3
f 257/840/3 361/842/3 362/843/3
f 364/845/1 318/671/1 56/695/1
f 56/695/1 363/844/1 364/845/1
f 366/847/6 54/688/6 315/664/6
f 315/664/6 365/846/6 366/847/6
f 363/851/2 56/849/2 54/848/2
f 54/848/2 366/850/2 363/851/2
f 367/852/1 302/647/1 318/671/1
f 318/671/1 364/845/1 367/852/1
f 365/846/6 315/664/6 299/640/6
f 299/640/6 368/853/6 365/846/6
f 361/854/1 257/507/1 302/647/1
f 302/647/1 367/852/1 361/854/1
f 368/853/6 299/640/6 254/500/6
f 254/500/6 362/855/6 368/853/6
f 370/859/3 250/857/3 252/856/3
f 252/856/3 369/858/3 370/859/3
f 372/861/1 326/687/1 244/711/1
f 244/711/1 371/860/1 372/861/1
f 374/863/6 242/700/6 321/676/6
f 321/676/6 373/862/6 374/863/6
f 371/867/2 244/865/2 242/864/2
f 242/864/2 374/866/2 371/867/2
f 375/868/1 314/663/1 326/687/1
f 326/687/1 372/861/1 375/868/1
f 373/862/6 321/676/6 307/652/6
f 307/652/6 376/869/6 373/862/6
f 369/870/1 252/497/1 314/663/1
f 314/663/1 375/868/1 369/870/1
f 376/869/6 307/652/6 250/484/6
f 250/484/6 370/871/6 376/869/6
f 304/875/26 362/873/26 361/872/26
f 361/872/26 303/874/26 304/875/26
f 319/877/1 364/845/1 363/844/1
f 363/844/1 327/876/1 319/877/1
f 328/879/6 366/847/6 365/846/6
f 365/846/6 320/878/6 328/879/6
f 327/883/27 363/881/27 366/880/27
f 366/880/27 328/882/27 327/883/27
f 305/884/1 367/852/1 364/845/1
f 364/845/1 319/877/1 305/884/1
f 320/878/6 365/846/6 368/853/6
f 368/853/6 306/885/6 320/878/6
f 303/886/1 361/854/1 367/852/1
f 367/852/1 305/884/1 303/886/1
f 306/885/6 368/853/6 362/855/6
f 362/855/6 304/887/6 306/885/6
f 310/891/3 370/889/3 369/888/3
f 369/888/3 309/890/3 310/891/3
f 323/893/1 372/861/1 371/860/1
f 371/860/1 329/892/1 323/893/1
f 330/895/6 374/863/6 373/862/6
f 373/862/6 324/894/6 330/895/6
f 329/899/2 371/897/2 374/896/2
f 374/896/2 330/898/2 329/899/2
f 311/900/1 375/868/1 372/861/1
f 372/861/1 323/893/1 311/900/1
f 324/894/6 373/862/6 376/869/6
f 376/869/6 312/901/6 324/894/6
f 309/902/1 369/870/1 375/868/1
f 375/868/1 311/900/1 309/902/1
f 312/901/6 376/869/6 370/871/6
f 370/871/6 310/903/6 312/901/6

